STARTFONT 2.1
FONT -Efont-Fixed-Bold-R-Normal--24-240-75-75-C-120-ISO10646-1
SIZE 24 75 75
FONTBOUNDINGBOX 12 24 0 -2
STARTPROPERTIES 19
COPYRIGHT "(c) Copyright 2000-2003 /efont/ The Electronic Font Open Laboratory."
FOUNDRY "Efont"
FAMILY_NAME "Fixed"
WEIGHT_NAME "Bold"
SLANT "R"
SETWIDTH_NAME "Normal"
ADD_STYLE_NAME ""
PIXEL_SIZE 24
POINT_SIZE 240
RESOLUTION_X 75
RESOLUTION_Y 75
AVERAGE_WIDTH 120
CHARSET_REGISTRY "ISO10646"
CHARSET_ENCODING "1"
_MULE_BASELINE_OFFSET -3
FONT_ASCENT 22
FONT_DESCENT 2
DEFAULT_CHAR 32
_XMBDFED_INFO "Edited with xmbdfed 4.7."
ENDPROPERTIES
CHARS 2125
STARTCHAR U+0020
ENCODING 32
SWIDTH 480 0
DWIDTH 12 0
BBX 12 24 0 -2
BITMAP
0000
0000
0000
0000
0000
0000
0000
0000
0000
0000
0000
0000
0000
0000
0000
0000
0000
0000
0000
0000
0000
0000
0000
0000
ENDCHAR
STARTCHAR U+0021
ENCODING 33
SWIDTH 480 0
DWIDTH 12 0
BBX 12 24 0 -2
BITMAP
0000
0000
0000
0000
0000
0E00
0E00
0E00
0E00
0E00
0E00
0E00
0E00
0E00
0E00
0000
0000
0E00
1F00
0E00
0000
0000
0000
0000
ENDCHAR
STARTCHAR U+0022
ENCODING 34
SWIDTH 480 0
DWIDTH 12 0
BBX 12 24 0 -2
BITMAP
0000
0000
0000
0000
3B80
3B80
3B80
3B80
3B80
0000
0000
0000
0000
0000
0000
0000
0000
0000
0000
0000
0000
0000
0000
0000
ENDCHAR
STARTCHAR U+0023
ENCODING 35
SWIDTH 480 0
DWIDTH 12 0
BBX 12 24 0 -2
BITMAP
0000
0000
0000
0000
0000
1DC0
1DC0
1DC0
7FE0
7FE0
3B80
3B80
3B80
3B80
FFC0
FFC0
7700
7700
7700
0000
0000
0000
0000
0000
ENDCHAR
STARTCHAR U+0024
ENCODING 36
SWIDTH 480 0
DWIDTH 12 0
BBX 12 24 0 -2
BITMAP
0000
0000
0000
0000
0000
0E00
3F80
7FE0
EEE0
EE00
7E00
3F80
0FC0
0EE0
0EE0
EEE0
FFC0
7F80
0E00
0000
0000
0000
0000
0000
ENDCHAR
STARTCHAR U+0025
ENCODING 37
SWIDTH 480 0
DWIDTH 12 0
BBX 12 24 0 -2
BITMAP
0000
0000
0000
0000
0000
79C0
FDC0
ED80
FD80
7B00
0700
0E00
0E00
1C00
1DC0
3BE0
3B60
77E0
73C0
0000
0000
0000
0000
0000
ENDCHAR
STARTCHAR U+0026
ENCODING 38
SWIDTH 480 0
DWIDTH 12 0
BBX 12 24 0 -2
BITMAP
0000
0000
0000
0000
0000
0F00
1F80
3DC0
39C0
3B80
1F80
3F00
7E00
F760
E3E0
E3C0
E380
7FE0
3EE0
0000
0000
0000
0000
0000
ENDCHAR
STARTCHAR U+0027
ENCODING 39
SWIDTH 480 0
DWIDTH 12 0
BBX 12 24 0 -2
BITMAP
0000
0000
0000
0E00
1F00
1F00
0700
0700
0E00
1C00
0000
0000
0000
0000
0000
0000
0000
0000
0000
0000
0000
0000
0000
0000
ENDCHAR
STARTCHAR U+0028
ENCODING 40
SWIDTH 480 0
DWIDTH 12 0
BBX 12 24 0 -2
BITMAP
0000
0000
0000
0000
0000
0380
0700
0F00
0E00
1E00
1C00
1C00
1C00
1C00
1E00
0E00
0F00
0700
0380
0000
0000
0000
0000
0000
ENDCHAR
STARTCHAR U+0029
ENCODING 41
SWIDTH 480 0
DWIDTH 12 0
BBX 12 24 0 -2
BITMAP
0000
0000
0000
0000
0000
3800
1C00
1E00
0E00
0F00
0700
0700
0700
0700
0F00
0E00
1E00
1C00
3800
0000
0000
0000
0000
0000
ENDCHAR
STARTCHAR U+002A
ENCODING 42
SWIDTH 480 0
DWIDTH 12 0
BBX 12 24 0 -2
BITMAP
0000
0000
0000
0000
0000
0000
0000
0E00
0E00
EEE0
F6E0
3F80
0E00
3F80
F6E0
EEE0
0E00
0E00
0000
0000
0000
0000
0000
0000
ENDCHAR
STARTCHAR U+002B
ENCODING 43
SWIDTH 480 0
DWIDTH 12 0
BBX 12 24 0 -2
BITMAP
0000
0000
0000
0000
0000
0000
0000
0000
0E00
0E00
0E00
0E00
FFE0
FFE0
0E00
0E00
0E00
0E00
0000
0000
0000
0000
0000
0000
ENDCHAR
STARTCHAR U+002C
ENCODING 44
SWIDTH 480 0
DWIDTH 12 0
BBX 12 24 0 -2
BITMAP
0000
0000
0000
0000
0000
0000
0000
0000
0000
0000
0000
0000
0000
0000
0000
0E00
1F00
1F00
0700
0700
0E00
1C00
0000
0000
ENDCHAR
STARTCHAR U+002D
ENCODING 45
SWIDTH 480 0
DWIDTH 12 0
BBX 12 24 0 -2
BITMAP
0000
0000
0000
0000
0000
0000
0000
0000
0000
0000
0000
0000
FFE0
FFE0
0000
0000
0000
0000
0000
0000
0000
0000
0000
0000
ENDCHAR
STARTCHAR U+002E
ENCODING 46
SWIDTH 480 0
DWIDTH 12 0
BBX 12 24 0 -2
BITMAP
0000
0000
0000
0000
0000
0000
0000
0000
0000
0000
0000
0000
0000
0000
0000
0E00
1F00
1F00
0E00
0000
0000
0000
0000
0000
ENDCHAR
STARTCHAR U+002F
ENCODING 47
SWIDTH 480 0
DWIDTH 12 0
BBX 12 24 0 -2
BITMAP
0000
0000
0000
0000
0000
01C0
01C0
0380
0380
0700
0700
0E00
0E00
1C00
1C00
3800
3800
7000
7000
0000
0000
0000
0000
0000
ENDCHAR
STARTCHAR U+0030
ENCODING 48
SWIDTH 480 0
DWIDTH 12 0
BBX 12 24 0 -2
BITMAP
0000
0000
0000
0000
0000
1F00
3F80
7BC0
71C0
73C0
77C0
76C0
7DC0
79C0
71C0
71C0
7BC0
3F80
1F00
0000
0000
0000
0000
0000
ENDCHAR
STARTCHAR U+0031
ENCODING 49
SWIDTH 480 0
DWIDTH 12 0
BBX 12 24 0 -2
BITMAP
0000
0000
0000
0000
0000
0E00
1E00
3E00
7600
0E00
0E00
0E00
0E00
0E00
0E00
0E00
0E00
7FC0
7FC0
0000
0000
0000
0000
0000
ENDCHAR
STARTCHAR U+0032
ENCODING 50
SWIDTH 480 0
DWIDTH 12 0
BBX 12 24 0 -2
BITMAP
0000
0000
0000
0000
0000
1F80
3FC0
71E0
70E0
00E0
01C0
0380
0700
0E00
1C00
3800
7000
7FE0
7FE0
0000
0000
0000
0000
0000
ENDCHAR
STARTCHAR U+0033
ENCODING 51
SWIDTH 480 0
DWIDTH 12 0
BBX 12 24 0 -2
BITMAP
0000
0000
0000
0000
0000
1F80
3FC0
71E0
70E0
00E0
01C0
0F80
0FC0
00E0
00E0
70E0
71E0
3FC0
1F80
0000
0000
0000
0000
0000
ENDCHAR
STARTCHAR U+0034
ENCODING 52
SWIDTH 480 0
DWIDTH 12 0
BBX 12 24 0 -2
BITMAP
0000
0000
0000
0000
0000
0700
0700
0E00
0E00
1D80
1D80
3B80
3B80
7380
7FE0
7FE0
0380
0380
0380
0000
0000
0000
0000
0000
ENDCHAR
STARTCHAR U+0035
ENCODING 53
SWIDTH 480 0
DWIDTH 12 0
BBX 12 24 0 -2
BITMAP
0000
0000
0000
0000
0000
7FC0
7FC0
7000
7000
7000
7F80
7FC0
01E0
00E0
00E0
70E0
71E0
3FC0
1F80
0000
0000
0000
0000
0000
ENDCHAR
STARTCHAR U+0036
ENCODING 54
SWIDTH 480 0
DWIDTH 12 0
BBX 12 24 0 -2
BITMAP
0000
0000
0000
0000
0000
1F80
3FC0
78E0
70E0
7000
7780
7FC0
79E0
70E0
70E0
70E0
79E0
3FC0
1F80
0000
0000
0000
0000
0000
ENDCHAR
STARTCHAR U+0037
ENCODING 55
SWIDTH 480 0
DWIDTH 12 0
BBX 12 24 0 -2
BITMAP
0000
0000
0000
0000
0000
7FE0
7FE0
01C0
01C0
0380
0380
0700
0700
0E00
0E00
1C00
1C00
3800
3800
0000
0000
0000
0000
0000
ENDCHAR
STARTCHAR U+0038
ENCODING 56
SWIDTH 480 0
DWIDTH 12 0
BBX 12 24 0 -2
BITMAP
0000
0000
0000
0000
0000
1F00
3F80
71C0
71C0
71C0
3F80
3F80
7BC0
F1E0
E0E0
E0E0
F1E0
7FC0
3F80
0000
0000
0000
0000
0000
ENDCHAR
STARTCHAR U+0039
ENCODING 57
SWIDTH 480 0
DWIDTH 12 0
BBX 12 24 0 -2
BITMAP
0000
0000
0000
0000
0000
1F80
3FC0
79E0
70E0
70E0
79E0
3FE0
1F60
00E0
00E0
70E0
71E0
3FC0
1F80
0000
0000
0000
0000
0000
ENDCHAR
STARTCHAR U+003A
ENCODING 58
SWIDTH 480 0
DWIDTH 12 0
BBX 12 24 0 -2
BITMAP
0000
0000
0000
0000
0000
0000
0000
0000
0E00
1F00
1F00
0E00
0000
0000
0000
0E00
1F00
1F00
0E00
0000
0000
0000
0000
0000
ENDCHAR
STARTCHAR U+003B
ENCODING 59
SWIDTH 480 0
DWIDTH 12 0
BBX 12 24 0 -2
BITMAP
0000
0000
0000
0000
0000
0000
0000
0000
0E00
1F00
1F00
0E00
0000
0000
0000
0E00
1F00
1F00
0700
0700
0E00
1C00
0000
0000
ENDCHAR
STARTCHAR U+003C
ENCODING 60
SWIDTH 480 0
DWIDTH 12 0
BBX 12 24 0 -2
BITMAP
0000
0000
0000
0000
0000
0000
0000
0000
00E0
03C0
0F00
3E00
F800
F800
3E00
0F80
03C0
00E0
0000
0000
0000
0000
0000
0000
ENDCHAR
STARTCHAR U+003D
ENCODING 61
SWIDTH 480 0
DWIDTH 12 0
BBX 12 24 0 -2
BITMAP
0000
0000
0000
0000
0000
0000
0000
0000
0000
0000
FFE0
FFE0
0000
0000
FFE0
FFE0
0000
0000
0000
0000
0000
0000
0000
0000
ENDCHAR
STARTCHAR U+003E
ENCODING 62
SWIDTH 480 0
DWIDTH 12 0
BBX 12 24 0 -2
BITMAP
0000
0000
0000
0000
0000
0000
0000
0000
E000
7800
1E00
0F80
03E0
03E0
0F80
1E00
7800
E000
0000
0000
0000
0000
0000
0000
ENDCHAR
STARTCHAR U+003F
ENCODING 63
SWIDTH 480 0
DWIDTH 12 0
BBX 12 24 0 -2
BITMAP
0000
0000
0000
0000
0000
1F00
3F80
7BC0
61C0
01C0
0380
0700
0E00
0E00
0E00
0000
0000
0E00
1F00
0E00
0000
0000
0000
0000
ENDCHAR
STARTCHAR U+0040
ENCODING 64
SWIDTH 480 0
DWIDTH 12 0
BBX 12 24 0 -2
BITMAP
0000
0000
0000
0000
0000
1F80
3FC0
78E0
70E0
77E0
77E0
76E0
76E0
76E0
77E0
77C0
7800
3FE0
1FE0
0000
0000
0000
0000
0000
ENDCHAR
STARTCHAR U+0041
ENCODING 65
SWIDTH 480 0
DWIDTH 12 0
BBX 12 24 0 -2
BITMAP
0000
0000
0000
0000
0000
1F80
3FC0
79E0
70E0
70E0
70E0
7FE0
7FE0
70E0
70E0
70E0
70E0
70E0
70E0
0000
0000
0000
0000
0000
ENDCHAR
STARTCHAR U+0042
ENCODING 66
SWIDTH 480 0
DWIDTH 12 0
BBX 12 24 0 -2
BITMAP
0000
0000
0000
0000
0000
7F00
7F80
73C0
71C0
71C0
7380
7F80
7FC0
71C0
70E0
70E0
71E0
7FC0
7F80
0000
0000
0000
0000
0000
ENDCHAR
STARTCHAR U+0043
ENCODING 67
SWIDTH 480 0
DWIDTH 12 0
BBX 12 24 0 -2
BITMAP
0000
0000
0000
0000
0000
1F80
3FC0
79E0
70E0
7000
7000
7000
7000
7000
7000
70E0
79E0
3FC0
1F80
0000
0000
0000
0000
0000
ENDCHAR
STARTCHAR U+0044
ENCODING 68
SWIDTH 480 0
DWIDTH 12 0
BBX 12 24 0 -2
BITMAP
0000
0000
0000
0000
0000
7F80
7FC0
71E0
70E0
70E0
70E0
70E0
70E0
70E0
70E0
70E0
71E0
7FC0
7F80
0000
0000
0000
0000
0000
ENDCHAR
STARTCHAR U+0045
ENCODING 69
SWIDTH 480 0
DWIDTH 12 0
BBX 12 24 0 -2
BITMAP
0000
0000
0000
0000
0000
7FE0
7FE0
7000
7000
7000
7000
7F80
7F80
7000
7000
7000
7000
7FE0
7FE0
0000
0000
0000
0000
0000
ENDCHAR
STARTCHAR U+0046
ENCODING 70
SWIDTH 480 0
DWIDTH 12 0
BBX 12 24 0 -2
BITMAP
0000
0000
0000
0000
0000
7FE0
7FE0
7000
7000
7000
7000
7F80
7F80
7000
7000
7000
7000
7000
7000
0000
0000
0000
0000
0000
ENDCHAR
STARTCHAR U+0047
ENCODING 71
SWIDTH 480 0
DWIDTH 12 0
BBX 12 24 0 -2
BITMAP
0000
0000
0000
0000
0000
1F80
3FC0
79E0
70E0
7000
7000
7000
73E0
73E0
70E0
70E0
79E0
3FC0
1F80
0000
0000
0000
0000
0000
ENDCHAR
STARTCHAR U+0048
ENCODING 72
SWIDTH 480 0
DWIDTH 12 0
BBX 12 24 0 -2
BITMAP
0000
0000
0000
0000
0000
70E0
70E0
70E0
70E0
70E0
70E0
7FE0
7FE0
70E0
70E0
70E0
70E0
70E0
70E0
0000
0000
0000
0000
0000
ENDCHAR
STARTCHAR U+0049
ENCODING 73
SWIDTH 480 0
DWIDTH 12 0
BBX 12 24 0 -2
BITMAP
0000
0000
0000
0000
0000
3F80
3F80
0E00
0E00
0E00
0E00
0E00
0E00
0E00
0E00
0E00
0E00
3F80
3F80
0000
0000
0000
0000
0000
ENDCHAR
STARTCHAR U+004A
ENCODING 74
SWIDTH 480 0
DWIDTH 12 0
BBX 12 24 0 -2
BITMAP
0000
0000
0000
0000
0000
00E0
00E0
00E0
00E0
00E0
00E0
00E0
00E0
00E0
00E0
70E0
71E0
3FC0
1F80
0000
0000
0000
0000
0000
ENDCHAR
STARTCHAR U+004B
ENCODING 75
SWIDTH 480 0
DWIDTH 12 0
BBX 12 24 0 -2
BITMAP
0000
0000
0000
0000
0000
70E0
71C0
7380
7700
7600
7C00
7800
7C00
7600
7700
7380
71C0
70E0
7060
0000
0000
0000
0000
0000
ENDCHAR
STARTCHAR U+004C
ENCODING 76
SWIDTH 480 0
DWIDTH 12 0
BBX 12 24 0 -2
BITMAP
0000
0000
0000
0000
0000
7000
7000
7000
7000
7000
7000
7000
7000
7000
7000
7000
7000
7FE0
7FE0
0000
0000
0000
0000
0000
ENDCHAR
STARTCHAR U+004D
ENCODING 77
SWIDTH 480 0
DWIDTH 12 0
BBX 12 24 0 -2
BITMAP
0000
0000
0000
0000
0000
70E0
79E0
79E0
7DE0
7FE0
7760
7760
76E0
70E0
70E0
70E0
70E0
70E0
70E0
0000
0000
0000
0000
0000
ENDCHAR
STARTCHAR U+004E
ENCODING 78
SWIDTH 480 0
DWIDTH 12 0
BBX 12 24 0 -2
BITMAP
0000
0000
0000
0000
0000
70E0
78E0
78E0
7CE0
7CE0
76E0
76E0
7760
7760
73E0
73E0
71E0
71E0
70E0
0000
0000
0000
0000
0000
ENDCHAR
STARTCHAR U+004F
ENCODING 79
SWIDTH 480 0
DWIDTH 12 0
BBX 12 24 0 -2
BITMAP
0000
0000
0000
0000
0000
1F80
3FC0
79E0
70E0
70E0
70E0
70E0
70E0
70E0
70E0
70E0
79E0
3FC0
1F80
0000
0000
0000
0000
0000
ENDCHAR
STARTCHAR U+0050
ENCODING 80
SWIDTH 480 0
DWIDTH 12 0
BBX 12 24 0 -2
BITMAP
0000
0000
0000
0000
0000
7F80
7FC0
71E0
70E0
70E0
71E0
7FC0
7F80
7000
7000
7000
7000
7000
7000
0000
0000
0000
0000
0000
ENDCHAR
STARTCHAR U+0051
ENCODING 81
SWIDTH 480 0
DWIDTH 12 0
BBX 12 24 0 -2
BITMAP
0000
0000
0000
0000
0000
1F80
3FC0
79E0
70E0
70E0
70E0
70E0
70E0
70E0
70E0
73E0
7BE0
3FC0
1FF0
0070
0000
0000
0000
0000
ENDCHAR
STARTCHAR U+0052
ENCODING 82
SWIDTH 480 0
DWIDTH 12 0
BBX 12 24 0 -2
BITMAP
0000
0000
0000
0000
0000
7F80
7FC0
71E0
70E0
70E0
71E0
7FC0
7F80
7380
7380
71C0
71C0
70E0
70E0
0000
0000
0000
0000
0000
ENDCHAR
STARTCHAR U+0053
ENCODING 83
SWIDTH 480 0
DWIDTH 12 0
BBX 12 24 0 -2
BITMAP
0000
0000
0000
0000
0000
1F80
3FC0
71E0
70E0
7000
7800
3F80
1FC0
01E0
00E0
70E0
71E0
7FC0
3F80
0000
0000
0000
0000
0000
ENDCHAR
STARTCHAR U+0054
ENCODING 84
SWIDTH 480 0
DWIDTH 12 0
BBX 12 24 0 -2
BITMAP
0000
0000
0000
0000
0000
FFE0
FFE0
0E00
0E00
0E00
0E00
0E00
0E00
0E00
0E00
0E00
0E00
0E00
0E00
0000
0000
0000
0000
0000
ENDCHAR
STARTCHAR U+0055
ENCODING 85
SWIDTH 480 0
DWIDTH 12 0
BBX 12 24 0 -2
BITMAP
0000
0000
0000
0000
0000
70E0
70E0
70E0
70E0
70E0
70E0
70E0
70E0
70E0
70E0
70E0
79E0
3FC0
1F80
0000
0000
0000
0000
0000
ENDCHAR
STARTCHAR U+0056
ENCODING 86
SWIDTH 480 0
DWIDTH 12 0
BBX 12 24 0 -2
BITMAP
0000
0000
0000
0000
0000
E0E0
E0E0
E0E0
71C0
71C0
71C0
3B80
3B80
3B80
1B00
1F00
1F00
0E00
0E00
0000
0000
0000
0000
0000
ENDCHAR
STARTCHAR U+0057
ENCODING 87
SWIDTH 480 0
DWIDTH 12 0
BBX 12 24 0 -2
BITMAP
0000
0000
0000
0000
0000
70E0
70E0
70E0
70E0
70E0
70E0
76E0
7760
7760
7DE0
7DE0
79E0
79E0
70E0
0000
0000
0000
0000
0000
ENDCHAR
STARTCHAR U+0058
ENCODING 88
SWIDTH 480 0
DWIDTH 12 0
BBX 12 24 0 -2
BITMAP
0000
0000
0000
0000
0000
70E0
70E0
39C0
39C0
1D80
1D80
0F00
0F00
1D80
1D80
39C0
39C0
70E0
70E0
0000
0000
0000
0000
0000
ENDCHAR
STARTCHAR U+0059
ENCODING 89
SWIDTH 480 0
DWIDTH 12 0
BBX 12 24 0 -2
BITMAP
0000
0000
0000
0000
0000
E0E0
E0E0
71C0
71C0
3B80
3F80
1F00
0E00
0E00
0E00
0E00
0E00
0E00
0E00
0000
0000
0000
0000
0000
ENDCHAR
STARTCHAR U+005A
ENCODING 90
SWIDTH 480 0
DWIDTH 12 0
BBX 12 24 0 -2
BITMAP
0000
0000
0000
0000
0000
FFE0
FFE0
00E0
01E0
03C0
0780
0F00
1E00
3C00
7800
F000
E000
FFE0
FFE0
0000
0000
0000
0000
0000
ENDCHAR
STARTCHAR U+005B
ENCODING 91
SWIDTH 480 0
DWIDTH 12 0
BBX 12 24 0 -2
BITMAP
0000
0000
0000
0000
1F80
1F80
1C00
1C00
1C00
1C00
1C00
1C00
1C00
1C00
1C00
1C00
1C00
1F80
1F80
0000
0000
0000
0000
0000
ENDCHAR
STARTCHAR U+005C
ENCODING 92
SWIDTH 480 0
DWIDTH 12 0
BBX 12 24 0 -2
BITMAP
0000
0000
0000
0000
0000
7000
7000
3800
3800
1C00
1C00
0E00
0E00
0700
0700
0380
0380
01C0
01C0
0000
0000
0000
0000
0000
ENDCHAR
STARTCHAR U+005D
ENCODING 93
SWIDTH 480 0
DWIDTH 12 0
BBX 12 24 0 -2
BITMAP
0000
0000
0000
0000
3F00
3F00
0700
0700
0700
0700
0700
0700
0700
0700
0700
0700
0700
3F00
3F00
0000
0000
0000
0000
0000
ENDCHAR
STARTCHAR U+005E
ENCODING 94
SWIDTH 480 0
DWIDTH 12 0
BBX 12 24 0 -2
BITMAP
0000
0000
0000
0000
0600
0F00
1D80
39C0
70E0
0000
0000
0000
0000
0000
0000
0000
0000
0000
0000
0000
0000
0000
0000
0000
ENDCHAR
STARTCHAR U+005F
ENCODING 95
SWIDTH 480 0
DWIDTH 12 0
BBX 12 24 0 -2
BITMAP
0000
0000
0000
0000
0000
0000
0000
0000
0000
0000
0000
0000
0000
0000
0000
0000
0000
0000
0000
0000
FFF0
FFF0
0000
0000
ENDCHAR
STARTCHAR U+0060
ENCODING 96
SWIDTH 480 0
DWIDTH 12 0
BBX 12 24 0 -2
BITMAP
0000
0000
0000
0700
0E00
1C00
1C00
1F00
1F00
0E00
0000
0000
0000
0000
0000
0000
0000
0000
0000
0000
0000
0000
0000
0000
ENDCHAR
STARTCHAR U+0061
ENCODING 97
SWIDTH 480 0
DWIDTH 12 0
BBX 12 24 0 -2
BITMAP
0000
0000
0000
0000
0000
0000
0000
0000
0F80
1FC0
38E0
00E0
0FE0
3FE0
70E0
71E0
73E0
7F60
3EE0
0000
0000
0000
0000
0000
ENDCHAR
STARTCHAR U+0062
ENCODING 98
SWIDTH 480 0
DWIDTH 12 0
BBX 12 24 0 -2
BITMAP
0000
0000
0000
0000
0000
7000
7000
7000
7000
7780
77C0
7DE0
78E0
70E0
70E0
78E0
7DE0
77C0
7780
0000
0000
0000
0000
0000
ENDCHAR
STARTCHAR U+0063
ENCODING 99
SWIDTH 480 0
DWIDTH 12 0
BBX 12 24 0 -2
BITMAP
0000
0000
0000
0000
0000
0000
0000
0000
0000
1FC0
3FC0
78E0
70E0
7000
7000
7000
78E0
3FE0
1FC0
0000
0000
0000
0000
0000
ENDCHAR
STARTCHAR U+0064
ENCODING 100
SWIDTH 480 0
DWIDTH 12 0
BBX 12 24 0 -2
BITMAP
0000
0000
0000
0000
0000
00E0
00E0
00E0
00E0
1F60
3FE0
79E0
70E0
70E0
70E0
71E0
73E0
3F60
1EE0
0000
0000
0000
0000
0000
ENDCHAR
STARTCHAR U+0065
ENCODING 101
SWIDTH 480 0
DWIDTH 12 0
BBX 12 24 0 -2
BITMAP
0000
0000
0000
0000
0000
0000
0000
0000
0000
1F80
3FC0
78E0
70E0
7FE0
7FE0
7000
70E0
3FE0
1FC0
0000
0000
0000
0000
0000
ENDCHAR
STARTCHAR U+0066
ENCODING 102
SWIDTH 480 0
DWIDTH 12 0
BBX 12 24 0 -2
BITMAP
0000
0000
0000
0000
0000
0780
0F80
0E00
0E00
0E00
3F80
3F80
0E00
0E00
0E00
0E00
0E00
0E00
0E00
0000
0000
0000
0000
0000
ENDCHAR
STARTCHAR U+0067
ENCODING 103
SWIDTH 480 0
DWIDTH 12 0
BBX 12 24 0 -2
BITMAP
0000
0000
0000
0000
0000
0000
0000
0000
0000
1EE0
3F60
7BE0
71E0
70E0
70E0
70E0
79E0
3FE0
1F60
00E0
00E0
00E0
1FC0
0F80
ENDCHAR
STARTCHAR U+0068
ENCODING 104
SWIDTH 480 0
DWIDTH 12 0
BBX 12 24 0 -2
BITMAP
0000
0000
0000
0000
0000
7000
7000
7000
7000
7780
77C0
7DE0
78E0
70E0
70E0
70E0
70E0
70E0
70E0
0000
0000
0000
0000
0000
ENDCHAR
STARTCHAR U+0069
ENCODING 105
SWIDTH 480 0
DWIDTH 12 0
BBX 12 24 0 -2
BITMAP
0000
0000
0000
0000
0000
0E00
0E00
0000
0000
0E00
0E00
0E00
0E00
0E00
0E00
0E00
0E00
0E00
0E00
0000
0000
0000
0000
0000
ENDCHAR
STARTCHAR U+006A
ENCODING 106
SWIDTH 480 0
DWIDTH 12 0
BBX 12 24 0 -2
BITMAP
0000
0000
0000
0000
0000
0E00
0E00
0000
0000
0E00
0E00
0E00
0E00
0E00
0E00
0E00
0E00
0E00
0E00
0E00
0E00
7E00
7800
0000
ENDCHAR
STARTCHAR U+006B
ENCODING 107
SWIDTH 480 0
DWIDTH 12 0
BBX 12 24 0 -2
BITMAP
0000
0000
0000
0000
0000
0000
7000
7000
71C0
73C0
7780
7700
7E00
7C00
7E00
7700
7780
73C0
71C0
0000
0000
0000
0000
0000
ENDCHAR
STARTCHAR U+006C
ENCODING 108
SWIDTH 480 0
DWIDTH 12 0
BBX 12 24 0 -2
BITMAP
0000
0000
0000
0000
0000
0E00
0E00
0E00
0E00
0E00
0E00
0E00
0E00
0E00
0E00
0E00
0E00
0F80
0780
0000
0000
0000
0000
0000
ENDCHAR
STARTCHAR U+006D
ENCODING 109
SWIDTH 480 0
DWIDTH 12 0
BBX 12 24 0 -2
BITMAP
0000
0000
0000
0000
0000
0000
0000
0000
0000
EDC0
FFE0
EEE0
EEE0
EEE0
EEE0
EEE0
EEE0
EEE0
EEE0
0000
0000
0000
0000
0000
ENDCHAR
STARTCHAR U+006E
ENCODING 110
SWIDTH 480 0
DWIDTH 12 0
BBX 12 24 0 -2
BITMAP
0000
0000
0000
0000
0000
0000
0000
0000
0000
7780
77C0
7CE0
78E0
70E0
70E0
70E0
70E0
70E0
70E0
0000
0000
0000
0000
0000
ENDCHAR
STARTCHAR U+006F
ENCODING 111
SWIDTH 480 0
DWIDTH 12 0
BBX 12 24 0 -2
BITMAP
0000
0000
0000
0000
0000
0000
0000
0000
0000
1F80
3FC0
79E0
70E0
70E0
70E0
70E0
79E0
3FC0
1F80
0000
0000
0000
0000
0000
ENDCHAR
STARTCHAR U+0070
ENCODING 112
SWIDTH 480 0
DWIDTH 12 0
BBX 12 24 0 -2
BITMAP
0000
0000
0000
0000
0000
0000
0000
0000
0000
7780
77C0
7DE0
78E0
70E0
70E0
78E0
7DE0
77C0
7780
7000
7000
7000
7000
0000
ENDCHAR
STARTCHAR U+0071
ENCODING 113
SWIDTH 480 0
DWIDTH 12 0
BBX 12 24 0 -2
BITMAP
0000
0000
0000
0000
0000
0000
0000
0000
0000
1EE0
3F60
7BE0
71E0
70E0
70E0
71E0
7BE0
3F60
1EE0
00E0
00E0
00E0
00E0
0000
ENDCHAR
STARTCHAR U+0072
ENCODING 114
SWIDTH 480 0
DWIDTH 12 0
BBX 12 24 0 -2
BITMAP
0000
0000
0000
0000
0000
0000
0000
0000
0000
7780
77C0
7CE0
78E0
7000
7000
7000
7000
7000
7000
0000
0000
0000
0000
0000
ENDCHAR
STARTCHAR U+0073
ENCODING 115
SWIDTH 480 0
DWIDTH 12 0
BBX 12 24 0 -2
BITMAP
0000
0000
0000
0000
0000
0000
0000
0000
0000
3FC0
7FE0
7060
7000
3F80
1FC0
00E0
70E0
7FE0
3FC0
0000
0000
0000
0000
0000
ENDCHAR
STARTCHAR U+0074
ENCODING 116
SWIDTH 480 0
DWIDTH 12 0
BBX 12 24 0 -2
BITMAP
0000
0000
0000
0000
0000
0000
0E00
0E00
0E00
3F80
3F80
0E00
0E00
0E00
0E00
0E00
0E00
0F80
0780
0000
0000
0000
0000
0000
ENDCHAR
STARTCHAR U+0075
ENCODING 117
SWIDTH 480 0
DWIDTH 12 0
BBX 12 24 0 -2
BITMAP
0000
0000
0000
0000
0000
0000
0000
0000
0000
70E0
70E0
70E0
70E0
70E0
70E0
71E0
7BE0
3F60
1EE0
0000
0000
0000
0000
0000
ENDCHAR
STARTCHAR U+0076
ENCODING 118
SWIDTH 480 0
DWIDTH 12 0
BBX 12 24 0 -2
BITMAP
0000
0000
0000
0000
0000
0000
0000
0000
0000
E0E0
E0E0
71C0
71C0
3B80
3B80
1F00
1F00
0E00
0E00
0000
0000
0000
0000
0000
ENDCHAR
STARTCHAR U+0077
ENCODING 119
SWIDTH 480 0
DWIDTH 12 0
BBX 12 24 0 -2
BITMAP
0000
0000
0000
0000
0000
0000
0000
0000
0000
70E0
70E0
70E0
70E0
76E0
7760
7760
7DE0
79E0
70E0
0000
0000
0000
0000
0000
ENDCHAR
STARTCHAR U+0078
ENCODING 120
SWIDTH 480 0
DWIDTH 12 0
BBX 12 24 0 -2
BITMAP
0000
0000
0000
0000
0000
0000
0000
0000
0000
70E0
70E0
39C0
1D80
0F00
0F00
1D80
39C0
70E0
70E0
0000
0000
0000
0000
0000
ENDCHAR
STARTCHAR U+0079
ENCODING 121
SWIDTH 480 0
DWIDTH 12 0
BBX 12 24 0 -2
BITMAP
0000
0000
0000
0000
0000
0000
0000
0000
0000
70E0
70E0
70E0
70E0
70E0
70E0
70E0
71E0
3FE0
1F60
00E0
00E0
00E0
3FC0
1F80
ENDCHAR
STARTCHAR U+007A
ENCODING 122
SWIDTH 480 0
DWIDTH 12 0
BBX 12 24 0 -2
BITMAP
0000
0000
0000
0000
0000
0000
0000
0000
0000
7FE0
7FE0
01C0
0380
0700
0E00
1C00
3800
7FE0
7FE0
0000
0000
0000
0000
0000
ENDCHAR
STARTCHAR U+007B
ENCODING 123
SWIDTH 480 0
DWIDTH 12 0
BBX 12 24 0 -2
BITMAP
0000
0000
0000
0000
0780
0E00
0E00
0E00
0E00
0E00
1C00
3C00
1C00
0E00
0E00
0E00
0E00
0E00
0780
0000
0000
0000
0000
0000
ENDCHAR
STARTCHAR U+007C
ENCODING 124
SWIDTH 480 0
DWIDTH 12 0
BBX 12 24 0 -2
BITMAP
0000
0E00
0E00
0E00
0E00
0E00
0E00
0E00
0E00
0E00
0E00
0E00
0E00
0E00
0E00
0E00
0E00
0E00
0E00
0E00
0E00
0E00
0E00
0000
ENDCHAR
STARTCHAR U+007D
ENCODING 125
SWIDTH 480 0
DWIDTH 12 0
BBX 12 24 0 -2
BITMAP
0000
0000
0000
0000
3C00
0E00
0E00
0E00
0E00
0E00
0700
0780
0700
0E00
0E00
0E00
0E00
0E00
3C00
0000
0000
0000
0000
0000
ENDCHAR
STARTCHAR U+007E
ENCODING 126
SWIDTH 480 0
DWIDTH 12 0
BBX 12 24 0 -2
BITMAP
0000
0000
0000
0000
3C60
7EE0
6FE0
E3C0
0000
0000
0000
0000
0000
0000
0000
0000
0000
0000
0000
0000
0000
0000
0000
0000
ENDCHAR
STARTCHAR U+00A0
ENCODING 160
SWIDTH 480 0
DWIDTH 12 0
BBX 12 24 0 -2
BITMAP
0000
0000
0000
0000
0000
0000
0000
0000
0000
0000
0000
0000
0000
0000
0000
0000
0000
0000
0000
0000
0000
0000
0000
0000
ENDCHAR
STARTCHAR U+00A1
ENCODING 161
SWIDTH 480 0
DWIDTH 12 0
BBX 12 24 0 -2
BITMAP
0000
0000
0000
0000
0E00
1F00
0E00
0000
0000
0E00
0E00
0E00
0E00
0E00
0E00
0E00
0E00
0E00
0E00
0000
0000
0000
0000
0000
ENDCHAR
STARTCHAR U+00A2
ENCODING 162
SWIDTH 480 0
DWIDTH 12 0
BBX 12 24 0 -2
BITMAP
0000
0000
0000
0000
0000
0700
0700
1F80
3FC0
7B60
7760
7700
7700
7760
7B60
3FC0
1F80
0700
0700
0000
0000
0000
0000
0000
ENDCHAR
STARTCHAR U+00A3
ENCODING 163
SWIDTH 480 0
DWIDTH 12 0
BBX 12 24 0 -2
BITMAP
0000
0000
0000
0000
0000
0F80
1FC0
3DC0
3800
3800
3C00
7FC0
7FC0
1C00
1C00
3F80
7FC0
79E0
70E0
0000
0000
0000
0000
0000
ENDCHAR
STARTCHAR U+00A4
ENCODING 164
SWIDTH 480 0
DWIDTH 12 0
BBX 12 24 0 -2
BITMAP
0000
0000
0000
0000
0000
0000
0000
E0E0
F6E0
7FC0
3B80
71C0
71C0
3B80
7FC0
F6E0
E0E0
0000
0000
0000
0000
0000
0000
0000
ENDCHAR
STARTCHAR U+00A5
ENCODING 165
SWIDTH 480 0
DWIDTH 12 0
BBX 12 24 0 -2
BITMAP
0000
0000
0000
0000
0000
71C0
7BC0
3B80
3F80
1F00
7FC0
7FC0
0E00
7FC0
7FC0
0E00
0E00
0E00
0E00
0000
0000
0000
0000
0000
ENDCHAR
STARTCHAR U+00A6
ENCODING 166
SWIDTH 480 0
DWIDTH 12 0
BBX 12 24 0 -2
BITMAP
0000
0E00
0E00
0E00
0E00
0E00
0E00
0E00
0E00
0E00
0E00
0000
0000
0E00
0E00
0E00
0E00
0E00
0E00
0E00
0E00
0E00
0E00
0000
ENDCHAR
STARTCHAR U+00A7
ENCODING 167
SWIDTH 480 0
DWIDTH 12 0
BBX 12 24 0 -2
BITMAP
0000
0000
0000
1F80
3FC0
79E0
70E0
7800
3F80
3FC0
70E0
70E0
3FC0
1FC0
01E0
70E0
79E0
3FC0
1F80
0000
0000
0000
0000
0000
ENDCHAR
STARTCHAR U+00A8
ENCODING 168
SWIDTH 480 0
DWIDTH 12 0
BBX 12 24 0 -2
BITMAP
0000
39C0
39C0
0000
0000
0000
0000
0000
0000
0000
0000
0000
0000
0000
0000
0000
0000
0000
0000
0000
0000
0000
0000
0000
ENDCHAR
STARTCHAR U+00A9
ENCODING 169
SWIDTH 480 0
DWIDTH 12 0
BBX 12 24 0 -2
BITMAP
0000
0000
1F80
3FC0
79E0
70E0
7760
7FE0
7DE0
78E0
78E0
78E0
7DE0
7FE0
7760
70E0
79E0
3FC0
1F80
0000
0000
0000
0000
0000
ENDCHAR
STARTCHAR U+00AA
ENCODING 170
SWIDTH 480 0
DWIDTH 12 0
BBX 12 24 0 -2
BITMAP
1F80
3FC0
39C0
0FC0
1FC0
39C0
3FC0
1FC0
0000
3FC0
3FC0
0000
0000
0000
0000
0000
0000
0000
0000
0000
0000
0000
0000
0000
ENDCHAR
STARTCHAR U+00AB
ENCODING 171
SWIDTH 480 0
DWIDTH 12 0
BBX 12 24 0 -2
BITMAP
0000
0000
0000
0000
0000
0000
0EC0
1D80
1D80
3B00
3B00
7600
7600
3B00
3B00
1D80
1D80
0EC0
0000
0000
0000
0000
0000
0000
ENDCHAR
STARTCHAR U+00AC
ENCODING 172
SWIDTH 480 0
DWIDTH 12 0
BBX 12 24 0 -2
BITMAP
0000
0000
0000
0000
0000
0000
0000
0000
0000
0000
0000
FFE0
FFE0
00E0
00E0
00E0
0000
0000
0000
0000
0000
0000
0000
0000
ENDCHAR
STARTCHAR U+00AD
ENCODING 173
SWIDTH 480 0
DWIDTH 12 0
BBX 12 24 0 -2
BITMAP
0000
0000
0000
0000
0000
0000
0000
0000
0000
0000
0000
0000
FFE0
FFE0
0000
0000
0000
0000
0000
0000
0000
0000
0000
0000
ENDCHAR
STARTCHAR U+00AE
ENCODING 174
SWIDTH 480 0
DWIDTH 12 0
BBX 12 24 0 -2
BITMAP
0000
0000
1F80
3FC0
79E0
70E0
7F60
7FE0
79E0
79E0
7FE0
7F60
7B60
7BE0
7BE0
70E0
79E0
3FC0
1F80
0000
0000
0000
0000
0000
ENDCHAR
STARTCHAR U+00AF
ENCODING 175
SWIDTH 480 0
DWIDTH 12 0
BBX 12 24 0 -2
BITMAP
FFE0
FFE0
0000
0000
0000
0000
0000
0000
0000
0000
0000
0000
0000
0000
0000
0000
0000
0000
0000
0000
0000
0000
0000
0000
ENDCHAR
STARTCHAR U+00B0
ENCODING 176
SWIDTH 480 0
DWIDTH 12 0
BBX 12 24 0 -2
BITMAP
0F00
1D80
1D80
0F00
0000
0000
0000
0000
0000
0000
0000
0000
0000
0000
0000
0000
0000
0000
0000
0000
0000
0000
0000
0000
ENDCHAR
STARTCHAR U+00B1
ENCODING 177
SWIDTH 480 0
DWIDTH 12 0
BBX 12 24 0 -2
BITMAP
0000
0000
0000
0000
0000
0000
0E00
0E00
0E00
7FC0
7FC0
0E00
0E00
0E00
0000
0000
7FC0
7FC0
0000
0000
0000
0000
0000
0000
ENDCHAR
STARTCHAR U+00B2
ENCODING 178
SWIDTH 480 0
DWIDTH 12 0
BBX 12 24 0 -2
BITMAP
1F80
3FC0
39C0
03C0
0780
0F00
1E00
3C00
3FC0
3FC0
0000
0000
0000
0000
0000
0000
0000
0000
0000
0000
0000
0000
0000
0000
ENDCHAR
STARTCHAR U+00B3
ENCODING 179
SWIDTH 480 0
DWIDTH 12 0
BBX 12 24 0 -2
BITMAP
1F80
3FC0
39C0
01C0
0FC0
0FC0
01C0
39C0
3FC0
1F80
0000
0000
0000
0000
0000
0000
0000
0000
0000
0000
0000
0000
0000
0000
ENDCHAR
STARTCHAR U+00B4
ENCODING 180
SWIDTH 480 0
DWIDTH 12 0
BBX 12 24 0 -2
BITMAP
0700
0F00
1C00
0000
0000
0000
0000
0000
0000
0000
0000
0000
0000
0000
0000
0000
0000
0000
0000
0000
0000
0000
0000
0000
ENDCHAR
STARTCHAR U+00B5
ENCODING 181
SWIDTH 480 0
DWIDTH 12 0
BBX 12 24 0 -2
BITMAP
0000
0000
0000
0000
0000
0000
0000
0000
0000
0EE0
0EE0
0EE0
0EE0
1EC0
1DC0
1DC0
1FE0
3FE0
38E0
3800
7800
7000
7000
7000
ENDCHAR
STARTCHAR U+00B6
ENCODING 182
SWIDTH 480 0
DWIDTH 12 0
BBX 12 24 0 -2
BITMAP
0000
0000
0000
0000
0000
1FE0
3FA0
7FA0
7FA0
7FA0
7FA0
3FA0
1FA0
01A0
01A0
01A0
01A0
01A0
01E0
0000
0000
0000
0000
0000
ENDCHAR
STARTCHAR U+00B7
ENCODING 183
SWIDTH 480 0
DWIDTH 12 0
BBX 12 24 0 -2
BITMAP
0000
0000
0000
0000
0000
0000
0000
0000
0000
0000
0E00
1F00
1F00
0E00
0000
0000
0000
0000
0000
0000
0000
0000
0000
0000
ENDCHAR
STARTCHAR U+00B8
ENCODING 184
SWIDTH 480 0
DWIDTH 12 0
BBX 12 24 0 -2
BITMAP
0000
0000
0000
0000
0000
0000
0000
0000
0000
0000
0000
0000
0000
0000
0000
0000
0000
0000
0E00
0E00
0F00
0380
1F80
1F00
ENDCHAR
STARTCHAR U+00B9
ENCODING 185
SWIDTH 480 0
DWIDTH 12 0
BBX 12 24 0 -2
BITMAP
0E00
1E00
3E00
0E00
0E00
0E00
0E00
0E00
3F80
3F80
0000
0000
0000
0000
0000
0000
0000
0000
0000
0000
0000
0000
0000
0000
ENDCHAR
STARTCHAR U+00BA
ENCODING 186
SWIDTH 480 0
DWIDTH 12 0
BBX 12 24 0 -2
BITMAP
1F80
3FC0
39C0
39C0
39C0
39C0
3FC0
1F80
0000
3FC0
3FC0
0000
0000
0000
0000
0000
0000
0000
0000
0000
0000
0000
0000
0000
ENDCHAR
STARTCHAR U+00BB
ENCODING 187
SWIDTH 480 0
DWIDTH 12 0
BBX 12 24 0 -2
BITMAP
0000
0000
0000
0000
0000
0000
3B00
1D80
1D80
0EC0
0EC0
0760
0760
0EC0
0EC0
1D80
1D80
3B00
0000
0000
0000
0000
0000
0000
ENDCHAR
STARTCHAR U+00BC
ENCODING 188
SWIDTH 480 0
DWIDTH 12 0
BBX 12 24 0 -2
BITMAP
0000
0000
3800
7800
3800
3800
3800
38E0
7DE0
7DC0
0780
0F00
1E00
3DC0
7BC0
F7C0
EEC0
0FE0
0FE0
01C0
01C0
0000
0000
0000
ENDCHAR
STARTCHAR U+00BD
ENCODING 189
SWIDTH 480 0
DWIDTH 12 0
BBX 12 24 0 -2
BITMAP
0000
0000
3800
7800
3800
3800
3800
38E0
7DE0
7DC0
0780
0F00
1E00
3DC0
7BE0
F760
E0E0
01C0
0380
07E0
07E0
0000
0000
0000
ENDCHAR
STARTCHAR U+00BE
ENCODING 190
SWIDTH 480 0
DWIDTH 12 0
BBX 12 24 0 -2
BITMAP
0000
0000
7C00
7E00
0E00
3C00
3C00
0EE0
7EE0
7DC0
0780
0F00
1E00
3DC0
7BC0
F7C0
EEC0
0FE0
0FE0
01C0
01C0
0000
0000
0000
ENDCHAR
STARTCHAR U+00BF
ENCODING 191
SWIDTH 480 0
DWIDTH 12 0
BBX 12 24 0 -2
BITMAP
0000
0000
0000
0000
0E00
1F00
0E00
0000
0000
0E00
0E00
0E00
1C00
3800
7000
70C0
7BC0
3F80
1F00
0000
0000
0000
0000
0000
ENDCHAR
STARTCHAR U+00C0
ENCODING 192
SWIDTH 480 0
DWIDTH 12 0
BBX 12 24 0 -2
BITMAP
0E00
0F00
0380
0000
0000
1F80
3FC0
79E0
70E0
70E0
70E0
7FE0
7FE0
70E0
70E0
70E0
70E0
70E0
70E0
0000
0000
0000
0000
0000
ENDCHAR
STARTCHAR U+00C1
ENCODING 193
SWIDTH 480 0
DWIDTH 12 0
BBX 12 24 0 -2
BITMAP
0700
0F00
1C00
0000
0000
1F80
3FC0
79E0
70E0
70E0
70E0
7FE0
7FE0
70E0
70E0
70E0
70E0
70E0
70E0
0000
0000
0000
0000
0000
ENDCHAR
STARTCHAR U+00C2
ENCODING 194
SWIDTH 480 0
DWIDTH 12 0
BBX 12 24 0 -2
BITMAP
0F00
1F80
39C0
0000
0000
1F80
3FC0
79E0
70E0
70E0
70E0
7FE0
7FE0
70E0
70E0
70E0
70E0
70E0
70E0
0000
0000
0000
0000
0000
ENDCHAR
STARTCHAR U+00C3
ENCODING 195
SWIDTH 480 0
DWIDTH 12 0
BBX 12 24 0 -2
BITMAP
3C60
76E0
67C0
0000
0000
1F80
3FC0
79E0
70E0
70E0
70E0
7FE0
7FE0
70E0
70E0
70E0
70E0
70E0
70E0
0000
0000
0000
0000
0000
ENDCHAR
STARTCHAR U+00C4
ENCODING 196
SWIDTH 480 0
DWIDTH 12 0
BBX 12 24 0 -2
BITMAP
0000
39C0
39C0
0000
0000
1F80
3FC0
79E0
70E0
70E0
70E0
7FE0
7FE0
70E0
70E0
70E0
70E0
70E0
70E0
0000
0000
0000
0000
0000
ENDCHAR
STARTCHAR U+00C5
ENCODING 197
SWIDTH 480 0
DWIDTH 12 0
BBX 12 24 0 -2
BITMAP
0F00
1D80
1D80
0F00
0000
1F80
3FC0
79E0
70E0
70E0
70E0
7FE0
7FE0
70E0
70E0
70E0
70E0
70E0
70E0
0000
0000
0000
0000
0000
ENDCHAR
STARTCHAR U+00C6
ENCODING 198
SWIDTH 480 0
DWIDTH 12 0
BBX 12 24 0 -2
BITMAP
0000
0000
0000
0000
0000
3FE0
3FE0
7700
7700
E700
E7E0
FFE0
FF00
E700
E700
E700
E700
E7E0
E7E0
0000
0000
0000
0000
0000
ENDCHAR
STARTCHAR U+00C7
ENCODING 199
SWIDTH 480 0
DWIDTH 12 0
BBX 12 24 0 -2
BITMAP
0000
0000
0000
0000
0000
1F80
3FC0
79E0
70E0
7000
7000
7000
7000
7000
7000
70E0
79E0
3FC0
1F80
0E00
0F00
0380
1F80
1F00
ENDCHAR
STARTCHAR U+00C8
ENCODING 200
SWIDTH 480 0
DWIDTH 12 0
BBX 12 24 0 -2
BITMAP
0E00
0F00
0380
0000
0000
7FE0
7FE0
7000
7000
7000
7000
7F80
7F80
7000
7000
7000
7000
7FE0
7FE0
0000
0000
0000
0000
0000
ENDCHAR
STARTCHAR U+00C9
ENCODING 201
SWIDTH 480 0
DWIDTH 12 0
BBX 12 24 0 -2
BITMAP
0700
0F00
1C00
0000
0000
7FE0
7FE0
7000
7000
7000
7000
7F80
7F80
7000
7000
7000
7000
7FE0
7FE0
0000
0000
0000
0000
0000
ENDCHAR
STARTCHAR U+00CA
ENCODING 202
SWIDTH 480 0
DWIDTH 12 0
BBX 12 24 0 -2
BITMAP
0F00
1F80
39C0
0000
0000
7FE0
7FE0
7000
7000
7000
7000
7F80
7F80
7000
7000
7000
7000
7FE0
7FE0
0000
0000
0000
0000
0000
ENDCHAR
STARTCHAR U+00CB
ENCODING 203
SWIDTH 480 0
DWIDTH 12 0
BBX 12 24 0 -2
BITMAP
0000
39C0
39C0
0000
0000
7FE0
7FE0
7000
7000
7000
7000
7F80
7F80
7000
7000
7000
7000
7FE0
7FE0
0000
0000
0000
0000
0000
ENDCHAR
STARTCHAR U+00CC
ENCODING 204
SWIDTH 480 0
DWIDTH 12 0
BBX 12 24 0 -2
BITMAP
1C00
1E00
0700
0000
0000
3F80
3F80
0E00
0E00
0E00
0E00
0E00
0E00
0E00
0E00
0E00
0E00
3F80
3F80
0000
0000
0000
0000
0000
ENDCHAR
STARTCHAR U+00CD
ENCODING 205
SWIDTH 480 0
DWIDTH 12 0
BBX 12 24 0 -2
BITMAP
0700
0F00
1C00
0000
0000
3F80
3F80
0E00
0E00
0E00
0E00
0E00
0E00
0E00
0E00
0E00
0E00
3F80
3F80
0000
0000
0000
0000
0000
ENDCHAR
STARTCHAR U+00CE
ENCODING 206
SWIDTH 480 0
DWIDTH 12 0
BBX 12 24 0 -2
BITMAP
0E00
1F00
3B80
0000
0000
3F80
3F80
0E00
0E00
0E00
0E00
0E00
0E00
0E00
0E00
0E00
0E00
3F80
3F80
0000
0000
0000
0000
0000
ENDCHAR
STARTCHAR U+00CF
ENCODING 207
SWIDTH 480 0
DWIDTH 12 0
BBX 12 24 0 -2
BITMAP
0000
3B80
3B80
0000
0000
3F80
3F80
0E00
0E00
0E00
0E00
0E00
0E00
0E00
0E00
0E00
0E00
3F80
3F80
0000
0000
0000
0000
0000
ENDCHAR
STARTCHAR U+00D0
ENCODING 208
SWIDTH 480 0
DWIDTH 12 0
BBX 12 24 0 -2
BITMAP
0000
0000
0000
0000
0000
7F80
7FC0
71E0
70E0
70E0
70E0
FEE0
FEE0
70E0
70E0
70E0
71E0
7FC0
7F80
0000
0000
0000
0000
0000
ENDCHAR
STARTCHAR U+00D1
ENCODING 209
SWIDTH 480 0
DWIDTH 12 0
BBX 12 24 0 -2
BITMAP
3C60
76E0
67C0
0000
0000
70E0
78E0
78E0
7CE0
7CE0
76E0
76E0
7760
7760
73E0
73E0
71E0
71E0
70E0
0000
0000
0000
0000
0000
ENDCHAR
STARTCHAR U+00D2
ENCODING 210
SWIDTH 480 0
DWIDTH 12 0
BBX 12 24 0 -2
BITMAP
0E00
0F00
0380
0000
0000
1F80
3FC0
79E0
70E0
70E0
70E0
70E0
70E0
70E0
70E0
70E0
79E0
3FC0
1F80
0000
0000
0000
0000
0000
ENDCHAR
STARTCHAR U+00D3
ENCODING 211
SWIDTH 480 0
DWIDTH 12 0
BBX 12 24 0 -2
BITMAP
0700
0F00
1C00
0000
0000
1F80
3FC0
79E0
70E0
70E0
70E0
70E0
70E0
70E0
70E0
70E0
79E0
3FC0
1F80
0000
0000
0000
0000
0000
ENDCHAR
STARTCHAR U+00D4
ENCODING 212
SWIDTH 480 0
DWIDTH 12 0
BBX 12 24 0 -2
BITMAP
0F00
1F80
39C0
0000
0000
1F80
3FC0
79E0
70E0
70E0
70E0
70E0
70E0
70E0
70E0
70E0
79E0
3FC0
1F80
0000
0000
0000
0000
0000
ENDCHAR
STARTCHAR U+00D5
ENCODING 213
SWIDTH 480 0
DWIDTH 12 0
BBX 12 24 0 -2
BITMAP
3C60
76E0
67C0
0000
0000
1F80
3FC0
79E0
70E0
70E0
70E0
70E0
70E0
70E0
70E0
70E0
79E0
3FC0
1F80
0000
0000
0000
0000
0000
ENDCHAR
STARTCHAR U+00D6
ENCODING 214
SWIDTH 480 0
DWIDTH 12 0
BBX 12 24 0 -2
BITMAP
0000
39C0
39C0
0000
0000
1F80
3FC0
79E0
70E0
70E0
70E0
70E0
70E0
70E0
70E0
70E0
79E0
3FC0
1F80
0000
0000
0000
0000
0000
ENDCHAR
STARTCHAR U+00D7
ENCODING 215
SWIDTH 480 0
DWIDTH 12 0
BBX 12 24 0 -2
BITMAP
0000
0000
0000
0000
0000
0000
0000
0000
70E0
79E0
3DC0
1F80
0F00
1F80
3DC0
79E0
70E0
0000
0000
0000
0000
0000
0000
0000
ENDCHAR
STARTCHAR U+00D8
ENCODING 216
SWIDTH 480 0
DWIDTH 12 0
BBX 12 24 0 -2
BITMAP
0000
0000
0000
0000
0000
1FA0
3FE0
79E0
71E0
73E0
7360
7760
76E0
74E0
7CE0
78E0
79E0
7FC0
6F80
0000
0000
0000
0000
0000
ENDCHAR
STARTCHAR U+00D9
ENCODING 217
SWIDTH 480 0
DWIDTH 12 0
BBX 12 24 0 -2
BITMAP
0E00
0F00
0380
0000
0000
70E0
70E0
70E0
70E0
70E0
70E0
70E0
70E0
70E0
70E0
70E0
79E0
3FC0
1F80
0000
0000
0000
0000
0000
ENDCHAR
STARTCHAR U+00DA
ENCODING 218
SWIDTH 480 0
DWIDTH 12 0
BBX 12 24 0 -2
BITMAP
0700
0F00
1C00
0000
0000
70E0
70E0
70E0
70E0
70E0
70E0
70E0
70E0
70E0
70E0
70E0
79E0
3FC0
1F80
0000
0000
0000
0000
0000
ENDCHAR
STARTCHAR U+00DB
ENCODING 219
SWIDTH 480 0
DWIDTH 12 0
BBX 12 24 0 -2
BITMAP
0F00
1F80
39C0
0000
0000
70E0
70E0
70E0
70E0
70E0
70E0
70E0
70E0
70E0
70E0
70E0
79E0
3FC0
1F80
0000
0000
0000
0000
0000
ENDCHAR
STARTCHAR U+00DC
ENCODING 220
SWIDTH 480 0
DWIDTH 12 0
BBX 12 24 0 -2
BITMAP
0000
39C0
39C0
0000
0000
70E0
70E0
70E0
70E0
70E0
70E0
70E0
70E0
70E0
70E0
70E0
79E0
3FC0
1F80
0000
0000
0000
0000
0000
ENDCHAR
STARTCHAR U+00DD
ENCODING 221
SWIDTH 480 0
DWIDTH 12 0
BBX 12 24 0 -2
BITMAP
0700
0F00
1C00
0000
0000
E0E0
E0E0
71C0
71C0
3B80
3F80
1F00
0E00
0E00
0E00
0E00
0E00
0E00
0E00
0000
0000
0000
0000
0000
ENDCHAR
STARTCHAR U+00DE
ENCODING 222
SWIDTH 480 0
DWIDTH 12 0
BBX 12 24 0 -2
BITMAP
0000
0000
0000
0000
0000
7380
77C0
76E0
7CE0
78E0
70E0
70E0
78E0
7CE0
76E0
77C0
7380
7000
7000
E000
C000
0000
0000
0000
ENDCHAR
STARTCHAR U+00DF
ENCODING 223
SWIDTH 480 0
DWIDTH 12 0
BBX 12 24 0 -2
BITMAP
0000
0000
0000
0000
0000
1F80
3FC0
79E0
70E0
70E0
71E0
77C0
77E0
71E0
70E0
70E0
71E0
77C0
7780
0000
0000
0000
0000
0000
ENDCHAR
STARTCHAR U+00E0
ENCODING 224
SWIDTH 480 0
DWIDTH 12 0
BBX 12 24 0 -2
BITMAP
0000
0000
0000
0E00
0F00
0380
0000
0000
0F80
1FC0
38E0
00E0
0FE0
3FE0
70E0
71E0
73E0
7F60
3EE0
0000
0000
0000
0000
0000
ENDCHAR
STARTCHAR U+00E1
ENCODING 225
SWIDTH 480 0
DWIDTH 12 0
BBX 12 24 0 -2
BITMAP
0000
0000
0000
0380
0780
0E00
0000
0000
0F80
1FC0
38E0
00E0
0FE0
3FE0
70E0
71E0
73E0
7F60
3EE0
0000
0000
0000
0000
0000
ENDCHAR
STARTCHAR U+00E2
ENCODING 226
SWIDTH 480 0
DWIDTH 12 0
BBX 12 24 0 -2
BITMAP
0000
0000
0000
0F00
1F80
39C0
0000
0000
0F80
1FC0
38E0
00E0
0FE0
3FE0
70E0
71E0
73E0
7F60
3EE0
0000
0000
0000
0000
0000
ENDCHAR
STARTCHAR U+00E3
ENCODING 227
SWIDTH 480 0
DWIDTH 12 0
BBX 12 24 0 -2
BITMAP
0000
0000
0000
3C60
76E0
67C0
0000
0000
0F80
1FC0
38E0
00E0
0FE0
3FE0
70E0
71E0
73E0
7F60
3EE0
0000
0000
0000
0000
0000
ENDCHAR
STARTCHAR U+00E4
ENCODING 228
SWIDTH 480 0
DWIDTH 12 0
BBX 12 24 0 -2
BITMAP
0000
0000
0000
0000
1DC0
1DC0
0000
0000
0F80
1FC0
38E0
00E0
0FE0
3FE0
70E0
71E0
73E0
7F60
3EE0
0000
0000
0000
0000
0000
ENDCHAR
STARTCHAR U+00E5
ENCODING 229
SWIDTH 480 0
DWIDTH 12 0
BBX 12 24 0 -2
BITMAP
0000
0000
0000
0F00
1D80
1D80
0F00
0000
0F80
1FC0
38E0
00E0
0FE0
3FE0
70E0
71E0
73E0
7F60
3EE0
0000
0000
0000
0000
0000
ENDCHAR
STARTCHAR U+00E6
ENCODING 230
SWIDTH 480 0
DWIDTH 12 0
BBX 12 24 0 -2
BITMAP
0000
0000
0000
0000
0000
0000
0000
0000
7BC0
FFE0
CEE0
0EE0
3FE0
7FC0
EE00
EE00
EEE0
FFE0
7FC0
0000
0000
0000
0000
0000
ENDCHAR
STARTCHAR U+00E7
ENCODING 231
SWIDTH 480 0
DWIDTH 12 0
BBX 12 24 0 -2
BITMAP
0000
0000
0000
0000
0000
0000
0000
0000
0000
0FC0
3FC0
78E0
70E0
7000
7000
7000
78E0
3FE0
1FC0
0E00
0F00
0380
1F80
1F00
ENDCHAR
STARTCHAR U+00E8
ENCODING 232
SWIDTH 480 0
DWIDTH 12 0
BBX 12 24 0 -2
BITMAP
0000
0000
0000
0000
0E00
0F00
0380
0000
0000
1F80
3FC0
78E0
70E0
7FE0
7FE0
7000
70E0
3FE0
1FC0
0000
0000
0000
0000
0000
ENDCHAR
STARTCHAR U+00E9
ENCODING 233
SWIDTH 480 0
DWIDTH 12 0
BBX 12 24 0 -2
BITMAP
0000
0000
0000
0000
0700
0F00
1C00
0000
0000
1F80
3FC0
78E0
70E0
7FE0
7FE0
7000
70E0
3FE0
1FC0
0000
0000
0000
0000
0000
ENDCHAR
STARTCHAR U+00EA
ENCODING 234
SWIDTH 480 0
DWIDTH 12 0
BBX 12 24 0 -2
BITMAP
0000
0000
0000
0000
0F00
1F80
39C0
0000
0000
1F80
3FC0
78E0
70E0
7FE0
7FE0
7000
70E0
3FE0
1FC0
0000
0000
0000
0000
0000
ENDCHAR
STARTCHAR U+00EB
ENCODING 235
SWIDTH 480 0
DWIDTH 12 0
BBX 12 24 0 -2
BITMAP
0000
0000
0000
0000
0000
39C0
39C0
0000
0000
1F80
3FC0
78E0
70E0
7FE0
7FE0
7000
70E0
3FE0
1FC0
0000
0000
0000
0000
0000
ENDCHAR
STARTCHAR U+00EC
ENCODING 236
SWIDTH 480 0
DWIDTH 12 0
BBX 12 24 0 -2
BITMAP
0000
0000
0000
0000
1C00
1E00
0700
0000
0000
0E00
0E00
0E00
0E00
0E00
0E00
0E00
0E00
0E00
0E00
0000
0000
0000
0000
0000
ENDCHAR
STARTCHAR U+00ED
ENCODING 237
SWIDTH 480 0
DWIDTH 12 0
BBX 12 24 0 -2
BITMAP
0000
0000
0000
0000
0700
0F00
1C00
0000
0000
0E00
0E00
0E00
0E00
0E00
0E00
0E00
0E00
0E00
0E00
0000
0000
0000
0000
0000
ENDCHAR
STARTCHAR U+00EE
ENCODING 238
SWIDTH 480 0
DWIDTH 12 0
BBX 12 24 0 -2
BITMAP
0000
0000
0000
0000
0E00
1F00
3B80
0000
0000
0E00
0E00
0E00
0E00
0E00
0E00
0E00
0E00
0E00
0E00
0000
0000
0000
0000
0000
ENDCHAR
STARTCHAR U+00EF
ENCODING 239
SWIDTH 480 0
DWIDTH 12 0
BBX 12 24 0 -2
BITMAP
0000
0000
0000
0000
0000
3B80
3B80
0000
0000
0E00
0E00
0E00
0E00
0E00
0E00
0E00
0E00
0E00
0E00
0000
0000
0000
0000
0000
ENDCHAR
STARTCHAR U+00F0
ENCODING 240
SWIDTH 480 0
DWIDTH 12 0
BBX 12 24 0 -2
BITMAP
0000
0000
0000
0000
0000
3DE0
3FE0
0780
1FC0
7DE0
70E0
1FE0
3FE0
78E0
70E0
70E0
79E0
3FC0
1F80
0000
0000
0000
0000
0000
ENDCHAR
STARTCHAR U+00F1
ENCODING 241
SWIDTH 480 0
DWIDTH 12 0
BBX 12 24 0 -2
BITMAP
0000
0000
0000
0000
3C60
76E0
67C0
0000
0000
7780
77C0
7CE0
78E0
70E0
70E0
70E0
70E0
70E0
70E0
0000
0000
0000
0000
0000
ENDCHAR
STARTCHAR U+00F2
ENCODING 242
SWIDTH 480 0
DWIDTH 12 0
BBX 12 24 0 -2
BITMAP
0000
0000
0000
0000
0E00
0F00
0380
0000
0000
1F80
3FC0
79E0
70E0
70E0
70E0
70E0
79E0
3FC0
1F80
0000
0000
0000
0000
0000
ENDCHAR
STARTCHAR U+00F3
ENCODING 243
SWIDTH 480 0
DWIDTH 12 0
BBX 12 24 0 -2
BITMAP
0000
0000
0000
0000
0700
0F00
1C00
0000
0000
1F80
3FC0
79E0
70E0
70E0
70E0
70E0
79E0
3FC0
1F80
0000
0000
0000
0000
0000
ENDCHAR
STARTCHAR U+00F4
ENCODING 244
SWIDTH 480 0
DWIDTH 12 0
BBX 12 24 0 -2
BITMAP
0000
0000
0000
0000
0F00
1F80
39C0
0000
0000
1F80
3FC0
79E0
70E0
70E0
70E0
70E0
79E0
3FC0
1F80
0000
0000
0000
0000
0000
ENDCHAR
STARTCHAR U+00F5
ENCODING 245
SWIDTH 480 0
DWIDTH 12 0
BBX 12 24 0 -2
BITMAP
0000
0000
0000
0000
3C60
76E0
67C0
0000
0000
1F80
3FC0
79E0
70E0
70E0
70E0
70E0
79E0
3FC0
1F80
0000
0000
0000
0000
0000
ENDCHAR
STARTCHAR U+00F6
ENCODING 246
SWIDTH 480 0
DWIDTH 12 0
BBX 12 24 0 -2
BITMAP
0000
0000
0000
0000
0000
39C0
39C0
0000
0000
1F80
3FC0
79E0
70E0
70E0
70E0
70E0
79E0
3FC0
1F80
0000
0000
0000
0000
0000
ENDCHAR
STARTCHAR U+00F7
ENCODING 247
SWIDTH 480 0
DWIDTH 12 0
BBX 12 24 0 -2
BITMAP
0000
0000
0000
0000
0000
0000
0000
0000
0E00
1F00
0E00
0000
FFE0
FFE0
0000
0E00
1F00
0E00
0000
0000
0000
0000
0000
0000
ENDCHAR
STARTCHAR U+00F8
ENCODING 248
SWIDTH 480 0
DWIDTH 12 0
BBX 12 24 0 -2
BITMAP
0000
0000
0000
0000
0000
0000
0000
0000
0000
1F60
3FE0
7BC0
77E0
7760
7760
7EE0
3DE0
7FC0
7780
0000
0000
0000
0000
0000
ENDCHAR
STARTCHAR U+00F9
ENCODING 249
SWIDTH 480 0
DWIDTH 12 0
BBX 12 24 0 -2
BITMAP
0000
0000
0000
0000
0E00
0F00
0380
0000
0000
70E0
70E0
70E0
70E0
70E0
70E0
71E0
7BE0
3F60
1EE0
0000
0000
0000
0000
0000
ENDCHAR
STARTCHAR U+00FA
ENCODING 250
SWIDTH 480 0
DWIDTH 12 0
BBX 12 24 0 -2
BITMAP
0000
0000
0000
0000
0700
0F00
1C00
0000
0000
70E0
70E0
70E0
70E0
70E0
70E0
71E0
7BE0
3F60
1EE0
0000
0000
0000
0000
0000
ENDCHAR
STARTCHAR U+00FB
ENCODING 251
SWIDTH 480 0
DWIDTH 12 0
BBX 12 24 0 -2
BITMAP
0000
0000
0000
0000
0F00
1F80
39C0
0000
0000
70E0
70E0
70E0
70E0
70E0
70E0
71E0
7BE0
3F60
1EE0
0000
0000
0000
0000
0000
ENDCHAR
STARTCHAR U+00FC
ENCODING 252
SWIDTH 480 0
DWIDTH 12 0
BBX 12 24 0 -2
BITMAP
0000
0000
0000
0000
0000
39C0
39C0
0000
0000
70E0
70E0
70E0
70E0
70E0
70E0
71E0
7BE0
3F60
1EE0
0000
0000
0000
0000
0000
ENDCHAR
STARTCHAR U+00FD
ENCODING 253
SWIDTH 480 0
DWIDTH 12 0
BBX 12 24 0 -2
BITMAP
0000
0000
0000
0000
0380
0780
0E00
0000
0000
70E0
70E0
70E0
70E0
70E0
70E0
70E0
79E0
3FE0
1F60
00E0
00E0
01E0
3FC0
1F80
ENDCHAR
STARTCHAR U+00FE
ENCODING 254
SWIDTH 480 0
DWIDTH 12 0
BBX 12 24 0 -2
BITMAP
0000
0000
0000
0000
0000
7000
7000
7000
7000
7780
77C0
7DE0
78E0
70E0
70E0
71E0
73C0
7F80
7F00
7000
7000
7000
7000
7000
ENDCHAR
STARTCHAR U+00FF
ENCODING 255
SWIDTH 480 0
DWIDTH 12 0
BBX 12 24 0 -2
BITMAP
0000
0000
0000
0000
0000
39C0
39C0
0000
0000
70E0
70E0
70E0
70E0
70E0
70E0
70E0
79E0
3FE0
1F60
00E0
00E0
01E0
3FC0
1F80
ENDCHAR
STARTCHAR U+0100
ENCODING 256
SWIDTH 480 0
DWIDTH 12 0
BBX 12 24 0 -2
BITMAP
0000
3FC0
3FC0
0000
0000
1F80
3FC0
79E0
70E0
70E0
70E0
7FE0
7FE0
70E0
70E0
70E0
70E0
70E0
70E0
0000
0000
0000
0000
0000
ENDCHAR
STARTCHAR U+0101
ENCODING 257
SWIDTH 480 0
DWIDTH 12 0
BBX 12 24 0 -2
BITMAP
0000
0000
0000
0000
3FC0
3FC0
0000
0000
0F80
1FC0
38E0
00E0
0FE0
3FE0
70E0
71E0
73E0
7F60
3EE0
0000
0000
0000
0000
0000
ENDCHAR
STARTCHAR U+0102
ENCODING 258
SWIDTH 480 0
DWIDTH 12 0
BBX 12 24 0 -2
BITMAP
39C0
39C0
1F80
0000
0000
1F80
3FC0
79E0
70E0
70E0
70E0
7FE0
7FE0
70E0
70E0
70E0
70E0
70E0
70E0
0000
0000
0000
0000
0000
ENDCHAR
STARTCHAR U+0103
ENCODING 259
SWIDTH 480 0
DWIDTH 12 0
BBX 12 24 0 -2
BITMAP
0000
0000
0000
1DC0
1DC0
0F80
0000
0000
0F80
1FC0
38E0
00E0
0FE0
3FE0
70E0
71E0
73E0
7F60
3EE0
0000
0000
0000
0000
0000
ENDCHAR
STARTCHAR U+0104
ENCODING 260
SWIDTH 480 0
DWIDTH 12 0
BBX 12 24 0 -2
BITMAP
0000
0000
0000
0000
0000
1F80
3FC0
79E0
70E0
70E0
70E0
7FE0
7FE0
70E0
70E0
70E0
70E0
70E0
70E0
03E0
0780
0E00
0FC0
07C0
ENDCHAR
STARTCHAR U+0105
ENCODING 261
SWIDTH 480 0
DWIDTH 12 0
BBX 12 24 0 -2
BITMAP
0000
0000
0000
0000
0000
0000
0000
0000
0F80
1FC0
38E0
00E0
0FE0
3FE0
70E0
71E0
73E0
7F60
3EE0
03E0
0780
0E00
0FC0
07C0
ENDCHAR
STARTCHAR U+0106
ENCODING 262
SWIDTH 480 0
DWIDTH 12 0
BBX 12 24 0 -2
BITMAP
0700
0F00
1C00
0000
0000
1F80
3FC0
79E0
70E0
7000
7000
7000
7000
7000
7000
7000
70E0
39E0
1FC0
0F80
0000
0000
0000
0000
ENDCHAR
STARTCHAR U+0107
ENCODING 263
SWIDTH 480 0
DWIDTH 12 0
BBX 12 24 0 -2
BITMAP
0000
0000
0000
0000
0700
0F00
1C00
0000
0000
0FC0
3FC0
78E0
70E0
7000
7000
7000
78E0
3FE0
1FC0
0000
0000
0000
0000
0000
ENDCHAR
STARTCHAR U+0108
ENCODING 264
SWIDTH 480 0
DWIDTH 12 0
BBX 12 24 0 -2
BITMAP
0F00
1F80
39C0
0000
0000
1F80
3FC0
79E0
70E0
7000
7000
7000
7000
7000
7000
70E0
79E0
3FC0
1F80
0000
0000
0000
0000
0000
ENDCHAR
STARTCHAR U+0109
ENCODING 265
SWIDTH 480 0
DWIDTH 12 0
BBX 12 24 0 -2
BITMAP
0000
0000
0000
0000
0F00
1F80
39C0
0000
0000
0FC0
3FC0
78E0
70E0
7000
7000
7000
78E0
3FE0
1FC0
0000
0000
0000
0000
0000
ENDCHAR
STARTCHAR U+010A
ENCODING 266
SWIDTH 480 0
DWIDTH 12 0
BBX 12 24 0 -2
BITMAP
0000
0E00
0E00
0000
0000
1F80
3FC0
79E0
70E0
7000
7000
7000
7000
7000
7000
70E0
79E0
3FC0
1F80
0000
0000
0000
0000
0000
ENDCHAR
STARTCHAR U+010B
ENCODING 267
SWIDTH 480 0
DWIDTH 12 0
BBX 12 24 0 -2
BITMAP
0000
0000
0000
0000
0000
0700
0700
0000
0000
0FC0
3FC0
78E0
70E0
7000
7000
7000
78E0
3FE0
1FC0
0000
0000
0000
0000
0000
ENDCHAR
STARTCHAR U+010C
ENCODING 268
SWIDTH 480 0
DWIDTH 12 0
BBX 12 24 0 -2
BITMAP
3B80
1F00
0E00
0000
0000
1F80
3FC0
79E0
70E0
7000
7000
7000
7000
7000
7000
7000
70E0
79E0
3FC0
1F80
0000
0000
0000
0000
ENDCHAR
STARTCHAR U+010D
ENCODING 269
SWIDTH 480 0
DWIDTH 12 0
BBX 12 24 0 -2
BITMAP
0000
0000
0000
0000
1DC0
0F80
0700
0000
0000
0FC0
3FC0
78E0
70E0
7000
7000
7000
78E0
3FE0
1FC0
0000
0000
0000
0000
0000
ENDCHAR
STARTCHAR U+010E
ENCODING 270
SWIDTH 480 0
DWIDTH 12 0
BBX 12 24 0 -2
BITMAP
3B80
1F00
0E00
0000
0000
7F80
7FC0
71C0
70E0
70E0
70E0
70E0
70E0
70E0
70E0
70E0
71E0
7FC0
7F80
0000
0000
0000
0000
0000
ENDCHAR
STARTCHAR U+010F
ENCODING 271
SWIDTH 480 0
DWIDTH 12 0
BBX 12 24 0 -2
BITMAP
0000
0000
01E0
01E0
0060
0760
07C0
0700
0700
3B00
7F00
F700
E700
E700
E700
E700
F700
7F00
3B00
0000
0000
0000
0000
0000
ENDCHAR
STARTCHAR U+0110
ENCODING 272
SWIDTH 480 0
DWIDTH 12 0
BBX 12 24 0 -2
BITMAP
0000
0000
0000
0000
0000
7F80
7FC0
71E0
70E0
70E0
70E0
FEE0
FEE0
70E0
70E0
70E0
71E0
7FC0
7F80
0000
0000
0000
0000
0000
ENDCHAR
STARTCHAR U+0111
ENCODING 273
SWIDTH 480 0
DWIDTH 12 0
BBX 12 24 0 -2
BITMAP
0000
0000
0000
01C0
01C0
0FE0
0FE0
01C0
01C0
3EC0
7FC0
F3C0
E1C0
E1C0
E1C0
E3C0
E7C0
7EC0
3DC0
0000
0000
0000
0000
0000
ENDCHAR
STARTCHAR U+0112
ENCODING 274
SWIDTH 480 0
DWIDTH 12 0
BBX 12 24 0 -2
BITMAP
0000
3FC0
3FC0
0000
0000
7FE0
7FE0
7000
7000
7000
7000
7F80
7F80
7000
7000
7000
7000
7FE0
7FE0
0000
0000
0000
0000
0000
ENDCHAR
STARTCHAR U+0113
ENCODING 275
SWIDTH 480 0
DWIDTH 12 0
BBX 12 24 0 -2
BITMAP
0000
0000
0000
0000
0000
3FC0
3FC0
0000
0000
1F80
3FC0
78E0
70E0
7FE0
7FE0
7000
70E0
3FE0
1FC0
0000
0000
0000
0000
0000
ENDCHAR
STARTCHAR U+0114
ENCODING 276
SWIDTH 480 0
DWIDTH 12 0
BBX 12 24 0 -2
BITMAP
39C0
39C0
1F80
0000
0000
7FE0
7FE0
7000
7000
7000
7000
7F80
7F80
7000
7000
7000
7000
7FE0
7FE0
0000
0000
0000
0000
0000
ENDCHAR
STARTCHAR U+0115
ENCODING 277
SWIDTH 480 0
DWIDTH 12 0
BBX 12 24 0 -2
BITMAP
0000
0000
0000
1DC0
1DC0
0F80
0000
0000
0000
1F80
3FC0
78E0
70E0
7FE0
7FE0
7000
70E0
3FE0
1FC0
0000
0000
0000
0000
0000
ENDCHAR
STARTCHAR U+0116
ENCODING 278
SWIDTH 480 0
DWIDTH 12 0
BBX 12 24 0 -2
BITMAP
0000
0E00
0E00
0000
0000
7FE0
7FE0
7000
7000
7000
7000
7F80
7F80
7000
7000
7000
7000
7FE0
7FE0
0000
0000
0000
0000
0000
ENDCHAR
STARTCHAR U+0117
ENCODING 279
SWIDTH 480 0
DWIDTH 12 0
BBX 12 24 0 -2
BITMAP
0000
0000
0000
0000
0000
0E00
0E00
0000
0000
1F80
3FC0
78E0
70E0
7FE0
7FE0
7000
70E0
3FE0
1FC0
0000
0000
0000
0000
0000
ENDCHAR
STARTCHAR U+0118
ENCODING 280
SWIDTH 480 0
DWIDTH 12 0
BBX 12 24 0 -2
BITMAP
0000
0000
0000
0000
0000
7FE0
7FE0
7000
7000
7000
7000
7F80
7F80
7000
7000
7000
7000
7FE0
7FE0
01C0
03C0
0700
07C0
03E0
ENDCHAR
STARTCHAR U+0119
ENCODING 281
SWIDTH 480 0
DWIDTH 12 0
BBX 12 24 0 -2
BITMAP
0000
0000
0000
0000
0000
0000
0000
0000
0000
1F80
3FC0
78E0
70E0
7FE0
7FE0
7000
70E0
3FE0
1FC0
0700
0F00
1C00
1F00
0F80
ENDCHAR
STARTCHAR U+011A
ENCODING 282
SWIDTH 480 0
DWIDTH 12 0
BBX 12 24 0 -2
BITMAP
3B80
1F00
0E00
0000
0000
7FE0
7FE0
7000
7000
7000
7000
7F80
7F80
7000
7000
7000
7000
7FE0
7FE0
0000
0000
0000
0000
0000
ENDCHAR
STARTCHAR U+011B
ENCODING 283
SWIDTH 480 0
DWIDTH 12 0
BBX 12 24 0 -2
BITMAP
0000
0000
0000
0000
1DC0
0F80
0700
0000
0000
1F80
3FC0
78E0
70E0
7FE0
7FE0
7000
70E0
3FE0
1FC0
0000
0000
0000
0000
0000
ENDCHAR
STARTCHAR U+011C
ENCODING 284
SWIDTH 480 0
DWIDTH 12 0
BBX 12 24 0 -2
BITMAP
0F00
1F80
39C0
0000
0000
1F80
3FC0
79E0
70E0
7000
7000
7000
77E0
77E0
70E0
70E0
79E0
3FC0
1F80
0000
0000
0000
0000
0000
ENDCHAR
STARTCHAR U+011D
ENCODING 285
SWIDTH 480 0
DWIDTH 12 0
BBX 12 24 0 -2
BITMAP
0000
0000
0000
0000
0F00
1F80
39C0
0000
0000
1EE0
3F60
7BE0
71E0
70E0
70E0
70E0
79E0
3FE0
1F60
00E0
00E0
00E0
1FC0
0F80
ENDCHAR
STARTCHAR U+011E
ENCODING 286
SWIDTH 480 0
DWIDTH 12 0
BBX 12 24 0 -2
BITMAP
39C0
39C0
1F80
0000
0000
1F80
3FC0
79E0
70E0
7000
7000
7000
73E0
73E0
70E0
70E0
79E0
3FC0
1F80
0000
0000
0000
0000
0000
ENDCHAR
STARTCHAR U+011F
ENCODING 287
SWIDTH 480 0
DWIDTH 12 0
BBX 12 24 0 -2
BITMAP
0000
0000
0000
0000
3B80
3B80
1F00
0000
0000
1EE0
3F60
7BE0
71E0
70E0
70E0
70E0
79E0
3FE0
1F60
00E0
00E0
00E0
1FC0
0F80
ENDCHAR
STARTCHAR U+0120
ENCODING 288
SWIDTH 480 0
DWIDTH 12 0
BBX 12 24 0 -2
BITMAP
0000
0E00
0E00
0000
0000
1F80
3FC0
79E0
70E0
7000
7000
7000
73E0
73E0
70E0
70E0
79E0
3FC0
1F80
0000
0000
0000
0000
0000
ENDCHAR
STARTCHAR U+0121
ENCODING 289
SWIDTH 480 0
DWIDTH 12 0
BBX 12 24 0 -2
BITMAP
0000
0000
0000
0000
0000
0E00
0E00
0000
0000
1EE0
3F60
7BE0
71E0
70E0
70E0
70E0
79E0
3FE0
1F60
00E0
00E0
00E0
1FC0
0F80
ENDCHAR
STARTCHAR U+0122
ENCODING 290
SWIDTH 480 0
DWIDTH 12 0
BBX 12 24 0 -2
BITMAP
0000
0000
0000
0000
0000
1F80
3FC0
79E0
70E0
7000
7000
7000
73E0
73E0
70E0
70E0
79E0
3FC0
1F80
0E00
0F00
0380
1F80
1F00
ENDCHAR
STARTCHAR U+0123
ENCODING 291
SWIDTH 480 0
DWIDTH 12 0
BBX 12 24 0 -2
BITMAP
0000
0000
0F80
1F80
1C00
0F00
0700
0000
0000
1EE0
3F60
7BE0
71E0
70E0
70E0
70E0
79E0
3FE0
1F60
00E0
00E0
00E0
1FC0
0F80
ENDCHAR
STARTCHAR U+0124
ENCODING 292
SWIDTH 480 0
DWIDTH 12 0
BBX 12 24 0 -2
BITMAP
0F00
1F80
39C0
0000
0000
70E0
70E0
70E0
70E0
70E0
70E0
7FE0
7FE0
70E0
70E0
70E0
70E0
70E0
70E0
0000
0000
0000
0000
0000
ENDCHAR
STARTCHAR U+0125
ENCODING 293
SWIDTH 480 0
DWIDTH 12 0
BBX 12 24 0 -2
BITMAP
1E00
3F00
7380
0000
0000
7000
7000
7000
7000
7780
77C0
7DE0
78E0
70E0
70E0
70E0
70E0
70E0
70E0
0000
0000
0000
0000
0000
ENDCHAR
STARTCHAR U+0126
ENCODING 294
SWIDTH 480 0
DWIDTH 12 0
BBX 12 24 0 -2
BITMAP
0000
0000
0000
0000
0000
71C0
71C0
FFE0
FFE0
71C0
71C0
7FC0
7FC0
71C0
71C0
71C0
71C0
71C0
71C0
0000
0000
0000
0000
0000
ENDCHAR
STARTCHAR U+0127
ENCODING 295
SWIDTH 480 0
DWIDTH 12 0
BBX 12 24 0 -2
BITMAP
0000
0000
0000
0000
7000
7000
FF00
FF00
7000
7780
77C0
7DE0
78E0
70E0
70E0
70E0
70E0
70E0
70E0
0000
0000
0000
0000
0000
ENDCHAR
STARTCHAR U+0128
ENCODING 296
SWIDTH 480 0
DWIDTH 12 0
BBX 12 24 0 -2
BITMAP
3CC0
76C0
6780
0000
0000
3F80
3F80
0E00
0E00
0E00
0E00
0E00
0E00
0E00
0E00
0E00
0E00
3F80
3F80
0000
0000
0000
0000
0000
ENDCHAR
STARTCHAR U+0129
ENCODING 297
SWIDTH 480 0
DWIDTH 12 0
BBX 12 24 0 -2
BITMAP
0000
0000
0000
0000
3CC0
76C0
6780
0000
0000
0E00
0E00
0E00
0E00
0E00
0E00
0E00
0E00
0E00
0E00
0000
0000
0000
0000
0000
ENDCHAR
STARTCHAR U+012A
ENCODING 298
SWIDTH 480 0
DWIDTH 12 0
BBX 12 24 0 -2
BITMAP
0000
7FC0
7FC0
0000
0000
3F80
3F80
0E00
0E00
0E00
0E00
0E00
0E00
0E00
0E00
0E00
0E00
3F80
3F80
0000
0000
0000
0000
0000
ENDCHAR
STARTCHAR U+012B
ENCODING 299
SWIDTH 480 0
DWIDTH 12 0
BBX 12 24 0 -2
BITMAP
0000
0000
0000
0000
0000
3F80
3F80
0000
0000
0E00
0E00
0E00
0E00
0E00
0E00
0E00
0E00
0E00
0E00
0000
0000
0000
0000
0000
ENDCHAR
STARTCHAR U+012C
ENCODING 300
SWIDTH 480 0
DWIDTH 12 0
BBX 12 24 0 -2
BITMAP
39C0
39C0
1F80
0000
0000
3F80
3F80
0E00
0E00
0E00
0E00
0E00
0E00
0E00
0E00
0E00
0E00
3F80
3F80
0000
0000
0000
0000
0000
ENDCHAR
STARTCHAR U+012D
ENCODING 301
SWIDTH 480 0
DWIDTH 12 0
BBX 12 24 0 -2
BITMAP
0000
0000
0000
0000
3B80
3B80
1F00
0000
0000
0E00
0E00
0E00
0E00
0E00
0E00
0E00
0E00
0E00
0E00
0000
0000
0000
0000
0000
ENDCHAR
STARTCHAR U+012E
ENCODING 302
SWIDTH 480 0
DWIDTH 12 0
BBX 12 24 0 -2
BITMAP
0000
0000
0000
0000
0000
3F80
3F80
0E00
0E00
0E00
0E00
0E00
0E00
0E00
0E00
0E00
0E00
3F80
3F80
0E00
1E00
3800
3E00
1F00
ENDCHAR
STARTCHAR U+012F
ENCODING 303
SWIDTH 480 0
DWIDTH 12 0
BBX 12 24 0 -2
BITMAP
0000
0000
0000
0000
0000
0E00
0E00
0000
0000
0E00
0E00
0E00
0E00
0E00
0E00
0E00
0E00
0E00
0E00
0E00
1E00
3800
3E00
1F00
ENDCHAR
STARTCHAR U+0130
ENCODING 304
SWIDTH 480 0
DWIDTH 12 0
BBX 12 24 0 -2
BITMAP
0000
0E00
0E00
0000
0000
3F80
3F80
0E00
0E00
0E00
0E00
0E00
0E00
0E00
0E00
0E00
0E00
3F80
3F80
0000
0000
0000
0000
0000
ENDCHAR
STARTCHAR U+0131
ENCODING 305
SWIDTH 480 0
DWIDTH 12 0
BBX 12 24 0 -2
BITMAP
0000
0000
0000
0000
0000
0000
0000
0000
0000
0E00
0E00
0E00
0E00
0E00
0E00
0E00
0E00
0E00
0E00
0000
0000
0000
0000
0000
ENDCHAR
STARTCHAR U+0132
ENCODING 306
SWIDTH 480 0
DWIDTH 12 0
BBX 12 24 0 -2
BITMAP
0000
0000
0000
0000
0000
F8E0
F8E0
70E0
70E0
70E0
70E0
70E0
70E0
70E0
70E0
76E0
76E0
FBC0
FBC0
0000
0000
0000
0000
0000
ENDCHAR
STARTCHAR U+0133
ENCODING 307
SWIDTH 480 0
DWIDTH 12 0
BBX 12 24 0 -2
BITMAP
0000
0000
0000
0000
0000
7380
7380
0000
0000
7380
7380
7380
7380
7380
7380
7380
7380
7380
7380
0380
0380
1F80
1E00
0000
ENDCHAR
STARTCHAR U+0134
ENCODING 308
SWIDTH 480 0
DWIDTH 12 0
BBX 12 24 0 -2
BITMAP
0780
0FC0
1CE0
0000
0000
00E0
00E0
00E0
00E0
00E0
00E0
00E0
00E0
00E0
00E0
70E0
71E0
3FC0
1F80
0000
0000
0000
0000
0000
ENDCHAR
STARTCHAR U+0135
ENCODING 309
SWIDTH 480 0
DWIDTH 12 0
BBX 12 24 0 -2
BITMAP
0000
0000
0000
0000
1E00
3F00
7380
0000
0000
0E00
0E00
0E00
0E00
0E00
0E00
0E00
0E00
0E00
0E00
0E00
0E00
7E00
7800
0000
ENDCHAR
STARTCHAR U+0136
ENCODING 310
SWIDTH 480 0
DWIDTH 12 0
BBX 12 24 0 -2
BITMAP
0000
0000
0000
0000
0000
70E0
71C0
7380
7700
7600
7C00
7800
7C00
7600
7700
7380
71C0
70E0
7060
3800
3C00
0E00
7E00
7C00
ENDCHAR
STARTCHAR U+0137
ENCODING 311
SWIDTH 480 0
DWIDTH 12 0
BBX 12 24 0 -2
BITMAP
0000
0000
0000
0000
0000
7000
7000
7000
71C0
73C0
7780
7700
7E00
7C00
7E00
7700
7780
73C0
71C0
3800
3C00
0E00
7E00
7C00
ENDCHAR
STARTCHAR U+0138
ENCODING 312
SWIDTH 480 0
DWIDTH 12 0
BBX 12 24 0 -2
BITMAP
0000
0000
0000
0000
0000
0000
0000
0000
70E0
71C0
7380
7700
7E00
7C00
7E00
7700
7380
71C0
70E0
0000
0000
0000
0000
0000
ENDCHAR
STARTCHAR U+0139
ENCODING 313
SWIDTH 480 0
DWIDTH 12 0
BBX 12 24 0 -2
BITMAP
1C00
3C00
7000
0000
0000
7000
7000
7000
7000
7000
7000
7000
7000
7000
7000
7000
7000
7FE0
7FE0
0000
0000
0000
0000
0000
ENDCHAR
STARTCHAR U+013A
ENCODING 314
SWIDTH 480 0
DWIDTH 12 0
BBX 12 24 0 -2
BITMAP
0700
0F00
1C00
0000
0000
0E00
0E00
0E00
0E00
0E00
0E00
0E00
0E00
0E00
0E00
0E00
0E00
0F80
0780
0000
0000
0000
0000
0000
ENDCHAR
STARTCHAR U+013B
ENCODING 315
SWIDTH 480 0
DWIDTH 12 0
BBX 12 24 0 -2
BITMAP
0000
0000
0000
0000
0000
7000
7000
7000
7000
7000
7000
7000
7000
7000
7000
7000
7000
7FE0
7FE0
0E00
0F00
0380
1F80
1F00
ENDCHAR
STARTCHAR U+013C
ENCODING 316
SWIDTH 480 0
DWIDTH 12 0
BBX 12 24 0 -2
BITMAP
0000
0000
0000
0000
0000
0E00
0E00
0E00
0E00
0E00
0E00
0E00
0E00
0E00
0E00
0E00
0E00
0F80
0780
0E00
0F00
0380
1F80
1F00
ENDCHAR
STARTCHAR U+013D
ENCODING 317
SWIDTH 480 0
DWIDTH 12 0
BBX 12 24 0 -2
BITMAP
0000
0000
0000
0000
0780
7780
7180
7380
7700
7000
7000
7000
7000
7000
7000
7000
7000
7FE0
7FE0
0000
0000
0000
0000
0000
ENDCHAR
STARTCHAR U+013E
ENCODING 318
SWIDTH 480 0
DWIDTH 12 0
BBX 12 24 0 -2
BITMAP
0000
0000
0000
0000
03C0
3BC0
38C0
39C0
3B80
3800
3800
3800
3800
3800
3800
3800
3800
3E00
1E00
0000
0000
0000
0000
0000
ENDCHAR
STARTCHAR U+013F
ENCODING 319
SWIDTH 480 0
DWIDTH 12 0
BBX 12 24 0 -2
BITMAP
0000
0000
0000
0000
0000
7000
7000
7000
7000
7000
7180
73C0
7180
7000
7000
7000
7000
7FE0
7FE0
0000
0000
0000
0000
0000
ENDCHAR
STARTCHAR U+0140
ENCODING 320
SWIDTH 480 0
DWIDTH 12 0
BBX 12 24 0 -2
BITMAP
0000
0000
0000
0000
0000
7000
7000
7000
7000
7000
7180
73C0
7180
7000
7000
7000
7000
7C00
3C00
0000
0000
0000
0000
0000
ENDCHAR
STARTCHAR U+0141
ENCODING 321
SWIDTH 480 0
DWIDTH 12 0
BBX 12 24 0 -2
BITMAP
0000
0000
0000
0000
0000
7000
7000
7380
7700
7600
7C00
7800
F000
F000
7000
7000
7000
7FE0
7FE0
0000
0000
0000
0000
0000
ENDCHAR
STARTCHAR U+0142
ENCODING 322
SWIDTH 480 0
DWIDTH 12 0
BBX 12 24 0 -2
BITMAP
0000
0000
0000
0000
0000
0E00
0E00
0E00
0E00
0EC0
0F80
0F00
1E00
3E00
7600
0E00
0E00
0F80
0780
0000
0000
0000
0000
0000
ENDCHAR
STARTCHAR U+0143
ENCODING 323
SWIDTH 480 0
DWIDTH 12 0
BBX 12 24 0 -2
BITMAP
0700
0F00
1C00
0000
0000
70E0
78E0
78E0
7CE0
7CE0
76E0
76E0
7760
7760
73E0
73E0
71E0
71E0
70E0
0000
0000
0000
0000
0000
ENDCHAR
STARTCHAR U+0144
ENCODING 324
SWIDTH 480 0
DWIDTH 12 0
BBX 12 24 0 -2
BITMAP
0000
0000
0000
0000
0700
0F00
1C00
0000
0000
7780
77C0
7CE0
78E0
70E0
70E0
70E0
70E0
70E0
70E0
0000
0000
0000
0000
0000
ENDCHAR
STARTCHAR U+0145
ENCODING 325
SWIDTH 480 0
DWIDTH 12 0
BBX 12 24 0 -2
BITMAP
0000
0000
0000
0000
0000
70E0
78E0
78E0
7CE0
7CE0
76E0
76E0
7760
7760
73E0
73E0
71E0
71E0
70E0
3800
3C00
0E00
7E00
7C00
ENDCHAR
STARTCHAR U+0146
ENCODING 326
SWIDTH 480 0
DWIDTH 12 0
BBX 12 24 0 -2
BITMAP
0000
0000
0000
0000
0000
0000
0000
0000
0000
7780
77C0
7CE0
78E0
70E0
70E0
70E0
70E0
70E0
70E0
3800
3C00
0E00
7E00
7C00
ENDCHAR
STARTCHAR U+0147
ENCODING 327
SWIDTH 480 0
DWIDTH 12 0
BBX 12 24 0 -2
BITMAP
3B80
1F00
0E00
0000
0000
70E0
78E0
78E0
7CE0
7CE0
76E0
76E0
7760
7760
73E0
73E0
71E0
71E0
70E0
0000
0000
0000
0000
0000
ENDCHAR
STARTCHAR U+0148
ENCODING 328
SWIDTH 480 0
DWIDTH 12 0
BBX 12 24 0 -2
BITMAP
0000
0000
0000
0000
3B80
1F00
0E00
0000
0000
7780
77C0
7CE0
78E0
70E0
70E0
70E0
70E0
70E0
70E0
0000
0000
0000
0000
0000
ENDCHAR
STARTCHAR U+0149
ENCODING 329
SWIDTH 480 0
DWIDTH 12 0
BBX 12 24 0 -2
BITMAP
0000
0000
0000
F000
F000
3000
7000
E000
0000
7780
77C0
7CE0
78E0
70E0
70E0
70E0
70E0
70E0
70E0
0000
0000
0000
0000
0000
ENDCHAR
STARTCHAR U+014A
ENCODING 330
SWIDTH 480 0
DWIDTH 12 0
BBX 12 24 0 -2
BITMAP
0000
0000
0000
0000
0000
7780
77C0
7DE0
78E0
70E0
70E0
70E0
70E0
70E0
70E0
70E0
71E0
77C0
7780
0000
0000
0000
0000
0000
ENDCHAR
STARTCHAR U+014B
ENCODING 331
SWIDTH 480 0
DWIDTH 12 0
BBX 12 24 0 -2
BITMAP
0000
0000
0000
0000
0000
0000
0000
0000
0000
7780
77C0
7CE0
78E0
70E0
70E0
70E0
70E0
70E0
70E0
00E0
00E0
00E0
1FC0
0F80
ENDCHAR
STARTCHAR U+014C
ENCODING 332
SWIDTH 480 0
DWIDTH 12 0
BBX 12 24 0 -2
BITMAP
0000
3FC0
3FC0
0000
0000
1F80
3FC0
79E0
70E0
70E0
70E0
70E0
70E0
70E0
70E0
70E0
79E0
3FC0
1F80
0000
0000
0000
0000
0000
ENDCHAR
STARTCHAR U+014D
ENCODING 333
SWIDTH 480 0
DWIDTH 12 0
BBX 12 24 0 -2
BITMAP
0000
0000
0000
0000
0000
3FC0
3FC0
0000
0000
1F80
3FC0
79E0
70E0
70E0
70E0
70E0
79E0
3FC0
1F80
0000
0000
0000
0000
0000
ENDCHAR
STARTCHAR U+014E
ENCODING 334
SWIDTH 480 0
DWIDTH 12 0
BBX 12 24 0 -2
BITMAP
39C0
39C0
1F80
0000
0000
1F80
3FC0
79E0
70E0
70E0
70E0
70E0
70E0
70E0
70E0
70E0
79E0
3FC0
1F80
0000
0000
0000
0000
0000
ENDCHAR
STARTCHAR U+014F
ENCODING 335
SWIDTH 480 0
DWIDTH 12 0
BBX 12 24 0 -2
BITMAP
0000
0000
0000
0000
39C0
39C0
1F80
0000
0000
1F80
3FC0
79E0
70E0
70E0
70E0
70E0
79E0
3FC0
1F80
0000
0000
0000
0000
0000
ENDCHAR
STARTCHAR U+0150
ENCODING 336
SWIDTH 480 0
DWIDTH 12 0
BBX 12 24 0 -2
BITMAP
1CE0
3DE0
7380
0000
0000
1F80
3FC0
79E0
70E0
70E0
70E0
70E0
70E0
70E0
70E0
70E0
79E0
3FC0
1F80
0000
0000
0000
0000
0000
ENDCHAR
STARTCHAR U+0151
ENCODING 337
SWIDTH 480 0
DWIDTH 12 0
BBX 12 24 0 -2
BITMAP
0000
0000
0000
0000
1CE0
3DE0
7380
0000
0000
1F80
3FC0
79E0
70E0
70E0
70E0
70E0
79E0
3FC0
1F80
0000
0000
0000
0000
0000
ENDCHAR
STARTCHAR U+0152
ENCODING 338
SWIDTH 480 0
DWIDTH 12 0
BBX 12 24 0 -2
BITMAP
0000
0000
0000
0000
0000
3DE0
7FE0
F700
E700
E700
E700
E7C0
E7C0
E700
E700
E700
F700
7FE0
3DE0
0000
0000
0000
0000
0000
ENDCHAR
STARTCHAR U+0153
ENCODING 339
SWIDTH 480 0
DWIDTH 12 0
BBX 12 24 0 -2
BITMAP
0000
0000
0000
0000
0000
0000
0000
0000
0000
3DC0
7FE0
F6E0
EEE0
EFE0
EFE0
EE00
F6E0
7FE0
3DC0
0000
0000
0000
0000
0000
ENDCHAR
STARTCHAR U+0154
ENCODING 340
SWIDTH 480 0
DWIDTH 12 0
BBX 12 24 0 -2
BITMAP
0700
0F00
1C00
0000
0000
7F80
7FC0
71E0
70E0
70E0
71E0
7FC0
7F80
7380
7380
71C0
71C0
70E0
70E0
0000
0000
0000
0000
0000
ENDCHAR
STARTCHAR U+0155
ENCODING 341
SWIDTH 480 0
DWIDTH 12 0
BBX 12 24 0 -2
BITMAP
0000
0000
0000
0000
0700
0F00
1C00
0000
0000
7780
77C0
7CE0
78E0
7000
7000
7000
7000
7000
7000
0000
0000
0000
0000
0000
ENDCHAR
STARTCHAR U+0156
ENCODING 342
SWIDTH 480 0
DWIDTH 12 0
BBX 12 24 0 -2
BITMAP
0000
0000
0000
0000
0000
7F80
7FC0
71E0
70E0
70E0
71E0
7FC0
7F80
7380
7380
71C0
71C0
70E0
70E0
3800
3C00
0E00
7E00
7C00
ENDCHAR
STARTCHAR U+0157
ENCODING 343
SWIDTH 480 0
DWIDTH 12 0
BBX 12 24 0 -2
BITMAP
0000
0000
0000
0000
0000
0000
0000
0000
0000
7780
77C0
7CE0
78E0
7000
7000
7000
7000
7000
7000
3800
3C00
0E00
7E00
7C00
ENDCHAR
STARTCHAR U+0158
ENCODING 344
SWIDTH 480 0
DWIDTH 12 0
BBX 12 24 0 -2
BITMAP
3B80
1F00
0E00
0000
0000
7F80
7FC0
71E0
70E0
70E0
71E0
7FC0
7F80
7380
7380
71C0
71C0
70E0
70E0
0000
0000
0000
0000
0000
ENDCHAR
STARTCHAR U+0159
ENCODING 345
SWIDTH 480 0
DWIDTH 12 0
BBX 12 24 0 -2
BITMAP
0000
0000
0000
0000
3B80
1F00
0E00
0000
0000
7780
77C0
7CE0
78E0
7000
7000
7000
7000
7000
7000
0000
0000
0000
0000
0000
ENDCHAR
STARTCHAR U+015A
ENCODING 346
SWIDTH 480 0
DWIDTH 12 0
BBX 12 24 0 -2
BITMAP
0700
0F00
1C00
0000
0000
1F80
3FC0
71E0
70E0
7000
7800
3F80
1FC0
01E0
00E0
70E0
71E0
7FC0
3F80
0000
0000
0000
0000
0000
ENDCHAR
STARTCHAR U+015B
ENCODING 347
SWIDTH 480 0
DWIDTH 12 0
BBX 12 24 0 -2
BITMAP
0000
0000
0000
0000
0700
0F00
1C00
0000
0000
3FC0
7FE0
7060
7000
3F80
1FC0
00E0
70E0
7FE0
3FC0
0000
0000
0000
0000
0000
ENDCHAR
STARTCHAR U+015C
ENCODING 348
SWIDTH 480 0
DWIDTH 12 0
BBX 12 24 0 -2
BITMAP
0F00
1F80
39C0
0000
0000
1F80
3FC0
71E0
70E0
7000
7800
3F80
1FC0
01E0
00E0
70E0
71E0
7FC0
3F80
0000
0000
0000
0000
0000
ENDCHAR
STARTCHAR U+015D
ENCODING 349
SWIDTH 480 0
DWIDTH 12 0
BBX 12 24 0 -2
BITMAP
0000
0000
0000
0000
0F00
1F80
39C0
0000
0000
3FC0
7FE0
7060
7000
3F80
1FC0
00E0
70E0
7FE0
3FC0
0000
0000
0000
0000
0000
ENDCHAR
STARTCHAR U+015E
ENCODING 350
SWIDTH 480 0
DWIDTH 12 0
BBX 12 24 0 -2
BITMAP
0000
0000
0000
0000
0000
1F80
3FC0
71E0
70E0
7000
7800
3F80
1FC0
01E0
00E0
70E0
71E0
7FC0
3F80
0E00
0F00
0380
1F80
1F00
ENDCHAR
STARTCHAR U+015F
ENCODING 351
SWIDTH 480 0
DWIDTH 12 0
BBX 12 24 0 -2
BITMAP
0000
0000
0000
0000
0000
0000
0000
0000
0000
3FC0
7FE0
7060
7000
3F80
1FC0
00E0
70E0
7FE0
3FC0
0E00
0F00
0380
1F80
1F00
ENDCHAR
STARTCHAR U+0160
ENCODING 352
SWIDTH 480 0
DWIDTH 12 0
BBX 12 24 0 -2
BITMAP
3B80
1F00
0E00
0000
0000
1F80
3FC0
71E0
70E0
7000
7800
3F80
1FC0
01E0
00E0
70E0
71E0
7FC0
3F80
0000
0000
0000
0000
0000
ENDCHAR
STARTCHAR U+0161
ENCODING 353
SWIDTH 480 0
DWIDTH 12 0
BBX 12 24 0 -2
BITMAP
0000
0000
0000
0000
3B80
1F00
0E00
0000
0000
3FC0
7FE0
7060
7000
3F80
1FC0
00E0
70E0
7FE0
3FC0
0000
0000
0000
0000
0000
ENDCHAR
STARTCHAR U+0162
ENCODING 354
SWIDTH 480 0
DWIDTH 12 0
BBX 12 24 0 -2
BITMAP
0000
0000
0000
0000
0000
FFE0
FFE0
0E00
0E00
0E00
0E00
0E00
0E00
0E00
0E00
0E00
0E00
0E00
0E00
0E00
0F00
0380
1F80
1F00
ENDCHAR
STARTCHAR U+0163
ENCODING 355
SWIDTH 480 0
DWIDTH 12 0
BBX 12 24 0 -2
BITMAP
0000
0000
0000
0000
0000
0000
0E00
0E00
0E00
3F80
3F80
0E00
0E00
0E00
0E00
0E00
0E00
0F80
0F80
0E00
0F00
0380
1F80
1F00
ENDCHAR
STARTCHAR U+0164
ENCODING 356
SWIDTH 480 0
DWIDTH 12 0
BBX 12 24 0 -2
BITMAP
3B80
1F00
0E00
0000
0000
FFE0
FFE0
0E00
0E00
0E00
0E00
0E00
0E00
0E00
0E00
0E00
0E00
0E00
0E00
0000
0000
0000
0000
0000
ENDCHAR
STARTCHAR U+0165
ENCODING 357
SWIDTH 480 0
DWIDTH 12 0
BBX 12 24 0 -2
BITMAP
0000
0000
0000
0000
01E0
01E0
3860
38E0
39C0
FE00
FE00
3800
3800
3800
3800
3800
3800
3E00
1E00
0000
0000
0000
0000
0000
ENDCHAR
STARTCHAR U+0166
ENCODING 358
SWIDTH 480 0
DWIDTH 12 0
BBX 12 24 0 -2
BITMAP
0000
0000
0000
0000
0000
FFE0
FFE0
0E00
0E00
0E00
0EC0
0F80
0F00
1E00
3E00
7600
0E00
0E00
0E00
0000
0000
0000
0000
0000
ENDCHAR
STARTCHAR U+0167
ENCODING 359
SWIDTH 480 0
DWIDTH 12 0
BBX 12 24 0 -2
BITMAP
0000
0000
0000
0000
0000
0000
0E00
0E00
0E00
3F80
3F80
0E00
0EC0
0F80
1F00
3E00
7600
0F80
0780
0000
0000
0000
0000
0000
ENDCHAR
STARTCHAR U+0168
ENCODING 360
SWIDTH 480 0
DWIDTH 12 0
BBX 12 24 0 -2
BITMAP
3C60
76E0
67C0
0000
0000
70E0
70E0
70E0
70E0
70E0
70E0
70E0
70E0
70E0
70E0
70E0
79E0
3FC0
1F80
0000
0000
0000
0000
0000
ENDCHAR
STARTCHAR U+0169
ENCODING 361
SWIDTH 480 0
DWIDTH 12 0
BBX 12 24 0 -2
BITMAP
0000
0000
0000
0000
1E60
3B60
33C0
0000
0000
70E0
70E0
70E0
70E0
70E0
70E0
71E0
7BE0
3F60
1EE0
0000
0000
0000
0000
0000
ENDCHAR
STARTCHAR U+016A
ENCODING 362
SWIDTH 480 0
DWIDTH 12 0
BBX 12 24 0 -2
BITMAP
0000
3FC0
3FC0
0000
0000
70E0
70E0
70E0
70E0
70E0
70E0
70E0
70E0
70E0
70E0
70E0
79E0
3FC0
1F80
0000
0000
0000
0000
0000
ENDCHAR
STARTCHAR U+016B
ENCODING 363
SWIDTH 480 0
DWIDTH 12 0
BBX 12 24 0 -2
BITMAP
0000
0000
0000
0000
0000
3FC0
3FC0
0000
0000
70E0
70E0
70E0
70E0
70E0
70E0
71E0
7BE0
3F60
1EE0
0000
0000
0000
0000
0000
ENDCHAR
STARTCHAR U+016C
ENCODING 364
SWIDTH 480 0
DWIDTH 12 0
BBX 12 24 0 -2
BITMAP
39C0
39C0
1F80
0000
0000
70E0
70E0
70E0
70E0
70E0
70E0
70E0
70E0
70E0
70E0
70E0
79E0
3FC0
1F80
0000
0000
0000
0000
0000
ENDCHAR
STARTCHAR U+016D
ENCODING 365
SWIDTH 480 0
DWIDTH 12 0
BBX 12 24 0 -2
BITMAP
0000
0000
0000
0000
39C0
39C0
1F80
0000
0000
70E0
70E0
70E0
70E0
70E0
70E0
71E0
7BE0
3F60
1EE0
0000
0000
0000
0000
0000
ENDCHAR
STARTCHAR U+016E
ENCODING 366
SWIDTH 480 0
DWIDTH 12 0
BBX 12 24 0 -2
BITMAP
0F00
1D80
1D80
0F00
0000
70E0
70E0
70E0
70E0
70E0
70E0
70E0
70E0
70E0
70E0
70E0
79E0
3FC0
1F80
0000
0000
0000
0000
0000
ENDCHAR
STARTCHAR U+016F
ENCODING 367
SWIDTH 480 0
DWIDTH 12 0
BBX 12 24 0 -2
BITMAP
0000
0000
0000
0F00
1D80
1D80
0F00
0000
0000
70E0
70E0
70E0
70E0
70E0
70E0
71E0
7BE0
3F60
1EE0
0000
0000
0000
0000
0000
ENDCHAR
STARTCHAR U+0170
ENCODING 368
SWIDTH 480 0
DWIDTH 12 0
BBX 12 24 0 -2
BITMAP
1CE0
3DE0
7380
0000
0000
70E0
70E0
70E0
70E0
70E0
70E0
70E0
70E0
70E0
70E0
70E0
79E0
3FC0
1F80
0000
0000
0000
0000
0000
ENDCHAR
STARTCHAR U+0171
ENCODING 369
SWIDTH 480 0
DWIDTH 12 0
BBX 12 24 0 -2
BITMAP
0000
0000
0000
0000
1CE0
3DE0
7380
0000
0000
70E0
70E0
70E0
70E0
70E0
70E0
71E0
7BE0
3F60
1EE0
0000
0000
0000
0000
0000
ENDCHAR
STARTCHAR U+0172
ENCODING 370
SWIDTH 480 0
DWIDTH 12 0
BBX 12 24 0 -2
BITMAP
0000
0000
0000
0000
0000
70E0
70E0
70E0
70E0
70E0
70E0
70E0
70E0
70E0
70E0
70E0
79E0
3FC0
1F80
0E00
1E00
3800
3F00
1F00
ENDCHAR
STARTCHAR U+0173
ENCODING 371
SWIDTH 480 0
DWIDTH 12 0
BBX 12 24 0 -2
BITMAP
0000
0000
0000
0000
0000
0000
0000
0000
0000
70E0
70E0
70E0
70E0
70E0
70E0
71E0
7BE0
3F60
1EE0
01C0
03C0
0700
07E0
03E0
ENDCHAR
STARTCHAR U+0174
ENCODING 372
SWIDTH 480 0
DWIDTH 12 0
BBX 12 24 0 -2
BITMAP
0F00
1F80
39C0
0000
0000
70E0
70E0
70E0
70E0
70E0
70E0
76E0
7760
7760
7DE0
7DE0
79E0
79E0
70E0
0000
0000
0000
0000
0000
ENDCHAR
STARTCHAR U+0175
ENCODING 373
SWIDTH 480 0
DWIDTH 12 0
BBX 12 24 0 -2
BITMAP
0000
0000
0000
0000
0F00
1F80
39C0
0000
0000
70E0
70E0
70E0
70E0
76E0
7760
7760
7DE0
79E0
70E0
0000
0000
0000
0000
0000
ENDCHAR
STARTCHAR U+0176
ENCODING 374
SWIDTH 480 0
DWIDTH 12 0
BBX 12 24 0 -2
BITMAP
0F00
1F80
39C0
0000
0000
E0E0
E0E0
71C0
71C0
3B80
3F80
1F00
0E00
0E00
0E00
0E00
0E00
0E00
0E00
0000
0000
0000
0000
0000
ENDCHAR
STARTCHAR U+0177
ENCODING 375
SWIDTH 480 0
DWIDTH 12 0
BBX 12 24 0 -2
BITMAP
0000
0000
0000
0000
0F00
1F80
39C0
0000
0000
70E0
70E0
70E0
70E0
70E0
70E0
70E0
71E0
3FE0
1F60
00E0
00E0
00E0
3FC0
1F80
ENDCHAR
STARTCHAR U+0178
ENCODING 376
SWIDTH 480 0
DWIDTH 12 0
BBX 12 24 0 -2
BITMAP
0000
39C0
39C0
0000
0000
E0E0
E0E0
71C0
71C0
3B80
3F80
1F00
0E00
0E00
0E00
0E00
0E00
0E00
0E00
0000
0000
0000
0000
0000
ENDCHAR
STARTCHAR U+0179
ENCODING 377
SWIDTH 480 0
DWIDTH 12 0
BBX 12 24 0 -2
BITMAP
0700
0F00
1C00
0000
0000
FFE0
FFE0
00E0
01E0
03C0
0780
0F00
1E00
3C00
7800
F000
E000
FFE0
FFE0
0000
0000
0000
0000
0000
ENDCHAR
STARTCHAR U+017A
ENCODING 378
SWIDTH 480 0
DWIDTH 12 0
BBX 12 24 0 -2
BITMAP
0000
0000
0000
0000
0700
0F00
1C00
0000
0000
7FE0
7FE0
01C0
0380
0700
0E00
1C00
3800
7FE0
7FE0
0000
0000
0000
0000
0000
ENDCHAR
STARTCHAR U+017B
ENCODING 379
SWIDTH 480 0
DWIDTH 12 0
BBX 12 24 0 -2
BITMAP
0000
0E00
0E00
0000
0000
FFE0
FFE0
00E0
01E0
03C0
0780
0F00
1E00
3C00
7800
F000
E000
FFE0
FFE0
0000
0000
0000
0000
0000
ENDCHAR
STARTCHAR U+017C
ENCODING 380
SWIDTH 480 0
DWIDTH 12 0
BBX 12 24 0 -2
BITMAP
0000
0000
0000
0000
0000
0E00
0E00
0000
0000
7FE0
7FE0
01C0
0380
0700
0E00
1C00
3800
7FE0
7FE0
0000
0000
0000
0000
0000
ENDCHAR
STARTCHAR U+017D
ENCODING 381
SWIDTH 480 0
DWIDTH 12 0
BBX 12 24 0 -2
BITMAP
3B80
1F00
0E00
0000
0000
FFE0
FFE0
00E0
01E0
03C0
0780
0F00
1E00
3C00
7800
F000
E000
FFE0
FFE0
0000
0000
0000
0000
0000
ENDCHAR
STARTCHAR U+017E
ENCODING 382
SWIDTH 480 0
DWIDTH 12 0
BBX 12 24 0 -2
BITMAP
0000
0000
0000
0000
3B80
1F00
0E00
0000
0000
7FE0
7FE0
01C0
0380
0700
0E00
1C00
3800
7FE0
7FE0
0000
0000
0000
0000
0000
ENDCHAR
STARTCHAR U+017F
ENCODING 383
SWIDTH 480 0
DWIDTH 12 0
BBX 12 24 0 -2
BITMAP
0000
0000
0000
0000
0000
0780
0F80
0E00
0E00
0E00
1E00
1E00
0E00
0E00
0E00
0E00
0E00
0E00
0E00
0000
0000
0000
0000
0000
ENDCHAR
STARTCHAR U+0180
ENCODING 384
SWIDTH 480 0
DWIDTH 12 0
BBX 12 24 0 -2
BITMAP
0000
0000
0000
0000
7000
7000
FE00
FE00
7000
7780
77C0
7DE0
78E0
70E0
70E0
78E0
7DE0
77C0
7780
0000
0000
0000
0000
0000
ENDCHAR
STARTCHAR U+0181
ENCODING 385
SWIDTH 480 0
DWIDTH 12 0
BBX 12 24 0 -2
BITMAP
0000
0000
0000
0000
0000
7F00
FF80
EDC0
EDC0
EDC0
1D80
1F80
1FC0
1DC0
1CE0
1CE0
1DE0
1FC0
1F80
0000
0000
0000
0000
0000
ENDCHAR
STARTCHAR U+0182
ENCODING 386
SWIDTH 480 0
DWIDTH 12 0
BBX 12 24 0 -2
BITMAP
0000
0000
0000
0000
0000
7F80
7F80
7000
7000
7000
7000
7F80
7FC0
71C0
70E0
70E0
71E0
7FC0
7F80
0000
0000
0000
0000
0000
ENDCHAR
STARTCHAR U+0183
ENCODING 387
SWIDTH 480 0
DWIDTH 12 0
BBX 12 24 0 -2
BITMAP
0000
0000
0000
0000
0000
7FC0
7FC0
7000
7000
7780
77C0
7DE0
78E0
70E0
70E0
78E0
7DE0
77C0
7780
0000
0000
0000
0000
0000
ENDCHAR
STARTCHAR U+0184
ENCODING 388
SWIDTH 480 0
DWIDTH 12 0
BBX 12 24 0 -2
BITMAP
0000
0000
0000
0000
0000
F000
F000
7000
7000
7000
7000
7F80
7FC0
71C0
70E0
70E0
71E0
7FC0
7F80
0000
0000
0000
0000
0000
ENDCHAR
STARTCHAR U+0185
ENCODING 389
SWIDTH 480 0
DWIDTH 12 0
BBX 12 24 0 -2
BITMAP
0000
0000
0000
0000
0000
F800
F800
3800
3800
3B80
3BC0
3EE0
3CE0
38E0
38E0
3CE0
3EE0
3BC0
3B80
0000
0000
0000
0000
0000
ENDCHAR
STARTCHAR U+0186
ENCODING 390
SWIDTH 480 0
DWIDTH 12 0
BBX 12 24 0 -2
BITMAP
0000
0000
0000
0000
0000
1F80
3FC0
79E0
70E0
00E0
00E0
00E0
00E0
00E0
00E0
70E0
79E0
3FC0
1F80
0000
0000
0000
0000
0000
ENDCHAR
STARTCHAR U+0187
ENCODING 391
SWIDTH 480 0
DWIDTH 12 0
BBX 12 24 0 -2
BITMAP
0000
0000
0000
00E0
01E0
3F80
7F00
F780
E380
E000
E000
E000
E000
E000
E000
E380
F780
7F00
3E00
0000
0000
0000
0000
0000
ENDCHAR
STARTCHAR U+0188
ENCODING 392
SWIDTH 480 0
DWIDTH 12 0
BBX 12 24 0 -2
BITMAP
0000
0000
0000
0000
0000
0000
0000
00E0
01E0
3F80
7F00
F380
E380
E000
E000
E000
F380
7F80
3F00
0000
0000
0000
0000
0000
ENDCHAR
STARTCHAR U+0189
ENCODING 393
SWIDTH 480 0
DWIDTH 12 0
BBX 12 24 0 -2
BITMAP
0000
0000
0000
0000
0000
7F80
7FC0
71E0
70E0
70E0
70E0
FEE0
FEE0
70E0
70E0
70E0
71E0
7FC0
7F80
0000
0000
0000
0000
0000
ENDCHAR
STARTCHAR U+018A
ENCODING 394
SWIDTH 480 0
DWIDTH 12 0
BBX 12 24 0 -2
BITMAP
0000
0000
0000
0000
0000
7F80
FFC0
EDC0
ECE0
ECE0
1CE0
1CE0
1CE0
1CE0
1CE0
1CE0
1DE0
1FC0
1F80
0000
0000
0000
0000
0000
ENDCHAR
STARTCHAR U+018B
ENCODING 395
SWIDTH 480 0
DWIDTH 12 0
BBX 12 24 0 -2
BITMAP
0000
0000
0000
0000
0000
1FE0
1FE0
00E0
00E0
00E0
00E0
1FE0
3FE0
38E0
70E0
70E0
78E0
3FE0
1FE0
0000
0000
0000
0000
0000
ENDCHAR
STARTCHAR U+018C
ENCODING 396
SWIDTH 480 0
DWIDTH 12 0
BBX 12 24 0 -2
BITMAP
0000
0000
0000
0000
0000
1FE0
1FE0
00E0
00E0
1F60
3FE0
79E0
70E0
70E0
70E0
71E0
73E0
3F60
1EE0
0000
0000
0000
0000
0000
ENDCHAR
STARTCHAR U+018D
ENCODING 397
SWIDTH 480 0
DWIDTH 12 0
BBX 12 24 0 -2
BITMAP
0000
0000
0000
0000
0000
0000
1F80
3FC0
79E0
70E0
70E0
70E0
79E0
3FC0
1F80
0380
01C0
1FC0
1F80
0000
0000
0000
0000
0000
ENDCHAR
STARTCHAR U+018E
ENCODING 398
SWIDTH 480 0
DWIDTH 12 0
BBX 12 24 0 -2
BITMAP
0000
0000
0000
0000
0000
7FE0
7FE0
00E0
00E0
00E0
00E0
1FE0
1FE0
00E0
00E0
00E0
00E0
7FE0
7FE0
0000
0000
0000
0000
0000
ENDCHAR
STARTCHAR U+018F
ENCODING 399
SWIDTH 480 0
DWIDTH 12 0
BBX 12 24 0 -2
BITMAP
0000
0000
0000
0000
0000
3F80
7FC0
F1E0
E0E0
00E0
00E0
00E0
FFE0
FFE0
E0E0
E0E0
F1E0
7FC0
3F80
0000
0000
0000
0000
0000
ENDCHAR
STARTCHAR U+0190
ENCODING 400
SWIDTH 480 0
DWIDTH 12 0
BBX 12 24 0 -2
BITMAP
0000
0000
0000
0000
0000
1F80
3FC0
70E0
70E0
7000
7000
3F00
3F00
7000
7000
70E0
70E0
3FC0
1F80
0000
0000
0000
0000
0000
ENDCHAR
STARTCHAR U+0191
ENCODING 401
SWIDTH 480 0
DWIDTH 12 0
BBX 12 24 0 -2
BITMAP
0000
0000
0000
0000
0000
3FE0
3FE0
3800
3800
3800
3800
3F80
3F80
3800
3800
3800
3800
3800
3800
3800
3800
F800
F000
0000
ENDCHAR
STARTCHAR U+0192
ENCODING 402
SWIDTH 480 0
DWIDTH 12 0
BBX 12 24 0 -2
BITMAP
0000
0000
0000
0000
0000
0780
0F80
0E00
0E00
0E00
3F80
3F80
0E00
0E00
0E00
0E00
0E00
0E00
0E00
0E00
0E00
3E00
3C00
0000
ENDCHAR
STARTCHAR U+0193
ENCODING 403
SWIDTH 480 0
DWIDTH 12 0
BBX 12 24 0 -2
BITMAP
0000
0000
0000
00E0
01E0
3F80
7F00
F780
E380
E000
E000
E000
EF80
EF80
E380
E380
F780
7F00
3E00
0000
0000
0000
0000
0000
ENDCHAR
STARTCHAR U+0194
ENCODING 404
SWIDTH 480 0
DWIDTH 12 0
BBX 12 24 0 -2
BITMAP
0000
0000
0000
0000
0000
70E0
70E0
79E0
39C0
1D80
1D80
0F00
0F00
1F80
39C0
39C0
39C0
39C0
1F80
0F00
0000
0000
0000
0000
ENDCHAR
STARTCHAR U+0195
ENCODING 405
SWIDTH 480 0
DWIDTH 12 0
BBX 12 24 0 -2
BITMAP
0000
0000
0000
0000
E000
E000
E000
E000
E000
ECE0
FEE0
F6E0
EEE0
EEE0
EEE0
EEE0
EEE0
E7C0
E380
0000
0000
0000
0000
0000
ENDCHAR
STARTCHAR U+0196
ENCODING 406
SWIDTH 480 0
DWIDTH 12 0
BBX 12 24 0 -2
BITMAP
0000
0000
0000
0000
0000
3E00
3E00
0E00
0E00
0E00
0E00
0E00
0E00
0E00
0E00
0E00
0E00
0F80
0780
0000
0000
0000
0000
0000
ENDCHAR
STARTCHAR U+0197
ENCODING 407
SWIDTH 480 0
DWIDTH 12 0
BBX 12 24 0 -2
BITMAP
0000
0000
0000
0000
0000
3F80
3F80
0E00
0E00
0E00
0E00
3F80
3F80
0E00
0E00
0E00
0E00
3F80
3F80
0000
0000
0000
0000
0000
ENDCHAR
STARTCHAR U+0198
ENCODING 408
SWIDTH 480 0
DWIDTH 12 0
BBX 12 24 0 -2
BITMAP
0000
0000
0000
0000
0000
71C0
73E0
7760
7600
7400
7C00
7800
7C00
7600
7700
7380
71C0
70E0
7060
0000
0000
0000
0000
0000
ENDCHAR
STARTCHAR U+0199
ENCODING 409
SWIDTH 480 0
DWIDTH 12 0
BBX 12 24 0 -2
BITMAP
0000
0000
0000
0000
3C00
7C00
7000
7000
71C0
73C0
7780
7700
7E00
7C00
7E00
7700
7780
73C0
71C0
0000
0000
0000
0000
0000
ENDCHAR
STARTCHAR U+019A
ENCODING 410
SWIDTH 480 0
DWIDTH 12 0
BBX 12 24 0 -2
BITMAP
0000
0000
0000
0000
0000
0E00
0E00
0E00
0E00
0E00
0E00
3F80
3F80
0E00
0E00
0E00
0E00
0F80
0780
0000
0000
0000
0000
0000
ENDCHAR
STARTCHAR U+019B
ENCODING 411
SWIDTH 480 0
DWIDTH 12 0
BBX 12 24 0 -2
BITMAP
0000
0000
0000
0000
00C0
3DC0
3D80
0F00
1E00
3B00
7700
6F80
0F80
1D80
1DC0
39C0
39C0
70E0
70E0
0000
0000
0000
0000
0000
ENDCHAR
STARTCHAR U+019C
ENCODING 412
SWIDTH 480 0
DWIDTH 12 0
BBX 12 24 0 -2
BITMAP
0000
0000
0000
0000
0000
EEE0
EEE0
EEE0
EEE0
EEE0
EEE0
EEE0
EEE0
EEE0
EEE0
EEE0
EEE0
FFE0
7B60
0000
0000
0000
0000
0000
ENDCHAR
STARTCHAR U+019D
ENCODING 413
SWIDTH 480 0
DWIDTH 12 0
BBX 12 24 0 -2
BITMAP
0000
0000
0000
0000
0000
38E0
38E0
3CE0
3CE0
3EE0
3AE0
3B60
3B60
3BE0
39E0
39E0
38E0
38E0
38E0
3800
F800
F000
0000
0000
ENDCHAR
STARTCHAR U+019E
ENCODING 414
SWIDTH 480 0
DWIDTH 12 0
BBX 12 24 0 -2
BITMAP
0000
0000
0000
0000
0000
0000
0000
0000
0000
7780
77C0
7CE0
78E0
70E0
70E0
70E0
70E0
70E0
70E0
00E0
00E0
00E0
0000
0000
ENDCHAR
STARTCHAR U+019F
ENCODING 415
SWIDTH 480 0
DWIDTH 12 0
BBX 12 24 0 -2
BITMAP
0000
0000
0000
0000
0000
1F80
3FC0
79E0
70E0
70E0
76E0
7FE0
7B60
70E0
70E0
70E0
79E0
3FC0
1F80
0000
0000
0000
0000
0000
ENDCHAR
STARTCHAR U+01A0
ENCODING 416
SWIDTH 480 0
DWIDTH 12 0
BBX 12 24 0 -2
BITMAP
0000
0000
00E0
00E0
01E0
3FC0
7F80
F3C0
E1C0
E1C0
E1C0
E1C0
E1C0
E1C0
E1C0
E1C0
F3C0
7F80
3F00
0000
0000
0000
0000
0000
ENDCHAR
STARTCHAR U+01A1
ENCODING 417
SWIDTH 480 0
DWIDTH 12 0
BBX 12 24 0 -2
BITMAP
0000
0000
0000
0000
0000
0000
00E0
00E0
01E0
3FC0
7F80
F3C0
E1C0
E1C0
E1C0
E1C0
F3C0
7F80
3F00
0000
0000
0000
0000
0000
ENDCHAR
STARTCHAR U+01A2
ENCODING 418
SWIDTH 480 0
DWIDTH 12 0
BBX 12 24 0 -2
BITMAP
0000
0000
0000
0000
0000
3DC0
7FE0
F760
E760
E760
E760
E760
E760
E760
E760
E760
F760
7EE0
3CE0
00E0
00E0
00E0
0000
0000
ENDCHAR
STARTCHAR U+01A3
ENCODING 419
SWIDTH 480 0
DWIDTH 12 0
BBX 12 24 0 -2
BITMAP
0000
0000
0000
0000
0000
0000
0000
0000
0000
3DC0
7FE0
F760
E760
E760
E760
E760
F760
7EE0
3CE0
00E0
00E0
00E0
0000
0000
ENDCHAR
STARTCHAR U+01A4
ENCODING 420
SWIDTH 480 0
DWIDTH 12 0
BBX 12 24 0 -2
BITMAP
0000
0000
0000
0000
0000
7F80
FFC0
EDE0
ECE0
ECE0
1DE0
1FC0
1F80
1C00
1C00
1C00
1C00
1C00
1C00
0000
0000
0000
0000
0000
ENDCHAR
STARTCHAR U+01A5
ENCODING 421
SWIDTH 480 0
DWIDTH 12 0
BBX 12 24 0 -2
BITMAP
0000
0000
0000
0000
0000
0000
0000
0000
00E0
EEE0
EF80
FB80
F380
E380
E380
F380
FB80
EF00
EE00
E000
E000
E000
E000
0000
ENDCHAR
STARTCHAR U+01A6
ENCODING 422
SWIDTH 480 0
DWIDTH 12 0
BBX 12 24 0 -2
BITMAP
0000
0000
0000
0000
FE00
FE00
3800
3800
3F80
3FC0
39C0
39C0
3F80
3F00
3F00
3B80
3BC0
39E0
38E0
0000
0000
0000
0000
0000
ENDCHAR
STARTCHAR U+01A7
ENCODING 423
SWIDTH 480 0
DWIDTH 12 0
BBX 12 24 0 -2
BITMAP
0000
0000
0000
0000
0000
1F80
3FC0
78E0
70E0
00E0
01E0
1FC0
3F80
7800
7000
70E0
78E0
3FE0
1FC0
0000
0000
0000
0000
0000
ENDCHAR
STARTCHAR U+01A8
ENCODING 424
SWIDTH 480 0
DWIDTH 12 0
BBX 12 24 0 -2
BITMAP
0000
0000
0000
0000
0000
0000
0000
0000
0000
3FC0
7FE0
60E0
00E0
1FC0
3F80
7000
70E0
7FE0
3FC0
0000
0000
0000
0000
0000
ENDCHAR
STARTCHAR U+01A9
ENCODING 425
SWIDTH 480 0
DWIDTH 12 0
BBX 12 24 0 -2
BITMAP
0000
0000
0000
0000
0000
7FE0
7FE0
7800
3C00
1E00
0F00
0780
0780
0F00
1E00
3C00
7800
7FE0
7FE0
0000
0000
0000
0000
0000
ENDCHAR
STARTCHAR U+01AA
ENCODING 426
SWIDTH 480 0
DWIDTH 12 0
BBX 12 24 0 -2
BITMAP
0000
0000
0000
0000
0000
7C00
FE00
EE00
EE00
FE00
7E00
0E00
0E00
0E00
0E00
0E00
0E00
0E00
0E00
0E00
0F00
07C0
03C0
0000
ENDCHAR
STARTCHAR U+01AB
ENCODING 427
SWIDTH 480 0
DWIDTH 12 0
BBX 12 24 0 -2
BITMAP
0000
0000
0000
0000
0000
0000
0E00
0E00
0E00
3F80
3F80
0E00
0E00
0E00
0E00
0E00
0E00
0F80
0780
0380
0380
0F80
0F00
0000
ENDCHAR
STARTCHAR U+01AC
ENCODING 428
SWIDTH 480 0
DWIDTH 12 0
BBX 12 24 0 -2
BITMAP
0000
0000
0000
0000
0000
7FE0
FFE0
EE00
EE00
0E00
0E00
0E00
0E00
0E00
0E00
0E00
0E00
0E00
0E00
0000
0000
0000
0000
0000
ENDCHAR
STARTCHAR U+01AD
ENCODING 429
SWIDTH 480 0
DWIDTH 12 0
BBX 12 24 0 -2
BITMAP
0000
0000
0000
0000
0000
0780
0F80
0E00
0E00
3F80
3F80
0E00
0E00
0E00
0E00
0E00
0E00
0F80
0780
0000
0000
0000
0000
0000
ENDCHAR
STARTCHAR U+01AE
ENCODING 430
SWIDTH 480 0
DWIDTH 12 0
BBX 12 24 0 -2
BITMAP
0000
0000
0000
0000
0000
FFE0
FFE0
0E00
0E00
0E00
0E00
0E00
0E00
0E00
0E00
0E00
0E00
0E00
0E00
0F80
0780
0000
0000
0000
ENDCHAR
STARTCHAR U+01AF
ENCODING 431
SWIDTH 480 0
DWIDTH 12 0
BBX 12 24 0 -2
BITMAP
0000
0000
0000
00E0
00E0
E7E0
E7C0
E700
E700
E700
E700
E700
E700
E700
E700
E700
E700
7E00
3C00
0000
0000
0000
0000
0000
ENDCHAR
STARTCHAR U+01B0
ENCODING 432
SWIDTH 480 0
DWIDTH 12 0
BBX 12 24 0 -2
BITMAP
0000
0000
0000
0000
0000
0000
0000
00E0
00E0
E7E0
E7C0
E700
E700
E700
E700
E700
EF00
7F00
3B00
0000
0000
0000
0000
0000
ENDCHAR
STARTCHAR U+01B1
ENCODING 433
SWIDTH 480 0
DWIDTH 12 0
BBX 12 24 0 -2
BITMAP
0000
0000
0000
0000
0000
7DE0
7DE0
1D80
1D80
39C0
70E0
70E0
70E0
70E0
70E0
70E0
79E0
3FC0
1F80
0000
0000
0000
0000
0000
ENDCHAR
STARTCHAR U+01B2
ENCODING 434
SWIDTH 480 0
DWIDTH 12 0
BBX 12 24 0 -2
BITMAP
0000
0000
0000
0000
0000
7780
77C0
71C0
71C0
71C0
71C0
71C0
73C0
7380
7780
7700
7E00
7C00
7800
0000
0000
0000
0000
0000
ENDCHAR
STARTCHAR U+01B3
ENCODING 435
SWIDTH 480 0
DWIDTH 12 0
BBX 12 24 0 -2
BITMAP
0000
0000
0000
0000
0000
7060
F8E0
38E0
1DC0
1DC0
0F80
0F80
0700
0700
0700
0700
0700
0700
0700
0000
0000
0000
0000
0000
ENDCHAR
STARTCHAR U+01B4
ENCODING 436
SWIDTH 480 0
DWIDTH 12 0
BBX 12 24 0 -2
BITMAP
0000
0000
0000
0000
0000
0000
0000
00E0
01E0
E780
E700
E700
E700
E700
E700
E700
EF00
7F00
3B00
0700
0700
0700
FE00
7C00
ENDCHAR
STARTCHAR U+01B5
ENCODING 437
SWIDTH 480 0
DWIDTH 12 0
BBX 12 24 0 -2
BITMAP
0000
0000
0000
0000
0000
FFE0
FFE0
00E0
01E0
03C0
0780
7FC0
7FC0
3C00
7800
F000
E000
FFE0
FFE0
0000
0000
0000
0000
0000
ENDCHAR
STARTCHAR U+01B6
ENCODING 438
SWIDTH 480 0
DWIDTH 12 0
BBX 12 24 0 -2
BITMAP
0000
0000
0000
0000
0000
0000
0000
0000
0000
7FE0
7FE0
01C0
0380
3FC0
3FC0
1C00
3800
7FE0
7FE0
0000
0000
0000
0000
0000
ENDCHAR
STARTCHAR U+01B7
ENCODING 439
SWIDTH 480 0
DWIDTH 12 0
BBX 12 24 0 -2
BITMAP
0000
0000
0000
0000
0000
7FC0
7FC0
0380
0700
0E00
1F80
1FC0
01E0
00E0
00E0
00E0
71E0
7FC0
3F80
0000
0000
0000
0000
0000
ENDCHAR
STARTCHAR U+01B8
ENCODING 440
SWIDTH 480 0
DWIDTH 12 0
BBX 12 24 0 -2
BITMAP
0000
0000
0000
0000
0000
3FE0
3FE0
1C00
0E00
0700
1F80
3F80
7800
7000
7000
7000
78E0
3FE0
1FC0
0000
0000
0000
0000
0000
ENDCHAR
STARTCHAR U+01B9
ENCODING 441
SWIDTH 480 0
DWIDTH 12 0
BBX 12 24 0 -2
BITMAP
0000
0000
0000
0000
0000
0000
0000
0000
0000
3F80
3F80
3800
1C00
0E00
1F00
3F00
7800
7000
7000
7000
79C0
3FC0
1F80
0000
ENDCHAR
STARTCHAR U+01BA
ENCODING 442
SWIDTH 480 0
DWIDTH 12 0
BBX 12 24 0 -2
BITMAP
0000
0000
0000
0000
0000
0000
0000
0000
0000
3F80
3F80
0380
0700
0E00
1F00
1F80
03C0
01C0
3FC0
7F80
F000
F0E0
7FE0
3FC0
ENDCHAR
STARTCHAR U+01BB
ENCODING 443
SWIDTH 480 0
DWIDTH 12 0
BBX 12 24 0 -2
BITMAP
0000
0000
0000
0000
0000
1F80
3FC0
71E0
70E0
00E0
01C0
3FC0
3FC0
0E00
1C00
3800
7000
7FE0
7FE0
0000
0000
0000
0000
0000
ENDCHAR
STARTCHAR U+01BC
ENCODING 444
SWIDTH 480 0
DWIDTH 12 0
BBX 12 24 0 -2
BITMAP
0000
0000
0000
0000
0000
7FC0
7FC0
1C00
1C00
1C00
1F80
1FC0
01E0
00E0
00E0
70E0
71E0
3FC0
1F80
0000
0000
0000
0000
0000
ENDCHAR
STARTCHAR U+01BD
ENCODING 445
SWIDTH 480 0
DWIDTH 12 0
BBX 12 24 0 -2
BITMAP
0000
0000
0000
0000
0000
0000
0000
0000
0000
7FC0
7FC0
1C00
1F80
1FC0
01E0
70E0
71E0
3FC0
1F80
0000
0000
0000
0000
0000
ENDCHAR
STARTCHAR U+01BE
ENCODING 446
SWIDTH 480 0
DWIDTH 12 0
BBX 12 24 0 -2
BITMAP
0000
0000
0000
0000
0000
0E00
0E00
7FC0
7FC0
0E00
0F00
0780
0380
0380
0380
0380
3B80
3F00
1E00
0000
0000
0000
0000
0000
ENDCHAR
STARTCHAR U+01BF
ENCODING 447
SWIDTH 480 0
DWIDTH 12 0
BBX 12 24 0 -2
BITMAP
0000
0000
0000
0000
0000
0000
0000
0000
0000
7780
77C0
7DE0
78E0
70E0
71E0
73C0
7780
7700
7E00
7C00
7000
7000
7000
0000
ENDCHAR
STARTCHAR U+01C0
ENCODING 448
SWIDTH 480 0
DWIDTH 12 0
BBX 12 24 0 -2
BITMAP
0000
0000
0000
0000
0000
0E00
0E00
0E00
0E00
0E00
0E00
0E00
0E00
0E00
0E00
0E00
0E00
0E00
0E00
0000
0000
0000
0000
0000
ENDCHAR
STARTCHAR U+01C1
ENCODING 449
SWIDTH 480 0
DWIDTH 12 0
BBX 12 24 0 -2
BITMAP
0000
0000
0000
0000
0000
3B80
3B80
3B80
3B80
3B80
3B80
3B80
3B80
3B80
3B80
3B80
3B80
3B80
3B80
0000
0000
0000
0000
0000
ENDCHAR
STARTCHAR U+01C2
ENCODING 450
SWIDTH 480 0
DWIDTH 12 0
BBX 12 24 0 -2
BITMAP
0000
0000
0000
0000
0000
0E00
0E00
0E00
0E00
7FC0
7FC0
0E00
0E00
7FC0
7FC0
0E00
0E00
0E00
0E00
0000
0000
0000
0000
0000
ENDCHAR
STARTCHAR U+01C3
ENCODING 451
SWIDTH 480 0
DWIDTH 12 0
BBX 12 24 0 -2
BITMAP
0000
0000
0000
0000
0000
0E00
0E00
0E00
0E00
0E00
0E00
0E00
0E00
0E00
0E00
0000
0000
0E00
0E00
0000
0000
0000
0000
0000
ENDCHAR
STARTCHAR U+01C4
ENCODING 452
SWIDTH 480 0
DWIDTH 12 0
BBX 12 24 0 -2
BITMAP
0EE0
07C0
0380
0000
0000
F7E0
FBE0
FCE0
ECE0
EDE0
EDC0
EDC0
EDC0
EDC0
ED80
ED80
FD80
FBE0
F7E0
0000
0000
0000
0000
0000
ENDCHAR
STARTCHAR U+01C5
ENCODING 453
SWIDTH 480 0
DWIDTH 12 0
BBX 12 24 0 -2
BITMAP
0000
0000
0000
0000
0770
F3E0
F9C0
FC00
EC00
EDE0
EDE0
ECE0
ECE0
EDC0
EDC0
ED80
FD80
FBE0
F3E0
0000
0000
0000
0000
0000
ENDCHAR
STARTCHAR U+01C6
ENCODING 454
SWIDTH 480 0
DWIDTH 12 0
BBX 12 24 0 -2
BITMAP
0000
0000
0000
0000
0770
1DE0
1DC0
1C00
1C00
7DE0
FDE0
ECE0
ECE0
EDC0
EDC0
ED80
ED80
FDE0
75E0
0000
0000
0000
0000
0000
ENDCHAR
STARTCHAR U+01C7
ENCODING 455
SWIDTH 480 0
DWIDTH 12 0
BBX 12 24 0 -2
BITMAP
0000
0000
0000
0000
0000
E0E0
E0E0
E0E0
E0E0
E0E0
E0E0
E0E0
E0E0
E0E0
E0E0
EEE0
EEE0
FBE0
FBC0
0000
0000
0000
0000
0000
ENDCHAR
STARTCHAR U+01C8
ENCODING 456
SWIDTH 480 0
DWIDTH 12 0
BBX 12 24 0 -2
BITMAP
0000
0000
0000
0000
0000
E0E0
E0E0
E000
E000
E0E0
E0E0
E0E0
E0E0
E0E0
E0E0
E0E0
E0E0
FEE0
FEE0
00E0
00E0
07E0
0780
0000
ENDCHAR
STARTCHAR U+01C9
ENCODING 457
SWIDTH 480 0
DWIDTH 12 0
BBX 12 24 0 -2
BITMAP
0000
0000
0000
0000
0000
71C0
71C0
7000
7000
71C0
71C0
71C0
71C0
71C0
71C0
71C0
71C0
7DC0
3DC0
01C0
01C0
0FC0
0F00
0000
ENDCHAR
STARTCHAR U+01CA
ENCODING 458
SWIDTH 480 0
DWIDTH 12 0
BBX 12 24 0 -2
BITMAP
0000
0000
0000
0000
0000
EEE0
EEE0
EEE0
F6E0
F6E0
F6E0
FEE0
FEE0
EEE0
EEE0
EEE0
EF60
EFE0
EDC0
0000
0000
0000
0000
0000
ENDCHAR
STARTCHAR U+01CB
ENCODING 459
SWIDTH 480 0
DWIDTH 12 0
BBX 12 24 0 -2
BITMAP
0000
0000
0000
0000
0000
EEE0
EEE0
EE00
F600
F6E0
F6E0
FEE0
FEE0
EEE0
EEE0
EEE0
EEE0
EEE0
EEE0
00E0
00E0
07E0
0780
0000
ENDCHAR
STARTCHAR U+01CC
ENCODING 460
SWIDTH 480 0
DWIDTH 12 0
BBX 12 24 0 -2
BITMAP
0000
0000
0000
0000
0000
00E0
00E0
0000
0000
EEE0
EF60
FB60
F760
E760
E760
E760
E760
E760
E760
00E0
00E0
07E0
0780
0000
ENDCHAR
STARTCHAR U+01CD
ENCODING 461
SWIDTH 480 0
DWIDTH 12 0
BBX 12 24 0 -2
BITMAP
1DC0
0F80
0700
0000
0000
1F80
3FC0
79E0
70E0
70E0
70E0
7FE0
7FE0
70E0
70E0
70E0
70E0
70E0
70E0
0000
0000
0000
0000
0000
ENDCHAR
STARTCHAR U+01CE
ENCODING 462
SWIDTH 480 0
DWIDTH 12 0
BBX 12 24 0 -2
BITMAP
0000
0000
0000
1DC0
0F80
0700
0000
0000
0F80
1FC0
38E0
00E0
0FE0
3FE0
70E0
71E0
73E0
7F60
3EE0
0000
0000
0000
0000
0000
ENDCHAR
STARTCHAR U+01CF
ENCODING 463
SWIDTH 480 0
DWIDTH 12 0
BBX 12 24 0 -2
BITMAP
3B80
1F00
0E00
0000
0000
3F80
3F80
0E00
0E00
0E00
0E00
0E00
0E00
0E00
0E00
0E00
0E00
3F80
3F80
0000
0000
0000
0000
0000
ENDCHAR
STARTCHAR U+01D0
ENCODING 464
SWIDTH 480 0
DWIDTH 12 0
BBX 12 24 0 -2
BITMAP
0000
0000
0000
0000
3B80
1F00
0E00
0000
0000
0E00
0E00
0E00
0E00
0E00
0E00
0E00
0E00
0E00
0E00
0000
0000
0000
0000
0000
ENDCHAR
STARTCHAR U+01D1
ENCODING 465
SWIDTH 480 0
DWIDTH 12 0
BBX 12 24 0 -2
BITMAP
3B80
1F00
0E00
0000
0000
1F80
3FC0
79E0
70E0
70E0
70E0
70E0
70E0
70E0
70E0
70E0
79E0
3FC0
1F80
0000
0000
0000
0000
0000
ENDCHAR
STARTCHAR U+01D2
ENCODING 466
SWIDTH 480 0
DWIDTH 12 0
BBX 12 24 0 -2
BITMAP
0000
0000
0000
0000
3B80
1F00
0E00
0000
0000
1F80
3FC0
79E0
70E0
70E0
70E0
70E0
79E0
3FC0
1F80
0000
0000
0000
0000
0000
ENDCHAR
STARTCHAR U+01D3
ENCODING 467
SWIDTH 480 0
DWIDTH 12 0
BBX 12 24 0 -2
BITMAP
3B80
1F00
0E00
0000
0000
70E0
70E0
70E0
70E0
70E0
70E0
70E0
70E0
70E0
70E0
70E0
79E0
3FC0
1F80
0000
0000
0000
0000
0000
ENDCHAR
STARTCHAR U+01D4
ENCODING 468
SWIDTH 480 0
DWIDTH 12 0
BBX 12 24 0 -2
BITMAP
0000
0000
0000
0000
1DC0
0F80
0700
0000
0000
70E0
70E0
70E0
70E0
70E0
70E0
71E0
7BE0
3F60
1EE0
0000
0000
0000
0000
0000
ENDCHAR
STARTCHAR U+01D5
ENCODING 469
SWIDTH 480 0
DWIDTH 12 0
BBX 12 24 0 -2
BITMAP
3FC0
3FC0
0000
39C0
39C0
0000
70E0
70E0
70E0
70E0
70E0
70E0
70E0
70E0
70E0
70E0
79E0
3FC0
1F80
0000
0000
0000
0000
0000
ENDCHAR
STARTCHAR U+01D6
ENCODING 470
SWIDTH 480 0
DWIDTH 12 0
BBX 12 24 0 -2
BITMAP
0000
0000
0000
3FC0
3FC0
0000
39C0
39C0
0000
70E0
70E0
70E0
70E0
70E0
70E0
71E0
7BE0
3F60
1EE0
0000
0000
0000
0000
0000
ENDCHAR
STARTCHAR U+01D7
ENCODING 471
SWIDTH 480 0
DWIDTH 12 0
BBX 12 24 0 -2
BITMAP
0380
0780
0E00
0000
39C0
39C0
0000
70E0
70E0
70E0
70E0
70E0
70E0
70E0
70E0
70E0
79E0
3FC0
1F80
0000
0000
0000
0000
0000
ENDCHAR
STARTCHAR U+01D8
ENCODING 472
SWIDTH 480 0
DWIDTH 12 0
BBX 12 24 0 -2
BITMAP
0000
0000
0380
0780
0E00
0000
39C0
39C0
0000
70E0
70E0
70E0
70E0
70E0
70E0
71E0
7BE0
3F60
1EE0
0000
0000
0000
0000
0000
ENDCHAR
STARTCHAR U+01D9
ENCODING 473
SWIDTH 480 0
DWIDTH 12 0
BBX 12 24 0 -2
BITMAP
3B80
1F00
0E00
0000
39C0
39C0
0000
70E0
70E0
70E0
70E0
70E0
70E0
70E0
70E0
70E0
79E0
3FC0
1F80
0000
0000
0000
0000
0000
ENDCHAR
STARTCHAR U+01DA
ENCODING 474
SWIDTH 480 0
DWIDTH 12 0
BBX 12 24 0 -2
BITMAP
0000
0000
3B80
1F00
0E00
0000
39C0
39C0
0000
70E0
70E0
70E0
70E0
70E0
70E0
71E0
7BE0
3F60
1EE0
0000
0000
0000
0000
0000
ENDCHAR
STARTCHAR U+01DB
ENCODING 475
SWIDTH 480 0
DWIDTH 12 0
BBX 12 24 0 -2
BITMAP
1C00
1E00
0700
0000
39C0
39C0
0000
70E0
70E0
70E0
70E0
70E0
70E0
70E0
70E0
70E0
79E0
3FC0
1F80
0000
0000
0000
0000
0000
ENDCHAR
STARTCHAR U+01DC
ENCODING 476
SWIDTH 480 0
DWIDTH 12 0
BBX 12 24 0 -2
BITMAP
0000
0000
1C00
1E00
0700
0000
39C0
39C0
0000
70E0
70E0
70E0
70E0
70E0
70E0
71E0
7BE0
3F60
1EE0
0000
0000
0000
0000
0000
ENDCHAR
STARTCHAR U+01DD
ENCODING 477
SWIDTH 480 0
DWIDTH 12 0
BBX 12 24 0 -2
BITMAP
0000
0000
0000
0000
0000
0000
0000
0000
0000
3F80
7FC0
70E0
00E0
7FE0
7FE0
70E0
71E0
3FC0
1F80
0000
0000
0000
0000
0000
ENDCHAR
STARTCHAR U+01DE
ENCODING 478
SWIDTH 480 0
DWIDTH 12 0
BBX 12 24 0 -2
BITMAP
3FC0
3FC0
0000
39C0
39C0
0000
1F80
3FC0
79E0
70E0
70E0
70E0
7FE0
7FE0
70E0
70E0
70E0
70E0
70E0
0000
0000
0000
0000
0000
ENDCHAR
STARTCHAR U+01DF
ENCODING 479
SWIDTH 480 0
DWIDTH 12 0
BBX 12 24 0 -2
BITMAP
0000
0000
3FC0
3FC0
0000
39C0
39C0
0000
0F80
1FC0
38E0
00E0
0FE0
3FE0
70E0
71E0
73E0
7F60
3EE0
0000
0000
0000
0000
0000
ENDCHAR
STARTCHAR U+01E0
ENCODING 480
SWIDTH 480 0
DWIDTH 12 0
BBX 12 24 0 -2
BITMAP
3F80
3F80
0000
0E00
0E00
0000
1F80
3FC0
79E0
70E0
70E0
70E0
7FE0
7FE0
70E0
70E0
70E0
70E0
70E0
0000
0000
0000
0000
0000
ENDCHAR
STARTCHAR U+01E1
ENCODING 481
SWIDTH 480 0
DWIDTH 12 0
BBX 12 24 0 -2
BITMAP
0000
0000
1FC0
1FC0
0000
0700
0700
0000
0F80
1FC0
38E0
00E0
0FE0
3FE0
70E0
71E0
73E0
7F60
3EE0
0000
0000
0000
0000
0000
ENDCHAR
STARTCHAR U+01E2
ENCODING 482
SWIDTH 480 0
DWIDTH 12 0
BBX 12 24 0 -2
BITMAP
0000
3FC0
3FC0
0000
0000
3FE0
3FE0
7700
7700
E700
E7E0
FFE0
FF00
E700
E700
E700
E700
E7E0
E7E0
0000
0000
0000
0000
0000
ENDCHAR
STARTCHAR U+01E3
ENCODING 483
SWIDTH 480 0
DWIDTH 12 0
BBX 12 24 0 -2
BITMAP
0000
0000
0000
0000
3FC0
3FC0
0000
0000
7BC0
FFE0
CEE0
0EE0
3FE0
7FC0
EE00
EE00
EEE0
FFE0
7FC0
0000
0000
0000
0000
0000
ENDCHAR
STARTCHAR U+01E4
ENCODING 484
SWIDTH 480 0
DWIDTH 12 0
BBX 12 24 0 -2
BITMAP
0000
0000
0000
0000
0000
3F00
7F80
F3C0
E1C0
E000
E000
E7C0
E7C0
E1C0
EFE0
EFE0
F3C0
7F80
3F00
0000
0000
0000
0000
0000
ENDCHAR
STARTCHAR U+01E5
ENCODING 485
SWIDTH 480 0
DWIDTH 12 0
BBX 12 24 0 -2
BITMAP
0000
0000
0000
0000
0000
0000
0000
0000
0000
3DC0
7EC0
F7C0
E3C0
E1C0
E1C0
F3C0
7FC0
3EC0
01C0
0FE0
0FE0
01C0
3F80
1F00
ENDCHAR
STARTCHAR U+01E6
ENCODING 486
SWIDTH 480 0
DWIDTH 12 0
BBX 12 24 0 -2
BITMAP
3B80
1F00
0E00
0000
0000
1F80
3FC0
79E0
70E0
7000
7000
7000
73E0
73E0
70E0
70E0
79E0
3FC0
1F80
0000
0000
0000
0000
0000
ENDCHAR
STARTCHAR U+01E7
ENCODING 487
SWIDTH 480 0
DWIDTH 12 0
BBX 12 24 0 -2
BITMAP
0000
0000
0000
0000
3B80
1F00
0E00
0000
0000
1EE0
3F60
7BE0
71E0
70E0
70E0
70E0
79E0
3FE0
1F60
00E0
00E0
00E0
1FC0
0F80
ENDCHAR
STARTCHAR U+01E8
ENCODING 488
SWIDTH 480 0
DWIDTH 12 0
BBX 12 24 0 -2
BITMAP
3B80
1F00
0E00
0000
0000
70E0
71C0
7380
7700
7600
7C00
7800
7C00
7600
7700
7380
71C0
70E0
7060
0000
0000
0000
0000
0000
ENDCHAR
STARTCHAR U+01E9
ENCODING 489
SWIDTH 480 0
DWIDTH 12 0
BBX 12 24 0 -2
BITMAP
0000
7700
3E00
1C00
0000
0000
7000
7000
71C0
73C0
7780
7700
7E00
7C00
7E00
7700
7780
73C0
71C0
0000
0000
0000
0000
0000
ENDCHAR
STARTCHAR U+01EA
ENCODING 490
SWIDTH 480 0
DWIDTH 12 0
BBX 12 24 0 -2
BITMAP
0000
0000
0000
0000
0000
1F80
3FC0
79E0
70E0
70E0
70E0
70E0
70E0
70E0
70E0
70E0
79E0
3FC0
1F80
0700
0F00
1C00
1F80
0F00
ENDCHAR
STARTCHAR U+01EB
ENCODING 491
SWIDTH 480 0
DWIDTH 12 0
BBX 12 24 0 -2
BITMAP
0000
0000
0000
0000
0000
0000
0000
0000
0000
1F80
3FC0
79E0
70E0
70E0
70E0
70E0
79E0
3FC0
1F80
0700
0F00
1C00
1F80
0F00
ENDCHAR
STARTCHAR U+01EC
ENCODING 492
SWIDTH 480 0
DWIDTH 12 0
BBX 12 24 0 -2
BITMAP
0000
3FC0
3FC0
0000
0000
1F80
3FC0
79E0
70E0
70E0
70E0
70E0
70E0
70E0
70E0
70E0
79E0
3FC0
1F80
0700
0F00
1C00
1F80
0F00
ENDCHAR
STARTCHAR U+01ED
ENCODING 493
SWIDTH 480 0
DWIDTH 12 0
BBX 12 24 0 -2
BITMAP
0000
0000
0000
0000
0000
3FC0
3FC0
0000
0000
1F80
3FC0
79E0
70E0
70E0
70E0
70E0
79E0
3FC0
1F80
0700
0F00
1C00
1F80
0F00
ENDCHAR
STARTCHAR U+01EE
ENCODING 494
SWIDTH 480 0
DWIDTH 12 0
BBX 12 24 0 -2
BITMAP
3B80
1F00
0E00
0000
0000
7FC0
7FC0
0380
0700
0E00
1F80
1FC0
01E0
00E0
00E0
00E0
71E0
7FC0
3F80
0000
0000
0000
0000
0000
ENDCHAR
STARTCHAR U+01EF
ENCODING 495
SWIDTH 480 0
DWIDTH 12 0
BBX 12 24 0 -2
BITMAP
0000
0000
0000
0000
3B80
1F00
0E00
0000
0000
3F80
3F80
0380
0700
0E00
1F00
1F80
03C0
01C0
01C0
01C0
73C0
7F80
3F00
0000
ENDCHAR
STARTCHAR U+01F0
ENCODING 496
SWIDTH 480 0
DWIDTH 12 0
BBX 12 24 0 -2
BITMAP
0000
0000
0000
0000
3B80
1F00
0E00
0000
0000
0E00
0E00
0E00
0E00
0E00
0E00
0E00
0E00
0E00
0E00
0E00
0E00
7E00
7800
0000
ENDCHAR
STARTCHAR U+01F1
ENCODING 497
SWIDTH 480 0
DWIDTH 12 0
BBX 12 24 0 -2
BITMAP
0000
0000
0000
0000
0000
F7E0
FBE0
ECE0
ECE0
EDE0
EDC0
EDC0
EDC0
EDC0
ED80
ED80
ED80
FBE0
F7E0
0000
0000
0000
0000
0000
ENDCHAR
STARTCHAR U+01F2
ENCODING 498
SWIDTH 480 0
DWIDTH 12 0
BBX 12 24 0 -2
BITMAP
0000
0000
0000
0000
0000
F000
F800
FC00
EC00
EDE0
EDE0
ECE0
ECE0
EDC0
EDC0
ED80
FD80
FBE0
F3E0
0000
0000
0000
0000
0000
ENDCHAR
STARTCHAR U+01F3
ENCODING 499
SWIDTH 480 0
DWIDTH 12 0
BBX 12 24 0 -2
BITMAP
0000
0000
0000
0000
0000
1C00
1C00
1C00
1C00
7DE0
FDE0
ECE0
ECE0
EDC0
EDC0
ED80
ED80
FDE0
75E0
0000
0000
0000
0000
0000
ENDCHAR
STARTCHAR U+01F4
ENCODING 500
SWIDTH 480 0
DWIDTH 12 0
BBX 12 24 0 -2
BITMAP
0380
0780
0E00
0000
0000
1F80
3FC0
79E0
70E0
7000
7000
7000
73E0
73E0
70E0
70E0
79E0
3FC0
1F80
0000
0000
0000
0000
0000
ENDCHAR
STARTCHAR U+01F5
ENCODING 501
SWIDTH 480 0
DWIDTH 12 0
BBX 12 24 0 -2
BITMAP
0000
0000
0000
0000
0380
0780
0E00
0000
0000
1EE0
3F60
7BE0
71E0
70E0
70E0
70E0
79E0
3FE0
1F60
00E0
00E0
00E0
1FC0
0F80
ENDCHAR
STARTCHAR U+01FA
ENCODING 506
SWIDTH 480 0
DWIDTH 12 0
BBX 12 24 0 -2
BITMAP
0780
0E00
0000
0F00
1D80
0F00
0000
1F80
3FC0
79E0
70E0
70E0
7FE0
7FE0
70E0
70E0
70E0
70E0
70E0
0000
0000
0000
0000
0000
ENDCHAR
STARTCHAR U+01FB
ENCODING 507
SWIDTH 480 0
DWIDTH 12 0
BBX 12 24 0 -2
BITMAP
0380
0780
0E00
0000
0F00
1D80
0F00
0000
0F80
1FC0
38E0
00E0
0FE0
3FE0
70E0
71E0
73E0
7F60
3EE0
0000
0000
0000
0000
0000
ENDCHAR
STARTCHAR U+01FC
ENCODING 508
SWIDTH 480 0
DWIDTH 12 0
BBX 12 24 0 -2
BITMAP
0700
0F00
1C00
0000
0000
3FE0
3FE0
7700
7700
E700
E7E0
FFE0
FF00
E700
E700
E700
E700
E7E0
E7E0
0000
0000
0000
0000
0000
ENDCHAR
STARTCHAR U+01FD
ENCODING 509
SWIDTH 480 0
DWIDTH 12 0
BBX 12 24 0 -2
BITMAP
0000
0000
0000
0700
0F00
1C00
0000
0000
7BC0
FFE0
CEE0
0EE0
3FE0
7FC0
EE00
EE00
EEE0
FFE0
7FC0
0000
0000
0000
0000
0000
ENDCHAR
STARTCHAR U+01FE
ENCODING 510
SWIDTH 480 0
DWIDTH 12 0
BBX 12 24 0 -2
BITMAP
0380
0780
0E00
0000
0000
1FA0
3FE0
79E0
71E0
73E0
7360
7760
76E0
74E0
7CE0
78E0
79E0
7FC0
6F80
0000
0000
0000
0000
0000
ENDCHAR
STARTCHAR U+01FF
ENCODING 511
SWIDTH 480 0
DWIDTH 12 0
BBX 12 24 0 -2
BITMAP
0000
0000
0000
0000
0380
0780
0E00
0000
0000
1F60
3FE0
7BC0
77E0
7760
7760
7EE0
3DE0
7FC0
7780
0000
0000
0000
0000
0000
ENDCHAR
STARTCHAR U+0200
ENCODING 512
SWIDTH 480 0
DWIDTH 12 0
BBX 12 24 0 -2
BITMAP
7380
7BC0
1CE0
0000
0000
1F80
3FC0
79E0
70E0
70E0
70E0
7FE0
7FE0
70E0
70E0
70E0
70E0
70E0
70E0
0000
0000
0000
0000
0000
ENDCHAR
STARTCHAR U+0201
ENCODING 513
SWIDTH 480 0
DWIDTH 12 0
BBX 12 24 0 -2
BITMAP
0000
0000
0000
7380
7BC0
1CE0
0000
0000
0F80
1FC0
38E0
00E0
0FE0
3FE0
70E0
71E0
73E0
7F60
3EE0
0000
0000
0000
0000
0000
ENDCHAR
STARTCHAR U+0202
ENCODING 514
SWIDTH 480 0
DWIDTH 12 0
BBX 12 24 0 -2
BITMAP
1F80
39C0
39C0
0000
0000
1F80
3FC0
79E0
70E0
70E0
70E0
7FE0
7FE0
70E0
70E0
70E0
70E0
70E0
70E0
0000
0000
0000
0000
0000
ENDCHAR
STARTCHAR U+0203
ENCODING 515
SWIDTH 480 0
DWIDTH 12 0
BBX 12 24 0 -2
BITMAP
0000
0000
0000
1F80
39C0
39C0
0000
0000
0F80
1FC0
38E0
00E0
0FE0
3FE0
70E0
71E0
73E0
7F60
3EE0
0000
0000
0000
0000
0000
ENDCHAR
STARTCHAR U+0204
ENCODING 516
SWIDTH 480 0
DWIDTH 12 0
BBX 12 24 0 -2
BITMAP
7380
7BC0
1CE0
0000
0000
7FE0
7FE0
7000
7000
7000
7000
7F80
7F80
7000
7000
7000
7000
7FE0
7FE0
0000
0000
0000
0000
0000
ENDCHAR
STARTCHAR U+0205
ENCODING 517
SWIDTH 480 0
DWIDTH 12 0
BBX 12 24 0 -2
BITMAP
0000
0000
0000
0000
7380
7BC0
1CE0
0000
0000
1F80
3FC0
78E0
70E0
7FE0
7FE0
7000
70E0
3FE0
1FC0
0000
0000
0000
0000
0000
ENDCHAR
STARTCHAR U+0206
ENCODING 518
SWIDTH 480 0
DWIDTH 12 0
BBX 12 24 0 -2
BITMAP
1F80
39C0
39C0
0000
0000
7FE0
7FE0
7000
7000
7000
7000
7F80
7F80
7000
7000
7000
7000
7FE0
7FE0
0000
0000
0000
0000
0000
ENDCHAR
STARTCHAR U+0207
ENCODING 519
SWIDTH 480 0
DWIDTH 12 0
BBX 12 24 0 -2
BITMAP
0000
0000
0000
0000
1F80
39C0
39C0
0000
0000
1F80
3FC0
78E0
70E0
7FE0
7FE0
7000
70E0
3FE0
1FC0
0000
0000
0000
0000
0000
ENDCHAR
STARTCHAR U+0208
ENCODING 520
SWIDTH 480 0
DWIDTH 12 0
BBX 12 24 0 -2
BITMAP
E700
F780
39C0
0000
0000
3F80
3F80
0E00
0E00
0E00
0E00
0E00
0E00
0E00
0E00
0E00
0E00
3F80
3F80
0000
0000
0000
0000
0000
ENDCHAR
STARTCHAR U+0209
ENCODING 521
SWIDTH 480 0
DWIDTH 12 0
BBX 12 24 0 -2
BITMAP
0000
0000
0000
0000
E700
F780
39C0
0000
0000
0E00
0E00
0E00
0E00
0E00
0E00
0E00
0E00
0E00
0E00
0000
0000
0000
0000
0000
ENDCHAR
STARTCHAR U+020A
ENCODING 522
SWIDTH 480 0
DWIDTH 12 0
BBX 12 24 0 -2
BITMAP
1F00
3B80
3B80
0000
0000
3F80
3F80
0E00
0E00
0E00
0E00
0E00
0E00
0E00
0E00
0E00
0E00
3F80
3F80
0000
0000
0000
0000
0000
ENDCHAR
STARTCHAR U+020B
ENCODING 523
SWIDTH 480 0
DWIDTH 12 0
BBX 12 24 0 -2
BITMAP
0000
0000
0000
0000
1F00
3B80
3B80
0000
0000
0E00
0E00
0E00
0E00
0E00
0E00
0E00
0E00
0E00
0E00
0000
0000
0000
0000
0000
ENDCHAR
STARTCHAR U+020C
ENCODING 524
SWIDTH 480 0
DWIDTH 12 0
BBX 12 24 0 -2
BITMAP
7380
7BC0
1CE0
0000
0000
1F80
3FC0
79E0
70E0
70E0
70E0
70E0
70E0
70E0
70E0
70E0
79E0
3FC0
1F80
0000
0000
0000
0000
0000
ENDCHAR
STARTCHAR U+020D
ENCODING 525
SWIDTH 480 0
DWIDTH 12 0
BBX 12 24 0 -2
BITMAP
0000
0000
0000
0000
7380
7BC0
1CE0
0000
0000
1F80
3FC0
79E0
70E0
70E0
70E0
70E0
79E0
3FC0
1F80
0000
0000
0000
0000
0000
ENDCHAR
STARTCHAR U+020E
ENCODING 526
SWIDTH 480 0
DWIDTH 12 0
BBX 12 24 0 -2
BITMAP
1F80
39C0
39C0
0000
0000
1F80
3FC0
79E0
70E0
70E0
70E0
70E0
70E0
70E0
70E0
70E0
79E0
3FC0
1F80
0000
0000
0000
0000
0000
ENDCHAR
STARTCHAR U+020F
ENCODING 527
SWIDTH 480 0
DWIDTH 12 0
BBX 12 24 0 -2
BITMAP
0000
0000
0000
0000
1F80
39C0
39C0
0000
0000
1F80
3FC0
79E0
70E0
70E0
70E0
70E0
79E0
3FC0
1F80
0000
0000
0000
0000
0000
ENDCHAR
STARTCHAR U+0210
ENCODING 528
SWIDTH 480 0
DWIDTH 12 0
BBX 12 24 0 -2
BITMAP
7380
7BC0
1CE0
0000
0000
7F80
7FC0
71E0
70E0
70E0
71E0
7FC0
7F80
7380
7380
71C0
71C0
70E0
70E0
0000
0000
0000
0000
0000
ENDCHAR
STARTCHAR U+0211
ENCODING 529
SWIDTH 480 0
DWIDTH 12 0
BBX 12 24 0 -2
BITMAP
0000
0000
0000
0000
7380
7BC0
1CE0
0000
0000
7780
77C0
7CE0
78E0
7000
7000
7000
7000
7000
7000
0000
0000
0000
0000
0000
ENDCHAR
STARTCHAR U+0212
ENCODING 530
SWIDTH 480 0
DWIDTH 12 0
BBX 12 24 0 -2
BITMAP
1F80
39C0
39C0
0000
0000
7F80
7FC0
71E0
70E0
70E0
71E0
7FC0
7F80
7380
7380
71C0
71C0
70E0
70E0
0000
0000
0000
0000
0000
ENDCHAR
STARTCHAR U+0213
ENCODING 531
SWIDTH 480 0
DWIDTH 12 0
BBX 12 24 0 -2
BITMAP
0000
0000
0000
0000
1F80
39C0
39C0
0000
0000
7780
77C0
7CE0
78E0
7000
7000
7000
7000
7000
7000
0000
0000
0000
0000
0000
ENDCHAR
STARTCHAR U+0214
ENCODING 532
SWIDTH 480 0
DWIDTH 12 0
BBX 12 24 0 -2
BITMAP
7380
7BC0
1CE0
0000
0000
70E0
70E0
70E0
70E0
70E0
70E0
70E0
70E0
70E0
70E0
70E0
79E0
3FC0
1F80
0000
0000
0000
0000
0000
ENDCHAR
STARTCHAR U+0215
ENCODING 533
SWIDTH 480 0
DWIDTH 12 0
BBX 12 24 0 -2
BITMAP
0000
0000
0000
0000
7380
7BC0
1CE0
0000
0000
70E0
70E0
70E0
70E0
70E0
70E0
71E0
7BE0
3F60
1EE0
0000
0000
0000
0000
0000
ENDCHAR
STARTCHAR U+0216
ENCODING 534
SWIDTH 480 0
DWIDTH 12 0
BBX 12 24 0 -2
BITMAP
1F80
39C0
39C0
0000
0000
70E0
70E0
70E0
70E0
70E0
70E0
70E0
70E0
70E0
70E0
70E0
79E0
3FC0
1F80
0000
0000
0000
0000
0000
ENDCHAR
STARTCHAR U+0217
ENCODING 535
SWIDTH 480 0
DWIDTH 12 0
BBX 12 24 0 -2
BITMAP
0000
0000
0000
0000
1F80
39C0
39C0
0000
0000
70E0
70E0
70E0
70E0
70E0
70E0
71E0
7BE0
3F60
1EE0
0000
0000
0000
0000
0000
ENDCHAR
STARTCHAR U+0250
ENCODING 592
SWIDTH 480 0
DWIDTH 12 0
BBX 12 24 0 -2
BITMAP
0000
0000
0000
0000
0000
0000
0000
0000
0000
77C0
7FE0
78E0
70E0
7FC0
7F80
7000
70E0
3FC0
1F80
0000
0000
0000
0000
0000
ENDCHAR
STARTCHAR U+0251
ENCODING 593
SWIDTH 480 0
DWIDTH 12 0
BBX 12 24 0 -2
BITMAP
0000
0000
0000
0000
0000
0000
0000
0000
0000
1F60
3FE0
71E0
70E0
70E0
70E0
71E0
73E0
3F60
1EE0
0000
0000
0000
0000
0000
ENDCHAR
STARTCHAR U+0252
ENCODING 594
SWIDTH 480 0
DWIDTH 12 0
BBX 12 24 0 -2
BITMAP
0000
0000
0000
0000
0000
0000
0000
0000
0000
7780
77C0
7CE0
78E0
70E0
70E0
70E0
78E0
7FC0
7780
0000
0000
0000
0000
0000
ENDCHAR
STARTCHAR U+0253
ENCODING 595
SWIDTH 480 0
DWIDTH 12 0
BBX 12 24 0 -2
BITMAP
0000
0000
0000
0000
3C00
7C00
7000
7000
7000
7780
77C0
7DE0
78E0
70E0
70E0
78E0
7DE0
77C0
7780
0000
0000
0000
0000
0000
ENDCHAR
STARTCHAR U+0254
ENCODING 596
SWIDTH 480 0
DWIDTH 12 0
BBX 12 24 0 -2
BITMAP
0000
0000
0000
0000
0000
0000
0000
0000
0000
3F80
7FC0
71E0
00E0
00E0
00E0
70E0
71E0
3FC0
3F80
0000
0000
0000
0000
0000
ENDCHAR
STARTCHAR U+0255
ENCODING 597
SWIDTH 480 0
DWIDTH 12 0
BBX 12 24 0 -2
BITMAP
0000
0000
0000
0000
0000
0000
0000
0000
0000
1FC0
3FC0
78E0
70E0
7000
73C0
77E0
7EE0
3FE0
1FC0
3800
0000
0000
0000
0000
ENDCHAR
STARTCHAR U+0256
ENCODING 598
SWIDTH 480 0
DWIDTH 12 0
BBX 12 24 0 -2
BITMAP
0000
0000
0000
0000
0000
0380
0380
0380
0380
3D80
7F80
F780
E380
E380
E380
E780
EF80
7D80
3BE0
01E0
0000
0000
0000
0000
ENDCHAR
STARTCHAR U+0257
ENCODING 599
SWIDTH 480 0
DWIDTH 12 0
BBX 12 24 0 -2
BITMAP
0000
0000
0000
0000
01E0
03E0
0380
0380
0380
3D80
7F80
F780
E380
E380
E380
E780
EF80
7D80
3B80
0000
0000
0000
0000
0000
ENDCHAR
STARTCHAR U+0258
ENCODING 600
SWIDTH 480 0
DWIDTH 12 0
BBX 12 24 0 -2
BITMAP
0000
0000
0000
0000
0000
0000
0000
0000
0000
1F80
3FC0
71E0
70E0
7FE0
7FE0
00E0
70E0
7FC0
3F80
0000
0000
0000
0000
0000
ENDCHAR
STARTCHAR U+0259
ENCODING 601
SWIDTH 480 0
DWIDTH 12 0
BBX 12 24 0 -2
BITMAP
0000
0000
0000
0000
0000
0000
0000
0000
0000
3F80
7FC0
70E0
00E0
7FE0
7FE0
70E0
71E0
3FC0
1F80
0000
0000
0000
0000
0000
ENDCHAR
STARTCHAR U+025A
ENCODING 602
SWIDTH 480 0
DWIDTH 12 0
BBX 12 24 0 -2
BITMAP
0000
0000
0000
0000
0000
0000
0000
0000
00E0
7EE0
FF80
E380
0380
FF80
FF80
E380
E780
7F00
3E00
0000
0000
0000
0000
0000
ENDCHAR
STARTCHAR U+025B
ENCODING 603
SWIDTH 480 0
DWIDTH 12 0
BBX 12 24 0 -2
BITMAP
0000
0000
0000
0000
0000
0000
0000
0000
0000
1F80
3FC0
70E0
7000
3F00
3F00
7000
70E0
3FC0
1F80
0000
0000
0000
0000
0000
ENDCHAR
STARTCHAR U+025C
ENCODING 604
SWIDTH 480 0
DWIDTH 12 0
BBX 12 24 0 -2
BITMAP
0000
0000
0000
0000
0000
0000
0000
0000
0000
1F80
3FC0
70E0
00E0
0FC0
0FC0
00E0
70E0
3FC0
1F80
0000
0000
0000
0000
0000
ENDCHAR
STARTCHAR U+025D
ENCODING 605
SWIDTH 480 0
DWIDTH 12 0
BBX 12 24 0 -2
BITMAP
0000
0000
0000
0000
0000
0000
0000
0000
00E0
3EE0
7F80
E380
0380
1F00
1F00
0380
E380
7F00
3E00
0000
0000
0000
0000
0000
ENDCHAR
STARTCHAR U+025E
ENCODING 606
SWIDTH 480 0
DWIDTH 12 0
BBX 12 24 0 -2
BITMAP
0000
0000
0000
0000
0000
0000
0000
0000
0000
1F80
3FC0
70E0
70E0
77C0
77C0
70E0
70E0
3FC0
1F80
0000
0000
0000
0000
0000
ENDCHAR
STARTCHAR U+025F
ENCODING 607
SWIDTH 480 0
DWIDTH 12 0
BBX 12 24 0 -2
BITMAP
0000
0000
0000
0000
0000
0000
0000
0000
0000
0E00
0E00
0E00
0E00
0E00
0E00
0E00
7FC0
7FC0
0E00
0E00
0E00
7E00
7800
0000
ENDCHAR
STARTCHAR U+0260
ENCODING 608
SWIDTH 480 0
DWIDTH 12 0
BBX 12 24 0 -2
BITMAP
0000
0000
0000
0000
0000
0000
0000
00E0
01E0
3B80
7D80
F780
E780
E380
E380
E380
F780
7F80
3D80
0380
0380
0380
FF00
7E00
ENDCHAR
STARTCHAR U+0261
ENCODING 609
SWIDTH 480 0
DWIDTH 12 0
BBX 12 24 0 -2
BITMAP
0000
0000
0000
0000
0000
0000
0000
0000
0000
1EE0
3F60
7BE0
71E0
70E0
70E0
70E0
79E0
3FE0
1F60
00E0
00E0
00E0
3FC0
1F80
ENDCHAR
STARTCHAR U+0262
ENCODING 610
SWIDTH 480 0
DWIDTH 12 0
BBX 12 24 0 -2
BITMAP
0000
0000
0000
0000
0000
0000
0000
0000
0000
1F80
3FC0
79E0
7000
7000
73E0
73E0
78E0
3FE0
1FC0
0000
0000
0000
0000
0000
ENDCHAR
STARTCHAR U+0263
ENCODING 611
SWIDTH 480 0
DWIDTH 12 0
BBX 12 24 0 -2
BITMAP
0000
0000
0000
0000
0000
0000
0000
0000
0000
70E0
79E0
1D80
0F00
1F80
39C0
39C0
39C0
39C0
1F80
0F00
0000
0000
0000
0000
ENDCHAR
STARTCHAR U+0264
ENCODING 612
SWIDTH 480 0
DWIDTH 12 0
BBX 12 24 0 -2
BITMAP
0000
0000
0000
0000
0000
0000
0000
0000
0000
70E0
79E0
39C0
1D80
1D80
0F00
1F80
1D80
1F80
0F00
0000
0000
0000
0000
0000
ENDCHAR
STARTCHAR U+0265
ENCODING 613
SWIDTH 480 0
DWIDTH 12 0
BBX 12 24 0 -2
BITMAP
0000
0000
0000
0000
0000
0000
0000
0000
0000
70E0
70E0
70E0
70E0
70E0
70E0
71E0
7BE0
3F60
1EE0
00E0
00E0
00E0
00E0
00E0
ENDCHAR
STARTCHAR U+0266
ENCODING 614
SWIDTH 480 0
DWIDTH 12 0
BBX 12 24 0 -2
BITMAP
0000
0000
0000
0000
1E00
3E00
7000
7000
7000
7780
77C0
7DE0
78E0
70E0
70E0
70E0
70E0
70E0
70E0
0000
0000
0000
0000
0000
ENDCHAR
STARTCHAR U+0267
ENCODING 615
SWIDTH 480 0
DWIDTH 12 0
BBX 12 24 0 -2
BITMAP
0000
0000
0000
0000
1E00
3E00
7000
7000
7000
7780
77C0
7DE0
78E0
70E0
70E0
70E0
70E0
70E0
70E0
00E0
00E0
00E0
0FC0
0780
ENDCHAR
STARTCHAR U+0268
ENCODING 616
SWIDTH 480 0
DWIDTH 12 0
BBX 12 24 0 -2
BITMAP
0000
0000
0000
0000
0000
0E00
0E00
0000
0000
0E00
0E00
0E00
0E00
3F80
3F80
0E00
0E00
0E00
0E00
0000
0000
0000
0000
0000
ENDCHAR
STARTCHAR U+0269
ENCODING 617
SWIDTH 480 0
DWIDTH 12 0
BBX 12 24 0 -2
BITMAP
0000
0000
0000
0000
0000
0000
0000
0000
0000
0E00
0E00
0E00
0E00
0E00
0E00
0E00
0E00
0F80
0780
0000
0000
0000
0000
0000
ENDCHAR
STARTCHAR U+026A
ENCODING 618
SWIDTH 480 0
DWIDTH 12 0
BBX 12 24 0 -2
BITMAP
0000
0000
0000
0000
0000
0000
0000
0000
0000
3F80
3F80
0E00
0E00
0E00
0E00
0E00
0E00
3F80
3F80
0000
0000
0000
0000
0000
ENDCHAR
STARTCHAR U+026B
ENCODING 619
SWIDTH 480 0
DWIDTH 12 0
BBX 12 24 0 -2
BITMAP
0000
0000
0000
0000
0000
0E00
0E00
0E00
0E00
0E00
3EC0
76C0
6F80
0E00
0E00
0E00
0E00
0F80
0780
0000
0000
0000
0000
0000
ENDCHAR
STARTCHAR U+026C
ENCODING 620
SWIDTH 480 0
DWIDTH 12 0
BBX 12 24 0 -2
BITMAP
0000
0000
0000
0000
0000
0E00
0E00
0E00
0E00
7600
FE00
EE00
FFC0
7FC0
0E00
0E00
0E00
0F80
0780
0000
0000
0000
0000
0000
ENDCHAR
STARTCHAR U+026D
ENCODING 621
SWIDTH 480 0
DWIDTH 12 0
BBX 12 24 0 -2
BITMAP
0000
0000
0000
0000
0000
0E00
0E00
0E00
0E00
0E00
0E00
0E00
0E00
0E00
0E00
0E00
0E00
0E00
0E00
0E00
07C0
03C0
0000
0000
ENDCHAR
STARTCHAR U+026E
ENCODING 622
SWIDTH 480 0
DWIDTH 12 0
BBX 12 24 0 -2
BITMAP
0000
0000
0000
0000
0000
7000
7000
7000
7000
7FC0
7FC0
71C0
7380
7700
7780
77C0
71E0
7CE0
3CE0
00E0
01E0
1FC0
0F80
0000
ENDCHAR
STARTCHAR U+026F
ENCODING 623
SWIDTH 480 0
DWIDTH 12 0
BBX 12 24 0 -2
BITMAP
0000
0000
0000
0000
0000
0000
0000
0000
0000
EEE0
EEE0
EEE0
EEE0
EEE0
EEE0
EEE0
EEE0
FFE0
7B60
0000
0000
0000
0000
0000
ENDCHAR
STARTCHAR U+0270
ENCODING 624
SWIDTH 480 0
DWIDTH 12 0
BBX 12 24 0 -2
BITMAP
0000
0000
0000
0000
0000
0000
0000
0000
0000
EEE0
EEE0
EEE0
EEE0
EEE0
EEE0
EEE0
EEE0
FFE0
7B60
00E0
00E0
00E0
00E0
0000
ENDCHAR
STARTCHAR U+0271
ENCODING 625
SWIDTH 480 0
DWIDTH 12 0
BBX 12 24 0 -2
BITMAP
0000
0000
0000
0000
0000
0000
0000
0000
0000
EDC0
FFE0
EEE0
EEE0
EEE0
EEE0
EEE0
EEE0
EEE0
EEE0
00E0
03E0
03C0
0000
0000
ENDCHAR
STARTCHAR U+0272
ENCODING 626
SWIDTH 480 0
DWIDTH 12 0
BBX 12 24 0 -2
BITMAP
0000
0000
0000
0000
0000
0000
0000
0000
0000
3B80
3BC0
3EE0
3CE0
38E0
38E0
38E0
38E0
38E0
38E0
3800
3800
F800
F000
0000
ENDCHAR
STARTCHAR U+0273
ENCODING 627
SWIDTH 480 0
DWIDTH 12 0
BBX 12 24 0 -2
BITMAP
0000
0000
0000
0000
0000
0000
0000
0000
0000
EE00
EF00
FB80
F380
E380
E380
E380
E380
E380
E380
0380
0380
03E0
01E0
0000
ENDCHAR
STARTCHAR U+0274
ENCODING 628
SWIDTH 480 0
DWIDTH 12 0
BBX 12 24 0 -2
BITMAP
0000
0000
0000
0000
0000
0000
0000
0000
0000
70E0
70E0
78E0
7CE0
76E0
7760
73E0
71E0
70E0
70E0
0000
0000
0000
0000
0000
ENDCHAR
STARTCHAR U+0275
ENCODING 629
SWIDTH 480 0
DWIDTH 12 0
BBX 12 24 0 -2
BITMAP
0000
0000
0000
0000
0000
0000
0000
0000
0000
1F80
3FC0
79E0
70E0
7FE0
7FE0
70E0
79E0
3FC0
1F80
0000
0000
0000
0000
0000
ENDCHAR
STARTCHAR U+0276
ENCODING 630
SWIDTH 480 0
DWIDTH 12 0
BBX 12 24 0 -2
BITMAP
0000
0000
0000
0000
0000
0000
0000
0000
0000
7FE0
FFE0
EE00
EE00
EFC0
EFC0
EE00
EE00
FFE0
7FE0
0000
0000
0000
0000
0000
ENDCHAR
STARTCHAR U+0277
ENCODING 631
SWIDTH 480 0
DWIDTH 12 0
BBX 12 24 0 -2
BITMAP
0000
0000
0000
0000
0000
0000
0000
0000
0000
3F80
7FC0
E0E0
E0E0
EEE0
EEE0
EEE0
EEE0
7FC0
3B80
0000
0000
0000
0000
0000
ENDCHAR
STARTCHAR U+0278
ENCODING 632
SWIDTH 480 0
DWIDTH 12 0
BBX 12 24 0 -2
BITMAP
0000
0000
0000
0000
0000
0E00
0E00
0E00
0E00
3F80
7FC0
F6E0
EEE0
EEE0
EEE0
EEE0
F6E0
7FC0
3F80
0E00
0E00
0E00
0E00
0000
ENDCHAR
STARTCHAR U+0279
ENCODING 633
SWIDTH 480 0
DWIDTH 12 0
BBX 12 24 0 -2
BITMAP
0000
0000
0000
0000
0000
0000
0000
0000
0000
00E0
00E0
00E0
00E0
00E0
00E0
71E0
73E0
3F60
1EE0
0000
0000
0000
0000
0000
ENDCHAR
STARTCHAR U+027A
ENCODING 634
SWIDTH 480 0
DWIDTH 12 0
BBX 12 24 0 -2
BITMAP
0000
0000
0000
0000
0000
00E0
00E0
00E0
00E0
00E0
00E0
00E0
00E0
00E0
00E0
71E0
73E0
3F60
1EE0
0000
0000
0000
0000
0000
ENDCHAR
STARTCHAR U+027B
ENCODING 635
SWIDTH 480 0
DWIDTH 12 0
BBX 12 24 0 -2
BITMAP
0000
0000
0000
0000
0000
0000
0000
0000
0000
0380
0380
0380
0380
0380
0380
E780
EF80
7D80
39E0
00E0
0000
0000
0000
0000
ENDCHAR
STARTCHAR U+027C
ENCODING 636
SWIDTH 480 0
DWIDTH 12 0
BBX 12 24 0 -2
BITMAP
0000
0000
0000
0000
0000
7780
77C0
7CE0
78E0
7000
7000
7000
7000
7000
7000
7000
7000
7000
7000
0000
0000
0000
0000
0000
ENDCHAR
STARTCHAR U+027D
ENCODING 637
SWIDTH 480 0
DWIDTH 12 0
BBX 12 24 0 -2
BITMAP
0000
0000
0000
0000
0000
0000
0000
0000
0000
7780
77C0
7CE0
78E0
7000
7000
7000
7000
7000
7000
7000
3E00
1E00
0000
0000
ENDCHAR
STARTCHAR U+027E
ENCODING 638
SWIDTH 480 0
DWIDTH 12 0
BBX 12 24 0 -2
BITMAP
0000
0000
0000
0000
0000
0000
0000
0000
0000
1F00
3F80
71C0
71C0
7000
7000
7000
7000
7000
7000
0000
0000
0000
0000
0000
ENDCHAR
STARTCHAR U+027F
ENCODING 639
SWIDTH 480 0
DWIDTH 12 0
BBX 12 24 0 -2
BITMAP
0000
0000
0000
0000
0000
0000
0000
0000
0000
1F00
3F80
71C0
71C0
01C0
01C0
01C0
01C0
01C0
01C0
0000
0000
0000
0000
0000
ENDCHAR
STARTCHAR U+0280
ENCODING 640
SWIDTH 480 0
DWIDTH 12 0
BBX 12 24 0 -2
BITMAP
0000
0000
0000
0000
0000
0000
0000
0000
0000
7FC0
7FE0
70E0
70E0
7FE0
7FC0
7380
73C0
71E0
70E0
0000
0000
0000
0000
0000
ENDCHAR
STARTCHAR U+0281
ENCODING 641
SWIDTH 480 0
DWIDTH 12 0
BBX 12 24 0 -2
BITMAP
0000
0000
0000
0000
0000
0000
0000
0000
0000
70E0
71E0
73C0
7380
7FC0
7FE0
70E0
70E0
7FE0
7FC0
0000
0000
0000
0000
0000
ENDCHAR
STARTCHAR U+0282
ENCODING 642
SWIDTH 480 0
DWIDTH 12 0
BBX 12 24 0 -2
BITMAP
0000
0000
0000
0000
0000
0000
0000
0000
0000
3FC0
7FE0
7060
7000
3F80
1FC0
00E0
00E0
7FE0
7FC0
7000
7000
3E00
1E00
0000
ENDCHAR
STARTCHAR U+0283
ENCODING 643
SWIDTH 480 0
DWIDTH 12 0
BBX 12 24 0 -2
BITMAP
0000
0000
0000
0000
0000
03C0
07C0
0F00
0E00
0E00
0E00
0E00
0E00
0E00
0E00
0E00
0E00
0E00
0E00
0E00
1E00
7C00
7800
0000
ENDCHAR
STARTCHAR U+0284
ENCODING 644
SWIDTH 480 0
DWIDTH 12 0
BBX 12 24 0 -2
BITMAP
0000
0000
0000
0000
0000
03C0
07C0
0F00
0E00
0E00
7FC0
7FC0
0E00
0E00
0E00
0E00
7FC0
7FC0
0E00
0E00
1E00
7C00
7800
0000
ENDCHAR
STARTCHAR U+0285
ENCODING 645
SWIDTH 480 0
DWIDTH 12 0
BBX 12 24 0 -2
BITMAP
0000
0000
0000
0000
0000
0000
0000
0000
0000
7800
7C00
1E00
0E00
0E00
0E00
0E00
0E00
0E00
0E00
0E00
0F00
07C0
03C0
0000
ENDCHAR
STARTCHAR U+0286
ENCODING 646
SWIDTH 480 0
DWIDTH 12 0
BBX 12 24 0 -2
BITMAP
0000
0000
0000
0000
0000
01E0
03E0
0780
0700
0700
0700
0700
0700
0700
0700
0700
0700
3B00
7F00
7700
7780
7FE0
3CE0
0000
ENDCHAR
STARTCHAR U+0287
ENCODING 647
SWIDTH 480 0
DWIDTH 12 0
BBX 12 24 0 -2
BITMAP
0000
0000
0000
0000
0000
0000
3C00
3E00
0E00
0E00
0E00
0E00
0E00
0E00
3F80
3F80
0E00
0E00
0E00
0000
0000
0000
0000
0000
ENDCHAR
STARTCHAR U+0288
ENCODING 648
SWIDTH 480 0
DWIDTH 12 0
BBX 12 24 0 -2
BITMAP
0000
0000
0000
0000
0000
0000
0E00
0E00
0E00
3F80
3F80
0E00
0E00
0E00
0E00
0E00
0E00
0E00
0E00
0E00
07C0
03C0
0000
0000
ENDCHAR
STARTCHAR U+0289
ENCODING 649
SWIDTH 480 0
DWIDTH 12 0
BBX 12 24 0 -2
BITMAP
0000
0000
0000
0000
0000
0000
0000
0000
0000
71C0
71C0
71C0
FFE0
FFE0
71C0
71C0
7BC0
3FC0
1EC0
0000
0000
0000
0000
0000
ENDCHAR
STARTCHAR U+028A
ENCODING 650
SWIDTH 480 0
DWIDTH 12 0
BBX 12 24 0 -2
BITMAP
0000
0000
0000
0000
0000
0000
0000
0000
0000
7DE0
7DE0
1D80
1D80
39C0
70E0
70E0
79E0
3FC0
1F80
0000
0000
0000
0000
0000
ENDCHAR
STARTCHAR U+028B
ENCODING 651
SWIDTH 480 0
DWIDTH 12 0
BBX 12 24 0 -2
BITMAP
0000
0000
0000
0000
0000
0000
0000
0000
0000
79C0
79E0
38E0
38E0
38E0
39C0
39C0
3B80
3F80
1E00
0000
0000
0000
0000
0000
ENDCHAR
STARTCHAR U+028C
ENCODING 652
SWIDTH 480 0
DWIDTH 12 0
BBX 12 24 0 -2
BITMAP
0000
0000
0000
0000
0000
0000
0000
0000
0000
0F00
0F00
1D80
1D80
39C0
39C0
39C0
70E0
70E0
70E0
0000
0000
0000
0000
0000
ENDCHAR
STARTCHAR U+028D
ENCODING 653
SWIDTH 480 0
DWIDTH 12 0
BBX 12 24 0 -2
BITMAP
0000
0000
0000
0000
0000
0000
0000
0000
0000
39C0
39C0
39C0
3DC0
7760
7760
7760
76E0
70E0
70E0
0000
0000
0000
0000
0000
ENDCHAR
STARTCHAR U+028E
ENCODING 654
SWIDTH 480 0
DWIDTH 12 0
BBX 12 24 0 -2
BITMAP
0000
0000
0000
0000
0000
01C0
03C0
0380
0780
0700
0F00
0F00
1F80
1D80
3DC0
39C0
79E0
70E0
70E0
0000
0000
0000
0000
0000
ENDCHAR
STARTCHAR U+028F
ENCODING 655
SWIDTH 480 0
DWIDTH 12 0
BBX 12 24 0 -2
BITMAP
0000
0000
0000
0000
0000
0000
0000
0000
0000
E0E0
F1E0
7BC0
3F80
1F00
0E00
0E00
0E00
0E00
0E00
0000
0000
0000
0000
0000
ENDCHAR
STARTCHAR U+0290
ENCODING 656
SWIDTH 480 0
DWIDTH 12 0
BBX 12 24 0 -2
BITMAP
0000
0000
0000
0000
0000
0000
0000
0000
0000
7F80
7F80
0380
0700
0E00
1C00
3800
7000
7F80
7F80
0380
01E0
00E0
0000
0000
ENDCHAR
STARTCHAR U+0291
ENCODING 657
SWIDTH 480 0
DWIDTH 12 0
BBX 12 24 0 -2
BITMAP
0000
0000
0000
0000
0000
0000
0000
0000
0000
7FC0
7FC0
0380
0700
0E00
1C00
3BC0
7760
7F60
7FC0
0E00
1C00
0000
0000
0000
ENDCHAR
STARTCHAR U+0292
ENCODING 658
SWIDTH 480 0
DWIDTH 12 0
BBX 12 24 0 -2
BITMAP
0000
0000
0000
0000
0000
0000
0000
0000
0000
3F80
3F80
0380
0700
0E00
1F00
1F80
03C0
01C0
01C0
01C0
73C0
7F80
3F00
0000
ENDCHAR
STARTCHAR U+0293
ENCODING 659
SWIDTH 480 0
DWIDTH 12 0
BBX 12 24 0 -2
BITMAP
0000
0000
0000
0000
0000
0000
0000
0000
0000
3F80
3F80
0380
0700
0E00
1F00
1F80
03C0
01C0
3DC0
7EC0
7780
7FC0
3F40
0000
ENDCHAR
STARTCHAR U+0294
ENCODING 660
SWIDTH 480 0
DWIDTH 12 0
BBX 12 24 0 -2
BITMAP
0000
0000
0000
0000
0000
1E00
3F00
3B80
0380
0380
0380
0380
0780
0F00
0E00
0E00
0E00
0E00
0E00
0000
0000
0000
0000
0000
ENDCHAR
STARTCHAR U+0295
ENCODING 661
SWIDTH 480 0
DWIDTH 12 0
BBX 12 24 0 -2
BITMAP
0000
0000
0000
0000
0000
0F00
1F80
3B80
3800
3800
3800
3800
3C00
1E00
0E00
0E00
0E00
0E00
0E00
0000
0000
0000
0000
0000
ENDCHAR
STARTCHAR U+0296
ENCODING 662
SWIDTH 480 0
DWIDTH 12 0
BBX 12 24 0 -2
BITMAP
0000
0000
0000
0000
0000
0E00
0E00
0E00
0E00
0E00
0F00
0780
0380
0380
0380
0380
3B80
3F00
1E00
0000
0000
0000
0000
0000
ENDCHAR
STARTCHAR U+0297
ENCODING 663
SWIDTH 480 0
DWIDTH 12 0
BBX 12 24 0 -2
BITMAP
0000
0000
0000
0000
0000
1F00
3F80
7BC0
71C0
7000
7000
7000
7000
7000
7000
71C0
7BC0
3F80
1F00
0000
0000
0000
0000
0000
ENDCHAR
STARTCHAR U+0298
ENCODING 664
SWIDTH 480 0
DWIDTH 12 0
BBX 12 24 0 -2
BITMAP
0000
0000
0000
0000
0000
0000
0000
0000
0000
1F80
3FC0
79E0
70E0
7760
7760
70E0
79E0
3FC0
1F80
0000
0000
0000
0000
0000
ENDCHAR
STARTCHAR U+0299
ENCODING 665
SWIDTH 480 0
DWIDTH 12 0
BBX 12 24 0 -2
BITMAP
0000
0000
0000
0000
0000
0000
0000
0000
0000
7F00
7F80
71C0
71C0
7F80
7FC0
71E0
70E0
7FC0
7F80
0000
0000
0000
0000
0000
ENDCHAR
STARTCHAR U+029A
ENCODING 666
SWIDTH 480 0
DWIDTH 12 0
BBX 12 24 0 -2
BITMAP
0000
0000
0000
0000
0000
0000
0000
0000
0000
1F80
3FC0
70E0
70E0
3F60
3F60
70E0
70E0
3FC0
1F80
0000
0000
0000
0000
0000
ENDCHAR
STARTCHAR U+029B
ENCODING 667
SWIDTH 480 0
DWIDTH 12 0
BBX 12 24 0 -2
BITMAP
0000
0000
0000
0000
0000
0000
01E0
03E0
0380
3F80
7F80
F000
E000
E000
E7C0
E7C0
F1C0
7FC0
3F80
0000
0000
0000
0000
0000
ENDCHAR
STARTCHAR U+029C
ENCODING 668
SWIDTH 480 0
DWIDTH 12 0
BBX 12 24 0 -2
BITMAP
0000
0000
0000
0000
0000
0000
0000
0000
0000
70E0
70E0
70E0
70E0
7FE0
7FE0
70E0
70E0
70E0
70E0
0000
0000
0000
0000
0000
ENDCHAR
STARTCHAR U+029D
ENCODING 669
SWIDTH 480 0
DWIDTH 12 0
BBX 12 24 0 -2
BITMAP
0000
0000
0000
0000
0000
0700
0700
0000
0000
0700
0700
0700
0700
0700
0700
0700
0700
1FC0
3FC0
7700
7700
3E00
1C00
0000
ENDCHAR
STARTCHAR U+029E
ENCODING 670
SWIDTH 480 0
DWIDTH 12 0
BBX 12 24 0 -2
BITMAP
0000
0000
0000
0000
0000
0000
0000
0000
71C0
79C0
3DC0
1EC0
0FC0
07C0
0FC0
1EC0
3DC0
79C0
71C0
01C0
01C0
0000
0000
0000
ENDCHAR
STARTCHAR U+029F
ENCODING 671
SWIDTH 480 0
DWIDTH 12 0
BBX 12 24 0 -2
BITMAP
0000
0000
0000
0000
0000
0000
0000
0000
0000
7000
7000
7000
7000
7000
7000
7000
7000
7FE0
7FE0
0000
0000
0000
0000
0000
ENDCHAR
STARTCHAR U+02A0
ENCODING 672
SWIDTH 480 0
DWIDTH 12 0
BBX 12 24 0 -2
BITMAP
0000
0000
0000
0000
0000
0000
0000
00E0
01E0
3B80
7D80
F780
E780
E380
E380
E780
F780
7D80
3B80
0380
0380
0380
0380
0000
ENDCHAR
STARTCHAR U+02A1
ENCODING 673
SWIDTH 480 0
DWIDTH 12 0
BBX 12 24 0 -2
BITMAP
0000
0000
0000
0000
0000
1E00
3F00
3B80
0380
0380
0380
0380
0780
0F00
0E00
7FC0
7FC0
0E00
0E00
0000
0000
0000
0000
0000
ENDCHAR
STARTCHAR U+02A2
ENCODING 674
SWIDTH 480 0
DWIDTH 12 0
BBX 12 24 0 -2
BITMAP
0000
0000
0000
0000
0000
0F00
1F80
3B80
3800
3800
3800
3800
3C00
1E00
0E00
7FC0
7FC0
0E00
0E00
0000
0000
0000
0000
0000
ENDCHAR
STARTCHAR U+02A3
ENCODING 675
SWIDTH 480 0
DWIDTH 12 0
BBX 12 24 0 -2
BITMAP
0000
0000
0000
0000
0000
1C00
1C00
1C00
1C00
7FE0
FFE0
ECE0
ECE0
EDC0
EDC0
ED80
ED80
FFE0
77E0
0000
0000
0000
0000
0000
ENDCHAR
STARTCHAR U+02A4
ENCODING 676
SWIDTH 480 0
DWIDTH 12 0
BBX 12 24 0 -2
BITMAP
0000
0000
0000
0000
0000
1C00
1C00
1C00
1C00
7FC0
FFC0
EDC0
ED80
EF00
EFC0
EDE0
ECE0
FEE0
76E0
00E0
01E0
1FC0
0F80
0000
ENDCHAR
STARTCHAR U+02A5
ENCODING 677
SWIDTH 480 0
DWIDTH 12 0
BBX 12 24 0 -2
BITMAP
0000
0000
0000
0000
0000
1C00
1C00
1C00
1C00
7FE0
FFE0
ECE0
EDC0
ED80
EF80
EFE0
EF60
FFE0
77C0
0700
0E00
0000
0000
0000
ENDCHAR
STARTCHAR U+02A6
ENCODING 678
SWIDTH 480 0
DWIDTH 12 0
BBX 12 24 0 -2
BITMAP
0000
0000
0000
0000
0000
0000
7000
7000
7000
FFC0
FFE0
7660
7600
7780
73C0
70E0
70E0
7FE0
3FC0
0000
0000
0000
0000
0000
ENDCHAR
STARTCHAR U+02A7
ENCODING 679
SWIDTH 480 0
DWIDTH 12 0
BBX 12 24 0 -2
BITMAP
0000
0000
0000
0000
00E0
01E0
3B80
3B80
3B80
FF80
FF80
3B80
3B80
3B80
3B80
3B80
3B80
3F80
1F80
0380
0380
0F00
0E00
0000
ENDCHAR
STARTCHAR U+02A8
ENCODING 680
SWIDTH 480 0
DWIDTH 12 0
BBX 12 24 0 -2
BITMAP
0000
0000
0000
0000
0000
0000
7000
7000
7000
FBC0
FFE0
7660
7600
7600
76C0
77E0
7760
7FE0
3FC0
0000
0000
0000
0000
0000
ENDCHAR
STARTCHAR U+02B0
ENCODING 688
SWIDTH 480 0
DWIDTH 12 0
BBX 12 24 0 -2
BITMAP
3800
3800
3800
3B00
3F80
3D80
3B80
3B80
3B80
3B80
0000
0000
0000
0000
0000
0000
0000
0000
0000
0000
0000
0000
0000
0000
ENDCHAR
STARTCHAR U+02B1
ENCODING 689
SWIDTH 480 0
DWIDTH 12 0
BBX 12 24 0 -2
BITMAP
1E00
3E00
3800
3B00
3F80
3D80
3B80
3B80
3B80
3B80
0000
0000
0000
0000
0000
0000
0000
0000
0000
0000
0000
0000
0000
0000
ENDCHAR
STARTCHAR U+02B2
ENCODING 690
SWIDTH 480 0
DWIDTH 12 0
BBX 12 24 0 -2
BITMAP
0700
0700
0000
0700
0700
0700
0700
0700
1F00
1E00
0000
0000
0000
0000
0000
0000
0000
0000
0000
0000
0000
0000
0000
0000
ENDCHAR
STARTCHAR U+02B3
ENCODING 691
SWIDTH 480 0
DWIDTH 12 0
BBX 12 24 0 -2
BITMAP
3B00
3F80
3D80
3800
3800
3800
3800
3800
0000
0000
0000
0000
0000
0000
0000
0000
0000
0000
0000
0000
0000
0000
0000
0000
ENDCHAR
STARTCHAR U+02B4
ENCODING 692
SWIDTH 480 0
DWIDTH 12 0
BBX 12 24 0 -2
BITMAP
0380
0380
0380
0380
0380
3B80
3F80
1D80
0000
0000
0000
0000
0000
0000
0000
0000
0000
0000
0000
0000
0000
0000
0000
0000
ENDCHAR
STARTCHAR U+02B5
ENCODING 693
SWIDTH 480 0
DWIDTH 12 0
BBX 12 24 0 -2
BITMAP
0380
0380
0380
0380
0380
3B80
3F80
1D80
0380
03C0
01C0
0000
0000
0000
0000
0000
0000
0000
0000
0000
0000
0000
0000
0000
ENDCHAR
STARTCHAR U+02B6
ENCODING 694
SWIDTH 480 0
DWIDTH 12 0
BBX 12 24 0 -2
BITMAP
39C0
3B80
3B80
3B00
3F00
3F00
3B80
3B80
3F80
3F00
0000
0000
0000
0000
0000
0000
0000
0000
0000
0000
0000
0000
0000
0000
ENDCHAR
STARTCHAR U+02B7
ENCODING 695
SWIDTH 480 0
DWIDTH 12 0
BBX 12 24 0 -2
BITMAP
7380
7380
7580
7580
3F00
3F00
3B00
3B00
0000
0000
0000
0000
0000
0000
0000
0000
0000
0000
0000
0000
0000
0000
0000
0000
ENDCHAR
STARTCHAR U+02B8
ENCODING 696
SWIDTH 480 0
DWIDTH 12 0
BBX 12 24 0 -2
BITMAP
3B80
3B80
3B80
3B80
3B80
3F80
1D80
0380
3F80
1F00
0000
0000
0000
0000
0000
0000
0000
0000
0000
0000
0000
0000
0000
0000
ENDCHAR
STARTCHAR U+02B9
ENCODING 697
SWIDTH 480 0
DWIDTH 12 0
BBX 12 24 0 -2
BITMAP
0000
0000
0700
0700
0F00
0E00
1C00
1C00
3800
3000
0000
0000
0000
0000
0000
0000
0000
0000
0000
0000
0000
0000
0000
0000
ENDCHAR
STARTCHAR U+02BA
ENCODING 698
SWIDTH 480 0
DWIDTH 12 0
BBX 12 24 0 -2
BITMAP
0000
0000
1DC0
1DC0
3DC0
3B80
7700
7700
EE00
CC00
0000
0000
0000
0000
0000
0000
0000
0000
0000
0000
0000
0000
0000
0000
ENDCHAR
STARTCHAR U+02BB
ENCODING 699
SWIDTH 480 0
DWIDTH 12 0
BBX 12 24 0 -2
BITMAP
0000
0000
0000
0000
0700
0E00
1C00
1C00
1F00
1F00
0E00
0000
0000
0000
0000
0000
0000
0000
0000
0000
0000
0000
0000
0000
ENDCHAR
STARTCHAR U+02BC
ENCODING 700
SWIDTH 480 0
DWIDTH 12 0
BBX 12 24 0 -2
BITMAP
0000
0000
0000
0000
0E00
1F00
1F00
0700
0700
0E00
1C00
0000
0000
0000
0000
0000
0000
0000
0000
0000
0000
0000
0000
0000
ENDCHAR
STARTCHAR U+02BD
ENCODING 701
SWIDTH 480 0
DWIDTH 12 0
BBX 12 24 0 -2
BITMAP
0000
0000
0000
0000
0E00
1F00
1F00
1C00
1C00
0E00
0700
0000
0000
0000
0000
0000
0000
0000
0000
0000
0000
0000
0000
0000
ENDCHAR
STARTCHAR U+02BE
ENCODING 702
SWIDTH 480 0
DWIDTH 12 0
BBX 12 24 0 -2
BITMAP
0000
0000
0700
0380
0380
0700
0000
0000
0000
0000
0000
0000
0000
0000
0000
0000
0000
0000
0000
0000
0000
0000
0000
0000
ENDCHAR
STARTCHAR U+02BF
ENCODING 703
SWIDTH 480 0
DWIDTH 12 0
BBX 12 24 0 -2
BITMAP
0000
0000
1C00
3800
3800
1C00
0000
0000
0000
0000
0000
0000
0000
0000
0000
0000
0000
0000
0000
0000
0000
0000
0000
0000
ENDCHAR
STARTCHAR U+02C0
ENCODING 704
SWIDTH 480 0
DWIDTH 12 0
BBX 12 24 0 -2
BITMAP
0000
1F00
1D80
0380
0380
0780
0E00
0E00
0000
0000
0000
0000
0000
0000
0000
0000
0000
0000
0000
0000
0000
0000
0000
0000
ENDCHAR
STARTCHAR U+02C1
ENCODING 705
SWIDTH 480 0
DWIDTH 12 0
BBX 12 24 0 -2
BITMAP
0000
0F80
1D80
1C00
1C00
1E00
0700
0700
0000
0000
0000
0000
0000
0000
0000
0000
0000
0000
0000
0000
0000
0000
0000
0000
ENDCHAR
STARTCHAR U+02C2
ENCODING 706
SWIDTH 480 0
DWIDTH 12 0
BBX 12 24 0 -2
BITMAP
01C0
07C0
1F00
7C00
7C00
1F00
07C0
01C0
0000
0000
0000
0000
0000
0000
0000
0000
0000
0000
0000
0000
0000
0000
0000
0000
ENDCHAR
STARTCHAR U+02C3
ENCODING 707
SWIDTH 480 0
DWIDTH 12 0
BBX 12 24 0 -2
BITMAP
7000
7C00
1F00
07C0
07C0
1F00
7C00
7000
0000
0000
0000
0000
0000
0000
0000
0000
0000
0000
0000
0000
0000
0000
0000
0000
ENDCHAR
STARTCHAR U+02C4
ENCODING 708
SWIDTH 480 0
DWIDTH 12 0
BBX 12 24 0 -2
BITMAP
0E00
0E00
1F00
1F00
3B80
3B80
71C0
71C0
0000
0000
0000
0000
0000
0000
0000
0000
0000
0000
0000
0000
0000
0000
0000
0000
ENDCHAR
STARTCHAR U+02C5
ENCODING 709
SWIDTH 480 0
DWIDTH 12 0
BBX 12 24 0 -2
BITMAP
71C0
71C0
3B80
3B80
1F00
1F00
0E00
0E00
0000
0000
0000
0000
0000
0000
0000
0000
0000
0000
0000
0000
0000
0000
0000
0000
ENDCHAR
STARTCHAR U+02C6
ENCODING 710
SWIDTH 480 0
DWIDTH 12 0
BBX 12 24 0 -2
BITMAP
0F00
1F80
39C0
0000
0000
0000
0000
0000
0000
0000
0000
0000
0000
0000
0000
0000
0000
0000
0000
0000
0000
0000
0000
0000
ENDCHAR
STARTCHAR U+02C7
ENCODING 711
SWIDTH 480 0
DWIDTH 12 0
BBX 12 24 0 -2
BITMAP
3B80
1F00
0E00
0000
0000
0000
0000
0000
0000
0000
0000
0000
0000
0000
0000
0000
0000
0000
0000
0000
0000
0000
0000
0000
ENDCHAR
STARTCHAR U+02C8
ENCODING 712
SWIDTH 480 0
DWIDTH 12 0
BBX 12 24 0 -2
BITMAP
0E00
0E00
0E00
0E00
0000
0000
0000
0000
0000
0000
0000
0000
0000
0000
0000
0000
0000
0000
0000
0000
0000
0000
0000
0000
ENDCHAR
STARTCHAR U+02C9
ENCODING 713
SWIDTH 480 0
DWIDTH 12 0
BBX 12 24 0 -2
BITMAP
0000
3FC0
3FC0
0000
0000
0000
0000
0000
0000
0000
0000
0000
0000
0000
0000
0000
0000
0000
0000
0000
0000
0000
0000
0000
ENDCHAR
STARTCHAR U+02CA
ENCODING 714
SWIDTH 480 0
DWIDTH 12 0
BBX 12 24 0 -2
BITMAP
0000
0700
0F00
1C00
0000
0000
0000
0000
0000
0000
0000
0000
0000
0000
0000
0000
0000
0000
0000
0000
0000
0000
0000
0000
ENDCHAR
STARTCHAR U+02CB
ENCODING 715
SWIDTH 480 0
DWIDTH 12 0
BBX 12 24 0 -2
BITMAP
0000
1C00
1E00
0700
0000
0000
0000
0000
0000
0000
0000
0000
0000
0000
0000
0000
0000
0000
0000
0000
0000
0000
0000
0000
ENDCHAR
STARTCHAR U+02CC
ENCODING 716
SWIDTH 480 0
DWIDTH 12 0
BBX 12 24 0 -2
BITMAP
0000
0000
0000
0000
0000
0000
0000
0000
0000
0000
0000
0000
0000
0000
0000
0000
0000
0000
0000
0E00
0E00
0E00
0E00
0000
ENDCHAR
STARTCHAR U+02CD
ENCODING 717
SWIDTH 480 0
DWIDTH 12 0
BBX 12 24 0 -2
BITMAP
0000
0000
0000
0000
0000
0000
0000
0000
0000
0000
0000
0000
0000
0000
0000
0000
0000
0000
0000
0000
0000
3FC0
3FC0
0000
ENDCHAR
STARTCHAR U+02CE
ENCODING 718
SWIDTH 480 0
DWIDTH 12 0
BBX 12 24 0 -2
BITMAP
0000
0000
0000
0000
0000
0000
0000
0000
0000
0000
0000
0000
0000
0000
0000
0000
0000
0000
0000
0000
1C00
1E00
0700
0000
ENDCHAR
STARTCHAR U+02CF
ENCODING 719
SWIDTH 480 0
DWIDTH 12 0
BBX 12 24 0 -2
BITMAP
0000
0000
0000
0000
0000
0000
0000
0000
0000
0000
0000
0000
0000
0000
0000
0000
0000
0000
0000
0000
0700
0F00
1C00
0000
ENDCHAR
STARTCHAR U+02D0
ENCODING 720
SWIDTH 480 0
DWIDTH 12 0
BBX 12 24 0 -2
BITMAP
0000
0000
0000
0000
0000
0000
0000
0000
1F80
0F00
0F00
0600
0000
0000
0000
0600
0F00
0F00
1F80
0000
0000
0000
0000
0000
ENDCHAR
STARTCHAR U+02D1
ENCODING 721
SWIDTH 480 0
DWIDTH 12 0
BBX 12 24 0 -2
BITMAP
0000
0000
0000
0000
0000
0000
0000
0000
0000
0000
1F80
0F00
0F00
0600
0000
0000
0000
0000
0000
0000
0000
0000
0000
0000
ENDCHAR
STARTCHAR U+02D2
ENCODING 722
SWIDTH 480 0
DWIDTH 12 0
BBX 12 24 0 -2
BITMAP
0000
0000
0000
0000
0000
0000
0000
0000
0000
0000
0000
0700
0380
0380
0700
0000
0000
0000
0000
0000
0000
0000
0000
0000
ENDCHAR
STARTCHAR U+02D3
ENCODING 723
SWIDTH 480 0
DWIDTH 12 0
BBX 12 24 0 -2
BITMAP
0000
0000
0000
0000
0000
0000
0000
0000
0000
0000
0000
1C00
3800
3800
1C00
0000
0000
0000
0000
0000
0000
0000
0000
0000
ENDCHAR
STARTCHAR U+02D4
ENCODING 724
SWIDTH 480 0
DWIDTH 12 0
BBX 12 24 0 -2
BITMAP
0000
0000
0000
0000
0000
0000
0000
0000
0000
0000
0000
0E00
0E00
3F80
3F80
0000
0000
0000
0000
0000
0000
0000
0000
0000
ENDCHAR
STARTCHAR U+02D5
ENCODING 725
SWIDTH 480 0
DWIDTH 12 0
BBX 12 24 0 -2
BITMAP
0000
0000
0000
0000
0000
0000
0000
0000
0000
0000
0000
0000
0000
3F80
3F80
0E00
0E00
0000
0000
0000
0000
0000
0000
0000
ENDCHAR
STARTCHAR U+02D6
ENCODING 726
SWIDTH 480 0
DWIDTH 12 0
BBX 12 24 0 -2
BITMAP
0000
0000
0000
0000
0000
0000
0000
0000
0000
0000
0000
0E00
0E00
3F80
3F80
0E00
0E00
0000
0000
0000
0000
0000
0000
0000
ENDCHAR
STARTCHAR U+02D7
ENCODING 727
SWIDTH 480 0
DWIDTH 12 0
BBX 12 24 0 -2
BITMAP
0000
0000
0000
0000
0000
0000
0000
0000
0000
0000
0000
0000
0000
3F80
3F80
0000
0000
0000
0000
0000
0000
0000
0000
0000
ENDCHAR
STARTCHAR U+02D8
ENCODING 728
SWIDTH 480 0
DWIDTH 12 0
BBX 12 24 0 -2
BITMAP
39C0
39C0
1F80
0000
0000
0000
0000
0000
0000
0000
0000
0000
0000
0000
0000
0000
0000
0000
0000
0000
0000
0000
0000
0000
ENDCHAR
STARTCHAR U+02D9
ENCODING 729
SWIDTH 480 0
DWIDTH 12 0
BBX 12 24 0 -2
BITMAP
0000
0E00
0E00
0000
0000
0000
0000
0000
0000
0000
0000
0000
0000
0000
0000
0000
0000
0000
0000
0000
0000
0000
0000
0000
ENDCHAR
STARTCHAR U+02DA
ENCODING 730
SWIDTH 480 0
DWIDTH 12 0
BBX 12 24 0 -2
BITMAP
0F00
1D80
1D80
0F00
0000
0000
0000
0000
0000
0000
0000
0000
0000
0000
0000
0000
0000
0000
0000
0000
0000
0000
0000
0000
ENDCHAR
STARTCHAR U+02DB
ENCODING 731
SWIDTH 480 0
DWIDTH 12 0
BBX 12 24 0 -2
BITMAP
0000
0000
0000
0000
0000
0000
0000
0000
0000
0000
0000
0000
0000
0000
0000
0000
0000
0000
0000
01F0
03C0
0700
07E0
03E0
ENDCHAR
STARTCHAR U+02DC
ENCODING 732
SWIDTH 480 0
DWIDTH 12 0
BBX 12 24 0 -2
BITMAP
3CC0
76C0
6780
0000
0000
0000
0000
0000
0000
0000
0000
0000
0000
0000
0000
0000
0000
0000
0000
0000
0000
0000
0000
0000
ENDCHAR
STARTCHAR U+02DD
ENCODING 733
SWIDTH 480 0
DWIDTH 12 0
BBX 12 24 0 -2
BITMAP
1CE0
3DE0
7380
0000
0000
0000
0000
0000
0000
0000
0000
0000
0000
0000
0000
0000
0000
0000
0000
0000
0000
0000
0000
0000
ENDCHAR
STARTCHAR U+0300
ENCODING 768
SWIDTH 480 0
DWIDTH 12 0
BBX 12 24 0 -2
BITMAP
0000
1C00
1E00
0700
0000
0000
0000
0000
0000
0000
0000
0000
0000
0000
0000
0000
0000
0000
0000
0000
0000
0000
0000
0000
ENDCHAR
STARTCHAR U+0301
ENCODING 769
SWIDTH 480 0
DWIDTH 12 0
BBX 12 24 0 -2
BITMAP
0000
0700
0F00
1C00
0000
0000
0000
0000
0000
0000
0000
0000
0000
0000
0000
0000
0000
0000
0000
0000
0000
0000
0000
0000
ENDCHAR
STARTCHAR U+0302
ENCODING 770
SWIDTH 480 0
DWIDTH 12 0
BBX 12 24 0 -2
BITMAP
0000
0600
0F00
1D80
39C0
70E0
0000
0000
0000
0000
0000
0000
0000
0000
0000
0000
0000
0000
0000
0000
0000
0000
0000
0000
ENDCHAR
STARTCHAR U+0303
ENCODING 771
SWIDTH 480 0
DWIDTH 12 0
BBX 12 24 0 -2
BITMAP
0000
3CC0
76C0
6780
0000
0000
0000
0000
0000
0000
0000
0000
0000
0000
0000
0000
0000
0000
0000
0000
0000
0000
0000
0000
ENDCHAR
STARTCHAR U+0304
ENCODING 772
SWIDTH 480 0
DWIDTH 12 0
BBX 12 24 0 -2
BITMAP
0000
7FC0
7FC0
0000
0000
0000
0000
0000
0000
0000
0000
0000
0000
0000
0000
0000
0000
0000
0000
0000
0000
0000
0000
0000
ENDCHAR
STARTCHAR U+0305
ENCODING 773
SWIDTH 480 0
DWIDTH 12 0
BBX 12 24 0 -2
BITMAP
0000
FFF0
FFF0
0000
0000
0000
0000
0000
0000
0000
0000
0000
0000
0000
0000
0000
0000
0000
0000
0000
0000
0000
0000
0000
ENDCHAR
STARTCHAR U+0306
ENCODING 774
SWIDTH 480 0
DWIDTH 12 0
BBX 12 24 0 -2
BITMAP
0000
39C0
39C0
1F80
0000
0000
0000
0000
0000
0000
0000
0000
0000
0000
0000
0000
0000
0000
0000
0000
0000
0000
0000
0000
ENDCHAR
STARTCHAR U+0307
ENCODING 775
SWIDTH 480 0
DWIDTH 12 0
BBX 12 24 0 -2
BITMAP
0000
0E00
0E00
0000
0000
0000
0000
0000
0000
0000
0000
0000
0000
0000
0000
0000
0000
0000
0000
0000
0000
0000
0000
0000
ENDCHAR
STARTCHAR U+0308
ENCODING 776
SWIDTH 480 0
DWIDTH 12 0
BBX 12 24 0 -2
BITMAP
0000
39C0
39C0
0000
0000
0000
0000
0000
0000
0000
0000
0000
0000
0000
0000
0000
0000
0000
0000
0000
0000
0000
0000
0000
ENDCHAR
STARTCHAR U+0309
ENCODING 777
SWIDTH 480 0
DWIDTH 12 0
BBX 12 24 0 -2
BITMAP
0000
1E00
1B00
0700
0E00
0E00
0000
0000
0000
0000
0000
0000
0000
0000
0000
0000
0000
0000
0000
0000
0000
0000
0000
0000
ENDCHAR
STARTCHAR U+030A
ENCODING 778
SWIDTH 480 0
DWIDTH 12 0
BBX 12 24 0 -2
BITMAP
0000
0F00
1D80
1D80
0F00
0000
0000
0000
0000
0000
0000
0000
0000
0000
0000
0000
0000
0000
0000
0000
0000
0000
0000
0000
ENDCHAR
STARTCHAR U+030B
ENCODING 779
SWIDTH 480 0
DWIDTH 12 0
BBX 12 24 0 -2
BITMAP
0000
1CE0
3DE0
7380
0000
0000
0000
0000
0000
0000
0000
0000
0000
0000
0000
0000
0000
0000
0000
0000
0000
0000
0000
0000
ENDCHAR
STARTCHAR U+030C
ENCODING 780
SWIDTH 480 0
DWIDTH 12 0
BBX 12 24 0 -2
BITMAP
0000
70E0
39C0
1D80
0F00
0600
0000
0000
0000
0000
0000
0000
0000
0000
0000
0000
0000
0000
0000
0000
0000
0000
0000
0000
ENDCHAR
STARTCHAR U+030D
ENCODING 781
SWIDTH 480 0
DWIDTH 12 0
BBX 12 24 0 -2
BITMAP
0C00
0E00
0E00
0E00
0E00
0600
0000
0000
0000
0000
0000
0000
0000
0000
0000
0000
0000
0000
0000
0000
0000
0000
0000
0000
ENDCHAR
STARTCHAR U+030E
ENCODING 782
SWIDTH 480 0
DWIDTH 12 0
BBX 12 24 0 -2
BITMAP
3300
3B80
3B80
3B80
3B80
1980
0000
0000
0000
0000
0000
0000
0000
0000
0000
0000
0000
0000
0000
0000
0000
0000
0000
0000
ENDCHAR
STARTCHAR U+030F
ENCODING 783
SWIDTH 480 0
DWIDTH 12 0
BBX 12 24 0 -2
BITMAP
0000
7380
7BC0
1CE0
0000
0000
0000
0000
0000
0000
0000
0000
0000
0000
0000
0000
0000
0000
0000
0000
0000
0000
0000
0000
ENDCHAR
STARTCHAR U+0310
ENCODING 784
SWIDTH 480 0
DWIDTH 12 0
BBX 12 24 0 -2
BITMAP
0000
0E00
6EC0
71C0
3F80
0E00
0000
0000
0000
0000
0000
0000
0000
0000
0000
0000
0000
0000
0000
0000
0000
0000
0000
0000
ENDCHAR
STARTCHAR U+0311
ENCODING 785
SWIDTH 480 0
DWIDTH 12 0
BBX 12 24 0 -2
BITMAP
0000
1F80
39C0
39C0
0000
0000
0000
0000
0000
0000
0000
0000
0000
0000
0000
0000
0000
0000
0000
0000
0000
0000
0000
0000
ENDCHAR
STARTCHAR U+0312
ENCODING 786
SWIDTH 480 0
DWIDTH 12 0
BBX 12 24 0 -2
BITMAP
0000
0000
0000
0000
0700
0E00
1C00
1C00
1F00
1F00
0E00
0000
0000
0000
0000
0000
0000
0000
0000
0000
0000
0000
0000
0000
ENDCHAR
STARTCHAR U+0313
ENCODING 787
SWIDTH 480 0
DWIDTH 12 0
BBX 12 24 0 -2
BITMAP
0000
0000
0000
1E00
1E00
0600
0E00
1C00
0000
0000
0000
0000
0000
0000
0000
0000
0000
0000
0000
0000
0000
0000
0000
0000
ENDCHAR
STARTCHAR U+0314
ENCODING 788
SWIDTH 480 0
DWIDTH 12 0
BBX 12 24 0 -2
BITMAP
0000
0000
0000
1E00
1E00
1800
1C00
0E00
0000
0000
0000
0000
0000
0000
0000
0000
0000
0000
0000
0000
0000
0000
0000
0000
ENDCHAR
STARTCHAR U+0315
ENCODING 789
SWIDTH 480 0
DWIDTH 12 0
BBX 12 24 0 -2
BITMAP
0000
0000
0000
0000
00E0
01F0
01F0
0070
0070
00E0
01C0
0000
0000
0000
0000
0000
0000
0000
0000
0000
0000
0000
0000
0000
ENDCHAR
STARTCHAR U+0316
ENCODING 790
SWIDTH 480 0
DWIDTH 12 0
BBX 12 24 0 -2
BITMAP
0000
0000
0000
0000
0000
0000
0000
0000
0000
0000
0000
0000
0000
0000
0000
0000
0000
0000
0000
0000
1C00
1E00
0700
0000
ENDCHAR
STARTCHAR U+0317
ENCODING 791
SWIDTH 480 0
DWIDTH 12 0
BBX 12 24 0 -2
BITMAP
0000
0000
0000
0000
0000
0000
0000
0000
0000
0000
0000
0000
0000
0000
0000
0000
0000
0000
0000
0000
0700
0F00
1C00
0000
ENDCHAR
STARTCHAR U+0318
ENCODING 792
SWIDTH 480 0
DWIDTH 12 0
BBX 12 24 0 -2
BITMAP
0000
0000
0000
0000
0000
0000
0000
0000
0000
0000
0000
0000
0000
0000
0000
0000
0000
0380
0380
3F80
3F80
0380
0380
0000
ENDCHAR
STARTCHAR U+0319
ENCODING 793
SWIDTH 480 0
DWIDTH 12 0
BBX 12 24 0 -2
BITMAP
0000
0000
0000
0000
0000
0000
0000
0000
0000
0000
0000
0000
0000
0000
0000
0000
0000
3800
3800
3F80
3F80
3800
3800
0000
ENDCHAR
STARTCHAR U+031A
ENCODING 794
SWIDTH 480 0
DWIDTH 12 0
BBX 12 24 0 -2
BITMAP
0000
7FC0
7FC0
01C0
01C0
01C0
0000
0000
0000
0000
0000
0000
0000
0000
0000
0000
0000
0000
0000
0000
0000
0000
0000
0000
ENDCHAR
STARTCHAR U+031B
ENCODING 795
SWIDTH 480 0
DWIDTH 12 0
BBX 12 24 0 -2
BITMAP
0000
0000
0000
00E0
00E0
03E0
01C0
0000
0000
0000
0000
0000
0000
0000
0000
0000
0000
0000
0000
0000
0000
0000
0000
0000
ENDCHAR
STARTCHAR U+031C
ENCODING 796
SWIDTH 480 0
DWIDTH 12 0
BBX 12 24 0 -2
BITMAP
0000
0000
0000
0000
0000
0000
0000
0000
0000
0000
0000
0000
0000
0000
0000
0000
0000
0000
0000
1E00
3800
3800
1E00
0000
ENDCHAR
STARTCHAR U+031D
ENCODING 797
SWIDTH 480 0
DWIDTH 12 0
BBX 12 24 0 -2
BITMAP
0000
0000
0000
0000
0000
0000
0000
0000
0000
0000
0000
0000
0000
0000
0000
0000
0000
0E00
0E00
0E00
0E00
3F80
3F80
0000
ENDCHAR
STARTCHAR U+031E
ENCODING 798
SWIDTH 480 0
DWIDTH 12 0
BBX 12 24 0 -2
BITMAP
0000
0000
0000
0000
0000
0000
0000
0000
0000
0000
0000
0000
0000
0000
0000
0000
0000
3F80
3F80
0E00
0E00
0E00
0E00
0000
ENDCHAR
STARTCHAR U+031F
ENCODING 799
SWIDTH 480 0
DWIDTH 12 0
BBX 12 24 0 -2
BITMAP
0000
0000
0000
0000
0000
0000
0000
0000
0000
0000
0000
0000
0000
0000
0000
0000
0000
0E00
0E00
3F80
3F80
0E00
0E00
0000
ENDCHAR
STARTCHAR U+0320
ENCODING 800
SWIDTH 480 0
DWIDTH 12 0
BBX 12 24 0 -2
BITMAP
0000
0000
0000
0000
0000
0000
0000
0000
0000
0000
0000
0000
0000
0000
0000
0000
0000
0000
0000
0000
0000
3F80
3F80
0000
ENDCHAR
STARTCHAR U+0321
ENCODING 801
SWIDTH 480 0
DWIDTH 12 0
BBX 12 24 0 -2
BITMAP
0000
0000
0000
0000
0000
0000
0000
0000
0000
0000
0000
0000
0000
0000
0000
0000
00E0
00E0
00E0
00E0
0760
03E0
01C0
0000
ENDCHAR
STARTCHAR U+0322
ENCODING 802
SWIDTH 480 0
DWIDTH 12 0
BBX 12 24 0 -2
BITMAP
0000
0000
0000
0000
0000
0000
0000
0000
0000
0000
0000
0000
0000
0000
0000
0000
0380
0380
0380
0380
0380
03F0
01E0
0000
ENDCHAR
STARTCHAR U+0323
ENCODING 803
SWIDTH 480 0
DWIDTH 12 0
BBX 12 24 0 -2
BITMAP
0000
0000
0000
0000
0000
0000
0000
0000
0000
0000
0000
0000
0000
0000
0000
0000
0000
0000
0000
0000
0000
0E00
0E00
0000
ENDCHAR
STARTCHAR U+0324
ENCODING 804
SWIDTH 480 0
DWIDTH 12 0
BBX 12 24 0 -2
BITMAP
0000
0000
0000
0000
0000
0000
0000
0000
0000
0000
0000
0000
0000
0000
0000
0000
0000
0000
0000
0000
0000
39C0
39C0
0000
ENDCHAR
STARTCHAR U+0325
ENCODING 805
SWIDTH 480 0
DWIDTH 12 0
BBX 12 24 0 -2
BITMAP
0000
0000
0000
0000
0000
0000
0000
0000
0000
0000
0000
0000
0000
0000
0000
0000
0000
0000
0000
0F00
1D80
1D80
0F00
0000
ENDCHAR
STARTCHAR U+0326
ENCODING 806
SWIDTH 480 0
DWIDTH 12 0
BBX 12 24 0 -2
BITMAP
0000
0000
0000
0000
0000
0000
0000
0000
0000
0000
0000
0000
0000
0000
0000
0000
0000
0000
1E00
1E00
0600
0E00
1C00
0000
ENDCHAR
STARTCHAR U+0327
ENCODING 807
SWIDTH 480 0
DWIDTH 12 0
BBX 12 24 0 -2
BITMAP
0000
0000
0000
0000
0000
0000
0000
0000
0000
0000
0000
0000
0000
0000
0000
0000
0000
0000
0E00
0E00
0F00
0380
1F80
1F00
ENDCHAR
STARTCHAR U+0328
ENCODING 808
SWIDTH 480 0
DWIDTH 12 0
BBX 12 24 0 -2
BITMAP
0000
0000
0000
0000
0000
0000
0000
0000
0000
0000
0000
0000
0000
0000
0000
0000
0000
0000
0380
0700
0700
07E0
03C0
0000
ENDCHAR
STARTCHAR U+0329
ENCODING 809
SWIDTH 480 0
DWIDTH 12 0
BBX 12 24 0 -2
BITMAP
0000
0000
0000
0000
0000
0000
0000
0000
0000
0000
0000
0000
0000
0000
0000
0000
0000
0000
0000
0E00
0E00
0E00
0E00
0000
ENDCHAR
STARTCHAR U+032A
ENCODING 810
SWIDTH 480 0
DWIDTH 12 0
BBX 12 24 0 -2
BITMAP
0000
0000
0000
0000
0000
0000
0000
0000
0000
0000
0000
0000
0000
0000
0000
0000
0000
0000
0000
7FC0
7FC0
71C0
71C0
0000
ENDCHAR
STARTCHAR U+032B
ENCODING 811
SWIDTH 480 0
DWIDTH 12 0
BBX 12 24 0 -2
BITMAP
0000
0000
0000
0000
0000
0000
0000
0000
0000
0000
0000
0000
0000
0000
0000
0000
0000
0000
EEE0
EEE0
EEE0
7FC0
3B80
0000
ENDCHAR
STARTCHAR U+032C
ENCODING 812
SWIDTH 480 0
DWIDTH 12 0
BBX 12 24 0 -2
BITMAP
0000
0000
0000
0000
0000
0000
0000
0000
0000
0000
0000
0000
0000
0000
0000
0000
0000
0000
70E0
39C0
1D80
0F00
0600
0000
ENDCHAR
STARTCHAR U+032D
ENCODING 813
SWIDTH 480 0
DWIDTH 12 0
BBX 12 24 0 -2
BITMAP
0000
0000
0000
0000
0000
0000
0000
0000
0000
0000
0000
0000
0000
0000
0000
0000
0000
0000
0600
0F00
1D80
39C0
70E0
0000
ENDCHAR
STARTCHAR U+032E
ENCODING 814
SWIDTH 480 0
DWIDTH 12 0
BBX 12 24 0 -2
BITMAP
0000
0000
0000
0000
0000
0000
0000
0000
0000
0000
0000
0000
0000
0000
0000
0000
0000
0000
0000
0000
39C0
39C0
1F80
0000
ENDCHAR
STARTCHAR U+032F
ENCODING 815
SWIDTH 480 0
DWIDTH 12 0
BBX 12 24 0 -2
BITMAP
0000
0000
0000
0000
0000
0000
0000
0000
0000
0000
0000
0000
0000
0000
0000
0000
0000
0000
0000
0000
1F80
39C0
39C0
0000
ENDCHAR
STARTCHAR U+0330
ENCODING 816
SWIDTH 480 0
DWIDTH 12 0
BBX 12 24 0 -2
BITMAP
0000
0000
0000
0000
0000
0000
0000
0000
0000
0000
0000
0000
0000
0000
0000
0000
0000
0000
0000
0000
0000
3C60
76E0
67C0
ENDCHAR
STARTCHAR U+0331
ENCODING 817
SWIDTH 480 0
DWIDTH 12 0
BBX 12 24 0 -2
BITMAP
0000
0000
0000
0000
0000
0000
0000
0000
0000
0000
0000
0000
0000
0000
0000
0000
0000
0000
0000
0000
0000
7FC0
7FC0
0000
ENDCHAR
STARTCHAR U+0332
ENCODING 818
SWIDTH 480 0
DWIDTH 12 0
BBX 12 24 0 -2
BITMAP
0000
0000
0000
0000
0000
0000
0000
0000
0000
0000
0000
0000
0000
0000
0000
0000
0000
0000
0000
0000
FFF0
FFF0
0000
0000
ENDCHAR
STARTCHAR U+0333
ENCODING 819
SWIDTH 480 0
DWIDTH 12 0
BBX 12 24 0 -2
BITMAP
0000
0000
0000
0000
0000
0000
0000
0000
0000
0000
0000
0000
0000
0000
0000
0000
0000
0000
7FE0
7FE0
0000
7FE0
7FE0
0000
ENDCHAR
STARTCHAR U+0334
ENCODING 820
SWIDTH 480 0
DWIDTH 12 0
BBX 12 24 0 -2
BITMAP
0000
0000
0000
0000
0000
0000
0000
0000
0000
0000
7C60
EE60
CF60
C7C0
0000
0000
0000
0000
0000
0000
0000
0000
0000
0000
ENDCHAR
STARTCHAR U+0335
ENCODING 821
SWIDTH 480 0
DWIDTH 12 0
BBX 12 24 0 -2
BITMAP
0000
0000
0000
0000
0000
0000
0000
0000
0000
0000
0000
7FC0
7FC0
0000
0000
0000
0000
0000
0000
0000
0000
0000
0000
0000
ENDCHAR
STARTCHAR U+0336
ENCODING 822
SWIDTH 480 0
DWIDTH 12 0
BBX 12 24 0 -2
BITMAP
0000
0000
0000
0000
0000
0000
0000
0000
0000
0000
0000
FFF0
FFF0
0000
0000
0000
0000
0000
0000
0000
0000
0000
0000
0000
ENDCHAR
STARTCHAR U+0337
ENCODING 823
SWIDTH 480 0
DWIDTH 12 0
BBX 12 24 0 -2
BITMAP
0000
0000
0000
0000
0000
0000
0000
0000
00C0
01C0
0380
0700
0E00
1C00
3800
7000
6000
0000
0000
0000
0000
0000
0000
0000
ENDCHAR
STARTCHAR U+0338
ENCODING 824
SWIDTH 480 0
DWIDTH 12 0
BBX 12 24 0 -2
BITMAP
0000
0000
0000
0000
00C0
00C0
01C0
0180
0380
0300
0700
0600
0E00
0C00
1C00
1800
3800
3000
7000
6000
6000
0000
0000
0000
ENDCHAR
STARTCHAR U+0339
ENCODING 825
SWIDTH 480 0
DWIDTH 12 0
BBX 12 24 0 -2
BITMAP
0000
0000
0000
0000
0000
0000
0000
0000
0000
0000
0000
0000
0000
0000
0000
0000
0000
0000
0000
0F00
0380
0380
0F00
0000
ENDCHAR
STARTCHAR U+033A
ENCODING 826
SWIDTH 480 0
DWIDTH 12 0
BBX 12 24 0 -2
BITMAP
0000
0000
0000
0000
0000
0000
0000
0000
0000
0000
0000
0000
0000
0000
0000
0000
0000
0000
0000
71C0
71C0
7FC0
7FC0
0000
ENDCHAR
STARTCHAR U+033B
ENCODING 827
SWIDTH 480 0
DWIDTH 12 0
BBX 12 24 0 -2
BITMAP
0000
0000
0000
0000
0000
0000
0000
0000
0000
0000
0000
0000
0000
0000
0000
0000
0000
0000
0000
1F00
1B00
1B00
1F00
0000
ENDCHAR
STARTCHAR U+033C
ENCODING 828
SWIDTH 480 0
DWIDTH 12 0
BBX 12 24 0 -2
BITMAP
0000
0000
0000
0000
0000
0000
0000
0000
0000
0000
0000
0000
0000
0000
0000
0000
0000
0000
0000
3B80
FFE0
CE60
0E00
0000
ENDCHAR
STARTCHAR U+033D
ENCODING 829
SWIDTH 480 0
DWIDTH 12 0
BBX 12 24 0 -2
BITMAP
60C0
3B80
0E00
3B80
60C0
0000
0000
0000
0000
0000
0000
0000
0000
0000
0000
0000
0000
0000
0000
0000
0000
0000
0000
0000
ENDCHAR
STARTCHAR U+033E
ENCODING 830
SWIDTH 480 0
DWIDTH 12 0
BBX 12 24 0 -2
BITMAP
0E00
1C00
1C00
0E00
0E00
1C00
0000
0000
0000
0000
0000
0000
0000
0000
0000
0000
0000
0000
0000
0000
0000
0000
0000
0000
ENDCHAR
STARTCHAR U+033F
ENCODING 831
SWIDTH 480 0
DWIDTH 12 0
BBX 12 24 0 -2
BITMAP
0000
FFE0
FFE0
0000
FFE0
FFE0
0000
0000
0000
0000
0000
0000
0000
0000
0000
0000
0000
0000
0000
0000
0000
0000
0000
0000
ENDCHAR
STARTCHAR U+0340
ENCODING 832
SWIDTH 480 0
DWIDTH 12 0
BBX 12 24 0 -2
BITMAP
0000
1C00
1E00
0700
0000
0000
0000
0000
0000
0000
0000
0000
0000
0000
0000
0000
0000
0000
0000
0000
0000
0000
0000
0000
ENDCHAR
STARTCHAR U+0341
ENCODING 833
SWIDTH 480 0
DWIDTH 12 0
BBX 12 24 0 -2
BITMAP
0000
0700
0F00
1C00
0000
0000
0000
0000
0000
0000
0000
0000
0000
0000
0000
0000
0000
0000
0000
0000
0000
0000
0000
0000
ENDCHAR
STARTCHAR U+0342
ENCODING 834
SWIDTH 480 0
DWIDTH 12 0
BBX 12 24 0 -2
BITMAP
3D80
3780
0000
0000
0000
0000
0000
0000
0000
0000
0000
0000
0000
0000
0000
0000
0000
0000
0000
0000
0000
0000
0000
0000
ENDCHAR
STARTCHAR U+0343
ENCODING 835
SWIDTH 480 0
DWIDTH 12 0
BBX 12 24 0 -2
BITMAP
0000
0000
0000
1E00
1E00
0600
0E00
1C00
0000
0000
0000
0000
0000
0000
0000
0000
0000
0000
0000
0000
0000
0000
0000
0000
ENDCHAR
STARTCHAR U+0344
ENCODING 836
SWIDTH 480 0
DWIDTH 12 0
BBX 12 24 0 -2
BITMAP
0000
0C00
6D80
F5C0
6D80
0C00
0000
0000
0000
0000
0000
0000
0000
0000
0000
0000
0000
0000
0000
0000
0000
0000
0000
0000
ENDCHAR
STARTCHAR U+0345
ENCODING 837
SWIDTH 480 0
DWIDTH 12 0
BBX 12 24 0 -2
BITMAP
0000
0000
0000
0000
0000
0000
0000
0000
0000
0000
0000
0000
0000
0000
0000
0000
0000
0000
0000
0000
1C00
1C00
1C00
0F00
ENDCHAR
STARTCHAR U+0346
ENCODING 838
SWIDTH 480 0
DWIDTH 12 0
BBX 12 24 0 -2
BITMAP
0000
3F80
3F80
3B80
3B80
0000
0000
0000
0000
0000
0000
0000
0000
0000
0000
0000
0000
0000
0000
0000
0000
0000
0000
0000
ENDCHAR
STARTCHAR U+0347
ENCODING 839
SWIDTH 480 0
DWIDTH 12 0
BBX 12 24 0 -2
BITMAP
0000
0000
0000
0000
0000
0000
0000
0000
0000
0000
0000
0000
0000
0000
0000
0000
0000
0000
3F80
3F80
0000
3F80
3F80
0000
ENDCHAR
STARTCHAR U+0348
ENCODING 840
SWIDTH 480 0
DWIDTH 12 0
BBX 12 24 0 -2
BITMAP
0000
0000
0000
0000
0000
0000
0000
0000
0000
0000
0000
0000
0000
0000
0000
0000
0000
0000
3B80
3B80
3B80
3B80
3B80
0000
ENDCHAR
STARTCHAR U+0349
ENCODING 841
SWIDTH 480 0
DWIDTH 12 0
BBX 12 24 0 -2
BITMAP
0000
0000
0000
0000
0000
0000
0000
0000
0000
0000
0000
0000
0000
0000
0000
0000
0000
0000
0000
3F80
3F80
0380
0380
0000
ENDCHAR
STARTCHAR U+034A
ENCODING 842
SWIDTH 480 0
DWIDTH 12 0
BBX 12 24 0 -2
BITMAP
0000
0300
3EC0
76C0
6F80
1800
0000
0000
0000
0000
0000
0000
0000
0000
0000
0000
0000
0000
0000
0000
0000
0000
0000
0000
ENDCHAR
STARTCHAR U+034B
ENCODING 843
SWIDTH 480 0
DWIDTH 12 0
BBX 12 24 0 -2
BITMAP
0700
0700
7C60
EEE0
C7C0
1C00
1C00
0000
0000
0000
0000
0000
0000
0000
0000
0000
0000
0000
0000
0000
0000
0000
0000
0000
ENDCHAR
STARTCHAR U+034C
ENCODING 844
SWIDTH 480 0
DWIDTH 12 0
BBX 12 24 0 -2
BITMAP
0000
3C00
66C0
3D80
66C0
0380
0000
0000
0000
0000
0000
0000
0000
0000
0000
0000
0000
0000
0000
0000
0000
0000
0000
0000
ENDCHAR
STARTCHAR U+034D
ENCODING 845
SWIDTH 480 0
DWIDTH 12 0
BBX 12 24 0 -2
BITMAP
0000
0000
0000
0000
0000
0000
0000
0000
0000
0000
0000
0000
0000
0000
0000
0000
0000
3180
60C0
FFE0
FFE0
60C0
3180
0000
ENDCHAR
STARTCHAR U+034E
ENCODING 846
SWIDTH 480 0
DWIDTH 12 0
BBX 12 24 0 -2
BITMAP
0000
0000
0000
0000
0000
0000
0000
0000
0000
0000
0000
0000
0000
0000
0000
0000
0000
0E00
1F00
3F80
3680
0E00
0E00
0000
ENDCHAR
STARTCHAR U+0374
ENCODING 884
SWIDTH 480 0
DWIDTH 12 0
BBX 12 24 0 -2
BITMAP
0000
0000
0000
0000
0000
0F00
0F00
1E00
1C00
3800
3000
0000
0000
0000
0000
0000
0000
0000
0000
0000
0000
0000
0000
0000
ENDCHAR
STARTCHAR U+0375
ENCODING 885
SWIDTH 480 0
DWIDTH 12 0
BBX 12 24 0 -2
BITMAP
0000
0000
0000
0000
0000
0000
0000
0000
0000
0000
0000
0000
0000
0000
0000
0000
0000
0F00
0F00
1E00
1C00
3800
3000
0000
ENDCHAR
STARTCHAR U+037A
ENCODING 890
SWIDTH 480 0
DWIDTH 12 0
BBX 12 24 0 -2
BITMAP
0000
0000
0000
0000
0000
0000
0000
0000
0000
0000
0000
0000
0000
0000
0000
0000
0000
0000
0000
0000
1C00
1C00
1C00
0F00
ENDCHAR
STARTCHAR U+037E
ENCODING 894
SWIDTH 480 0
DWIDTH 12 0
BBX 12 24 0 -2
BITMAP
0000
0000
0000
0000
0000
0000
0000
0000
0000
0000
0000
0E00
0E00
0000
0000
0000
0000
0000
1C00
1E00
0E00
0600
0E00
0C00
ENDCHAR
STARTCHAR U+0384
ENCODING 900
SWIDTH 480 0
DWIDTH 12 0
BBX 12 24 0 -2
BITMAP
0E00
0E00
0E00
0E00
0000
0000
0000
0000
0000
0000
0000
0000
0000
0000
0000
0000
0000
0000
0000
0000
0000
0000
0000
0000
ENDCHAR
STARTCHAR U+0385
ENCODING 901
SWIDTH 480 0
DWIDTH 12 0
BBX 12 24 0 -2
BITMAP
0E00
0E00
0E00
0E00
0000
0000
3B80
3B80
0000
0000
0000
0000
0000
0000
0000
0000
0000
0000
0000
0000
0000
0000
0000
0000
ENDCHAR
STARTCHAR U+0386
ENCODING 902
SWIDTH 480 0
DWIDTH 12 0
BBX 12 24 0 -2
BITMAP
E000
E000
E000
E000
0000
0F00
0F00
0F00
1D80
1D80
1D80
39C0
39C0
3FC0
3FC0
70E0
70E0
70E0
70E0
0000
0000
0000
0000
0000
ENDCHAR
STARTCHAR U+0387
ENCODING 903
SWIDTH 480 0
DWIDTH 12 0
BBX 12 24 0 -2
BITMAP
0000
0000
0000
0000
0000
0000
0000
0000
0000
0000
0000
0C00
1E00
0C00
0000
0000
0000
0000
0000
0000
0000
0000
0000
0000
ENDCHAR
STARTCHAR U+0388
ENCODING 904
SWIDTH 480 0
DWIDTH 12 0
BBX 12 24 0 -2
BITMAP
E000
E000
E000
E000
0000
7FE0
7FE0
7000
7000
7000
7000
7F80
7F80
7000
7000
7000
7000
7FE0
7FE0
0000
0000
0000
0000
0000
ENDCHAR
STARTCHAR U+0389
ENCODING 905
SWIDTH 480 0
DWIDTH 12 0
BBX 12 24 0 -2
BITMAP
E000
E000
E000
E000
0000
70E0
70E0
70E0
70E0
70E0
70E0
7FE0
7FE0
70E0
70E0
70E0
70E0
70E0
70E0
0000
0000
0000
0000
0000
ENDCHAR
STARTCHAR U+038A
ENCODING 906
SWIDTH 480 0
DWIDTH 12 0
BBX 12 24 0 -2
BITMAP
E000
E000
E000
E000
0000
3F80
3F80
0E00
0E00
0E00
0E00
0E00
0E00
0E00
0E00
0E00
0E00
3F80
3F80
0000
0000
0000
0000
0000
ENDCHAR
STARTCHAR U+038C
ENCODING 908
SWIDTH 480 0
DWIDTH 12 0
BBX 12 24 0 -2
BITMAP
E000
E000
E000
E000
0000
1F80
3FC0
79E0
70E0
70E0
70E0
70E0
70E0
70E0
70E0
70E0
79E0
3FC0
1F80
0000
0000
0000
0000
0000
ENDCHAR
STARTCHAR U+038E
ENCODING 910
SWIDTH 480 0
DWIDTH 12 0
BBX 12 24 0 -2
BITMAP
E000
E000
E000
E000
0000
E0E0
E0E0
71C0
71C0
3B80
3F80
1F00
0E00
0E00
0E00
0E00
0E00
0E00
0E00
0000
0000
0000
0000
0000
ENDCHAR
STARTCHAR U+038F
ENCODING 911
SWIDTH 480 0
DWIDTH 12 0
BBX 12 24 0 -2
BITMAP
E000
E000
E000
E000
0000
1F80
3FC0
79E0
70E0
70E0
70E0
70E0
70E0
70E0
79E0
39C0
1D80
1D80
7DE0
7DE0
0000
0000
0000
0000
ENDCHAR
STARTCHAR U+0390
ENCODING 912
SWIDTH 480 0
DWIDTH 12 0
BBX 12 24 0 -2
BITMAP
0E00
0E00
0E00
0E00
0000
0000
3B80
3B80
0000
0E00
0E00
0E00
0E00
0E00
0E00
0E00
0E00
0F80
0780
0000
0000
0000
0000
0000
ENDCHAR
STARTCHAR U+0391
ENCODING 913
SWIDTH 480 0
DWIDTH 12 0
BBX 12 24 0 -2
BITMAP
0000
0000
0000
0000
0000
0F00
0F00
0F00
1D80
1D80
1D80
39C0
39C0
3FC0
3FC0
70E0
70E0
70E0
70E0
0000
0000
0000
0000
0000
ENDCHAR
STARTCHAR U+0392
ENCODING 914
SWIDTH 480 0
DWIDTH 12 0
BBX 12 24 0 -2
BITMAP
0000
0000
0000
0000
0000
7F00
7F80
73C0
71C0
71C0
7380
7F80
7FC0
71C0
70E0
70E0
71E0
7FC0
7F80
0000
0000
0000
0000
0000
ENDCHAR
STARTCHAR U+0393
ENCODING 915
SWIDTH 480 0
DWIDTH 12 0
BBX 12 24 0 -2
BITMAP
0000
0000
0000
0000
0000
7FE0
7FE0
7000
7000
7000
7000
7000
7000
7000
7000
7000
7000
7000
7000
0000
0000
0000
0000
0000
ENDCHAR
STARTCHAR U+0394
ENCODING 916
SWIDTH 480 0
DWIDTH 12 0
BBX 12 24 0 -2
BITMAP
0000
0000
0000
0000
0000
0F00
0F00
0F00
1D80
1D80
1D80
39C0
39C0
39C0
70E0
70E0
70E0
7FE0
7FE0
0000
0000
0000
0000
0000
ENDCHAR
STARTCHAR U+0395
ENCODING 917
SWIDTH 480 0
DWIDTH 12 0
BBX 12 24 0 -2
BITMAP
0000
0000
0000
0000
0000
7FE0
7FE0
7000
7000
7000
7000
7F80
7F80
7000
7000
7000
7000
7FE0
7FE0
0000
0000
0000
0000
0000
ENDCHAR
STARTCHAR U+0396
ENCODING 918
SWIDTH 480 0
DWIDTH 12 0
BBX 12 24 0 -2
BITMAP
0000
0000
0000
0000
0000
FFE0
FFE0
00E0
01E0
03C0
0780
0F00
1E00
3C00
7800
F000
E000
FFE0
FFE0
0000
0000
0000
0000
0000
ENDCHAR
STARTCHAR U+0397
ENCODING 919
SWIDTH 480 0
DWIDTH 12 0
BBX 12 24 0 -2
BITMAP
0000
0000
0000
0000
0000
70E0
70E0
70E0
70E0
70E0
70E0
7FE0
7FE0
70E0
70E0
70E0
70E0
70E0
70E0
0000
0000
0000
0000
0000
ENDCHAR
STARTCHAR U+0398
ENCODING 920
SWIDTH 480 0
DWIDTH 12 0
BBX 12 24 0 -2
BITMAP
0000
0000
0000
0000
0000
1F80
3FC0
79E0
70E0
70E0
70E0
7760
7760
70E0
70E0
70E0
79E0
3FC0
1F80
0000
0000
0000
0000
0000
ENDCHAR
STARTCHAR U+0399
ENCODING 921
SWIDTH 480 0
DWIDTH 12 0
BBX 12 24 0 -2
BITMAP
0000
0000
0000
0000
0000
3F80
3F80
0E00
0E00
0E00
0E00
0E00
0E00
0E00
0E00
0E00
0E00
3F80
3F80
0000
0000
0000
0000
0000
ENDCHAR
STARTCHAR U+039A
ENCODING 922
SWIDTH 480 0
DWIDTH 12 0
BBX 12 24 0 -2
BITMAP
0000
0000
0000
0000
0000
70E0
71C0
7380
7700
7600
7C00
7800
7C00
7600
7700
7380
71C0
70E0
7060
0000
0000
0000
0000
0000
ENDCHAR
STARTCHAR U+039B
ENCODING 923
SWIDTH 480 0
DWIDTH 12 0
BBX 12 24 0 -2
BITMAP
0000
0000
0000
0000
0000
0F00
0F00
0F00
1D80
1D80
1D80
39C0
39C0
39C0
39C0
70E0
70E0
70E0
70E0
0000
0000
0000
0000
0000
ENDCHAR
STARTCHAR U+039C
ENCODING 924
SWIDTH 480 0
DWIDTH 12 0
BBX 12 24 0 -2
BITMAP
0000
0000
0000
0000
0000
70E0
79E0
79E0
7DE0
7FE0
7760
7760
76E0
70E0
70E0
70E0
70E0
70E0
70E0
0000
0000
0000
0000
0000
ENDCHAR
STARTCHAR U+039D
ENCODING 925
SWIDTH 480 0
DWIDTH 12 0
BBX 12 24 0 -2
BITMAP
0000
0000
0000
0000
0000
70E0
78E0
78E0
7CE0
7CE0
76E0
76E0
7760
7760
73E0
73E0
71E0
71E0
70E0
0000
0000
0000
0000
0000
ENDCHAR
STARTCHAR U+039E
ENCODING 926
SWIDTH 480 0
DWIDTH 12 0
BBX 12 24 0 -2
BITMAP
0000
0000
0000
0000
0000
7FE0
7FE0
0000
0000
0000
0000
3FC0
3FC0
0000
0000
0000
0000
7FE0
7FE0
0000
0000
0000
0000
0000
ENDCHAR
STARTCHAR U+039F
ENCODING 927
SWIDTH 480 0
DWIDTH 12 0
BBX 12 24 0 -2
BITMAP
0000
0000
0000
0000
0000
1F80
3FC0
78E0
70E0
70E0
70E0
70E0
70E0
70E0
70E0
70E0
79E0
3FC0
1F80
0000
0000
0000
0000
0000
ENDCHAR
STARTCHAR U+03A0
ENCODING 928
SWIDTH 480 0
DWIDTH 12 0
BBX 12 24 0 -2
BITMAP
0000
0000
0000
0000
0000
FFE0
FFE0
71C0
71C0
71C0
71C0
71C0
71C0
71C0
71C0
71C0
71C0
71C0
71C0
0000
0000
0000
0000
0000
ENDCHAR
STARTCHAR U+03A1
ENCODING 929
SWIDTH 480 0
DWIDTH 12 0
BBX 12 24 0 -2
BITMAP
0000
0000
0000
0000
0000
7F80
7FC0
71E0
70E0
70E0
71E0
7FC0
7F80
7000
7000
7000
7000
7000
7000
0000
0000
0000
0000
0000
ENDCHAR
STARTCHAR U+03A3
ENCODING 931
SWIDTH 480 0
DWIDTH 12 0
BBX 12 24 0 -2
BITMAP
0000
0000
0000
0000
0000
7FE0
7FE0
7800
3C00
1E00
0F00
0780
0780
0F00
1E00
3C00
7800
7FE0
7FE0
0000
0000
0000
0000
0000
ENDCHAR
STARTCHAR U+03A4
ENCODING 932
SWIDTH 480 0
DWIDTH 12 0
BBX 12 24 0 -2
BITMAP
0000
0000
0000
0000
0000
FFE0
FFE0
0E00
0E00
0E00
0E00
0E00
0E00
0E00
0E00
0E00
0E00
0E00
0E00
0000
0000
0000
0000
0000
ENDCHAR
STARTCHAR U+03A5
ENCODING 933
SWIDTH 480 0
DWIDTH 12 0
BBX 12 24 0 -2
BITMAP
0000
0000
0000
0000
0000
E0E0
E0E0
71C0
71C0
3B80
3F80
1F00
0E00
0E00
0E00
0E00
0E00
0E00
0E00
0000
0000
0000
0000
0000
ENDCHAR
STARTCHAR U+03A6
ENCODING 934
SWIDTH 480 0
DWIDTH 12 0
BBX 12 24 0 -2
BITMAP
0000
0000
0000
0000
0000
0E00
0E00
3F80
7FC0
EEE0
EEE0
EEE0
EEE0
EEE0
EEE0
7FC0
3F80
0E00
0E00
0000
0000
0000
0000
0000
ENDCHAR
STARTCHAR U+03A7
ENCODING 935
SWIDTH 480 0
DWIDTH 12 0
BBX 12 24 0 -2
BITMAP
0000
0000
0000
0000
0000
70E0
70E0
39C0
39C0
1D80
1D80
0F00
0F00
1D80
1D80
39C0
39C0
70E0
70E0
0000
0000
0000
0000
0000
ENDCHAR
STARTCHAR U+03A8
ENCODING 936
SWIDTH 480 0
DWIDTH 12 0
BBX 12 24 0 -2
BITMAP
0000
0000
0000
0000
0000
EEE0
EEE0
EEE0
EEE0
EEE0
EEE0
F6E0
7FC0
3F80
0E00
0E00
0E00
0E00
0E00
0000
0000
0000
0000
0000
ENDCHAR
STARTCHAR U+03A9
ENCODING 937
SWIDTH 480 0
DWIDTH 12 0
BBX 12 24 0 -2
BITMAP
0000
0000
0000
0000
0000
1F80
3FC0
79E0
70E0
70E0
70E0
70E0
70E0
79E0
39C0
1D80
1D80
7DE0
7DE0
0000
0000
0000
0000
0000
ENDCHAR
STARTCHAR U+03AA
ENCODING 938
SWIDTH 480 0
DWIDTH 12 0
BBX 12 24 0 -2
BITMAP
0000
3B80
3B80
0000
0000
3F80
3F80
0E00
0E00
0E00
0E00
0E00
0E00
0E00
0E00
0E00
0E00
3F80
3F80
0000
0000
0000
0000
0000
ENDCHAR
STARTCHAR U+03AB
ENCODING 939
SWIDTH 480 0
DWIDTH 12 0
BBX 12 24 0 -2
BITMAP
0000
3B80
3B80
0000
0000
E0E0
E0E0
71C0
71C0
3B80
3F80
1F00
0E00
0E00
0E00
0E00
0E00
0E00
0E00
0000
0000
0000
0000
0000
ENDCHAR
STARTCHAR U+03AC
ENCODING 940
SWIDTH 480 0
DWIDTH 12 0
BBX 12 24 0 -2
BITMAP
0000
0000
0000
0E00
0E00
0E00
0E00
0000
0000
3CE0
7EE0
E740
E3C0
E380
E380
E3C0
E740
7EE0
3CE0
0000
0000
0000
0000
0000
ENDCHAR
STARTCHAR U+03AD
ENCODING 941
SWIDTH 480 0
DWIDTH 12 0
BBX 12 24 0 -2
BITMAP
0000
0000
0000
0E00
0E00
0E00
0E00
0000
0000
1F80
3FC0
7000
7000
7F80
7F80
7000
7000
3FC0
1F80
0000
0000
0000
0000
0000
ENDCHAR
STARTCHAR U+03AE
ENCODING 942
SWIDTH 480 0
DWIDTH 12 0
BBX 12 24 0 -2
BITMAP
0000
0000
0000
0E00
0E00
0E00
0E00
0000
0000
7780
77C0
7CE0
78E0
70E0
70E0
70E0
70E0
70E0
70E0
00E0
00E0
00E0
00E0
00E0
ENDCHAR
STARTCHAR U+03AF
ENCODING 943
SWIDTH 480 0
DWIDTH 12 0
BBX 12 24 0 -2
BITMAP
0000
0000
0000
0E00
0E00
0E00
0E00
0000
0000
0E00
0E00
0E00
0E00
0E00
0E00
0E00
0E00
0F80
0780
0000
0000
0000
0000
0000
ENDCHAR
STARTCHAR U+03B0
ENCODING 944
SWIDTH 480 0
DWIDTH 12 0
BBX 12 24 0 -2
BITMAP
0E00
0E00
0E00
0E00
0000
39C0
39C0
0000
0000
70E0
70E0
70E0
70E0
70E0
70E0
70E0
79E0
3FC0
1F80
0000
0000
0000
0000
0000
ENDCHAR
STARTCHAR U+03B1
ENCODING 945
SWIDTH 480 0
DWIDTH 12 0
BBX 12 24 0 -2
BITMAP
0000
0000
0000
0000
0000
0000
0000
0000
0000
3CE0
7EE0
E740
E3C0
E380
E380
E3C0
E740
7EE0
3CE0
0000
0000
0000
0000
0000
ENDCHAR
STARTCHAR U+03B2
ENCODING 946
SWIDTH 480 0
DWIDTH 12 0
BBX 12 24 0 -2
BITMAP
0000
0000
0000
0000
0000
1E00
3F80
7BC0
71C0
71C0
71C0
7F80
7FC0
70E0
70E0
70E0
71E0
7FC0
7F80
7000
7000
7000
7000
0000
ENDCHAR
STARTCHAR U+03B3
ENCODING 947
SWIDTH 480 0
DWIDTH 12 0
BBX 12 24 0 -2
BITMAP
0000
0000
0000
0000
0000
0000
0000
0000
0000
3CE0
7CE0
76C0
0EC0
0780
0780
0700
0700
0E00
0E00
1C00
1C00
0000
0000
0000
ENDCHAR
STARTCHAR U+03B4
ENCODING 948
SWIDTH 480 0
DWIDTH 12 0
BBX 12 24 0 -2
BITMAP
0000
0000
0000
0000
0000
1F80
3F80
3800
3800
1C00
1F80
3FC0
79E0
70E0
70E0
70E0
79E0
3FC0
1F80
0000
0000
0000
0000
0000
ENDCHAR
STARTCHAR U+03B5
ENCODING 949
SWIDTH 480 0
DWIDTH 12 0
BBX 12 24 0 -2
BITMAP
0000
0000
0000
0000
0000
0000
0000
0000
0000
1F80
3FC0
7800
7000
7F80
7F80
7000
7800
3FC0
1F80
0000
0000
0000
0000
0000
ENDCHAR
STARTCHAR U+03B6
ENCODING 950
SWIDTH 480 0
DWIDTH 12 0
BBX 12 24 0 -2
BITMAP
0000
0000
0000
0000
0000
3F80
3F80
0F00
0E00
1E00
1C00
3C00
3800
3800
7000
7000
7000
7F80
3FC0
00E0
00E0
00E0
0FC0
0F80
ENDCHAR
STARTCHAR U+03B7
ENCODING 951
SWIDTH 480 0
DWIDTH 12 0
BBX 12 24 0 -2
BITMAP
0000
0000
0000
0000
0000
0000
0000
0000
0000
7780
77C0
7CE0
78E0
70E0
70E0
70E0
70E0
70E0
70E0
00E0
00E0
00E0
00E0
00E0
ENDCHAR
STARTCHAR U+03B8
ENCODING 952
SWIDTH 480 0
DWIDTH 12 0
BBX 12 24 0 -2
BITMAP
0000
0000
0000
0000
0000
1F00
3F80
3B80
71C0
71C0
71C0
7FC0
7FC0
71C0
71C0
71C0
3B80
3F80
1F00
0000
0000
0000
0000
0000
ENDCHAR
STARTCHAR U+03B9
ENCODING 953
SWIDTH 480 0
DWIDTH 12 0
BBX 12 24 0 -2
BITMAP
0000
0000
0000
0000
0000
0000
0000
0000
0000
0E00
0E00
0E00
0E00
0E00
0E00
0E00
0E00
0F80
0780
0000
0000
0000
0000
0000
ENDCHAR
STARTCHAR U+03BA
ENCODING 954
SWIDTH 480 0
DWIDTH 12 0
BBX 12 24 0 -2
BITMAP
0000
0000
0000
0000
0000
0000
0000
0000
0000
71C0
73C0
7780
7700
7E00
7E00
7700
7780
73C0
71C0
0000
0000
0000
0000
0000
ENDCHAR
STARTCHAR U+03BB
ENCODING 955
SWIDTH 480 0
DWIDTH 12 0
BBX 12 24 0 -2
BITMAP
0000
0000
0000
0000
0000
3C00
3C00
0E00
0E00
0700
0700
0F80
0F80
1D80
1DC0
39C0
39C0
70E0
70E0
0000
0000
0000
0000
0000
ENDCHAR
STARTCHAR U+03BC
ENCODING 956
SWIDTH 480 0
DWIDTH 12 0
BBX 12 24 0 -2
BITMAP
0000
0000
0000
0000
0000
0000
0000
0000
0000
70E0
70E0
70E0
70E0
70E0
79E0
7DE0
7FE0
7760
70E0
7000
7000
7000
7000
7000
ENDCHAR
STARTCHAR U+03BD
ENCODING 957
SWIDTH 480 0
DWIDTH 12 0
BBX 12 24 0 -2
BITMAP
0000
0000
0000
0000
0000
0000
0000
0000
0000
70E0
70E0
70E0
70E0
71E0
71C0
73C0
7780
7F00
7C00
0000
0000
0000
0000
0000
ENDCHAR
STARTCHAR U+03BE
ENCODING 958
SWIDTH 480 0
DWIDTH 12 0
BBX 12 24 0 -2
BITMAP
0000
0000
0000
0000
0000
3800
3800
1FC0
3FC0
7000
7000
7000
3FE0
3FE0
7000
7000
7000
3F80
1FC0
00E0
00E0
00E0
1FC0
1F80
ENDCHAR
STARTCHAR U+03BF
ENCODING 959
SWIDTH 480 0
DWIDTH 12 0
BBX 12 24 0 -2
BITMAP
0000
0000
0000
0000
0000
0000
0000
0000
0000
1F80
3FC0
79E0
70E0
70E0
70E0
70E0
79E0
3FC0
1F80
0000
0000
0000
0000
0000
ENDCHAR
STARTCHAR U+03C0
ENCODING 960
SWIDTH 480 0
DWIDTH 12 0
BBX 12 24 0 -2
BITMAP
0000
0000
0000
0000
0000
0000
0000
0000
0000
FFE0
FFE0
3B80
3B80
3B80
3B80
3B80
3B80
3B80
3B80
0000
0000
0000
0000
0000
ENDCHAR
STARTCHAR U+03C1
ENCODING 961
SWIDTH 480 0
DWIDTH 12 0
BBX 12 24 0 -2
BITMAP
0000
0000
0000
0000
0000
0000
0000
0000
0000
1F80
3FC0
79E0
70E0
70E0
70E0
70E0
79E0
7FC0
7780
7000
7000
7000
7000
7000
ENDCHAR
STARTCHAR U+03C2
ENCODING 962
SWIDTH 480 0
DWIDTH 12 0
BBX 12 24 0 -2
BITMAP
0000
0000
0000
0000
0000
0000
0000
0000
0000
1FC0
3FE0
78E0
7000
7000
7000
7800
3C00
1FC0
0FE0
00E0
3FE0
3FC0
0000
0000
ENDCHAR
STARTCHAR U+03C3
ENCODING 963
SWIDTH 480 0
DWIDTH 12 0
BBX 12 24 0 -2
BITMAP
0000
0000
0000
0000
0000
0000
0000
0000
0000
3FE0
7FE0
F700
E380
E380
E380
E380
F780
7F00
3E00
0000
0000
0000
0000
0000
ENDCHAR
STARTCHAR U+03C4
ENCODING 964
SWIDTH 480 0
DWIDTH 12 0
BBX 12 24 0 -2
BITMAP
0000
0000
0000
0000
0000
0000
0000
0000
0000
7FC0
7FC0
0E00
0E00
0E00
0E00
0E00
0E00
0E00
0E00
0000
0000
0000
0000
0000
ENDCHAR
STARTCHAR U+03C5
ENCODING 965
SWIDTH 480 0
DWIDTH 12 0
BBX 12 24 0 -2
BITMAP
0000
0000
0000
0000
0000
0000
0000
0000
0000
70E0
70E0
70E0
70E0
70E0
70E0
70E0
79E0
3FC0
1F80
0000
0000
0000
0000
0000
ENDCHAR
STARTCHAR U+03C6
ENCODING 966
SWIDTH 480 0
DWIDTH 12 0
BBX 12 24 0 -2
BITMAP
0000
0000
0000
0000
0000
0000
0000
0000
0000
3F80
7FC0
F6E0
EEE0
EEE0
EEE0
EEE0
F6E0
7FC0
3F80
0E00
0E00
0E00
0E00
0E00
ENDCHAR
STARTCHAR U+03C7
ENCODING 967
SWIDTH 480 0
DWIDTH 12 0
BBX 12 24 0 -2
BITMAP
0000
0000
0000
0000
0000
0000
0000
0000
0000
70E0
70E0
39C0
39C0
1D80
1D80
0F00
0F00
0F00
1D80
1D80
39C0
39C0
70E0
70E0
ENDCHAR
STARTCHAR U+03C8
ENCODING 968
SWIDTH 480 0
DWIDTH 12 0
BBX 12 24 0 -2
BITMAP
0000
0000
0000
0000
0000
0000
0E00
0E00
0E00
EEE0
EEE0
EEE0
EEE0
EEE0
EEE0
EEE0
F6E0
7FC0
3F80
0E00
0E00
0E00
0E00
0E00
ENDCHAR
STARTCHAR U+03C9
ENCODING 969
SWIDTH 480 0
DWIDTH 12 0
BBX 12 24 0 -2
BITMAP
0000
0000
0000
0000
0000
0000
0000
0000
0000
71C0
71C0
E0E0
EEE0
EEE0
EEE0
EEE0
EEE0
7FC0
3B80
0000
0000
0000
0000
0000
ENDCHAR
STARTCHAR U+03CA
ENCODING 970
SWIDTH 480 0
DWIDTH 12 0
BBX 12 24 0 -2
BITMAP
0000
0000
0000
0000
0000
3B80
3B80
0000
0000
0E00
0E00
0E00
0E00
0E00
0E00
0E00
0E00
0F80
0780
0000
0000
0000
0000
0000
ENDCHAR
STARTCHAR U+03CB
ENCODING 971
SWIDTH 480 0
DWIDTH 12 0
BBX 12 24 0 -2
BITMAP
0000
0000
0000
0000
0000
39C0
39C0
0000
0000
70E0
70E0
70E0
70E0
70E0
70E0
70E0
79E0
3FC0
1F80
0000
0000
0000
0000
0000
ENDCHAR
STARTCHAR U+03CC
ENCODING 972
SWIDTH 480 0
DWIDTH 12 0
BBX 12 24 0 -2
BITMAP
0000
0000
0000
0E00
0E00
0E00
0E00
0000
0000
1F80
3FC0
79E0
70E0
70E0
70E0
70E0
79E0
3FC0
1F80
0000
0000
0000
0000
0000
ENDCHAR
STARTCHAR U+03CD
ENCODING 973
SWIDTH 480 0
DWIDTH 12 0
BBX 12 24 0 -2
BITMAP
0000
0000
0000
0E00
0E00
0E00
0E00
0000
0000
70E0
70E0
70E0
70E0
70E0
70E0
70E0
79E0
3FC0
1F80
0000
0000
0000
0000
0000
ENDCHAR
STARTCHAR U+03CE
ENCODING 974
SWIDTH 480 0
DWIDTH 12 0
BBX 12 24 0 -2
BITMAP
0000
0000
0000
0E00
0E00
0E00
0E00
0000
0000
71C0
71C0
E0E0
E0E0
EEE0
EEE0
EEE0
EEE0
7FC0
3B80
0000
0000
0000
0000
0000
ENDCHAR
STARTCHAR U+0401
ENCODING 1025
SWIDTH 480 0
DWIDTH 12 0
BBX 12 24 0 -2
BITMAP
0000
39C0
39C0
0000
0000
7FE0
7FE0
7000
7000
7000
7000
7F80
7F80
7000
7000
7000
7000
7FE0
7FE0
0000
0000
0000
0000
0000
ENDCHAR
STARTCHAR U+0402
ENCODING 1026
SWIDTH 480 0
DWIDTH 12 0
BBX 12 24 0 -2
BITMAP
0000
0000
0000
0000
0000
FFC0
FFC0
1C00
1C00
1C00
1C00
1FC0
1FE0
1CE0
1CE0
1CE0
1CE0
1FE0
1FC0
0000
0000
0000
0000
0000
ENDCHAR
STARTCHAR U+0403
ENCODING 1027
SWIDTH 480 0
DWIDTH 12 0
BBX 12 24 0 -2
BITMAP
0700
0F00
1C00
0000
0000
7FE0
7FE0
7000
7000
7000
7000
7000
7000
7000
7000
7000
7000
7000
7000
0000
0000
0000
0000
0000
ENDCHAR
STARTCHAR U+0404
ENCODING 1028
SWIDTH 480 0
DWIDTH 12 0
BBX 12 24 0 -2
BITMAP
0000
0000
0000
0000
0000
1F80
3FC0
79C0
70E0
7000
7000
7F80
7F80
7000
7000
70E0
79E0
3FC0
1F80
0000
0000
0000
0000
0000
ENDCHAR
STARTCHAR U+0405
ENCODING 1029
SWIDTH 480 0
DWIDTH 12 0
BBX 12 24 0 -2
BITMAP
0000
0000
0000
0000
0000
1F80
3FC0
71E0
70E0
7000
7800
3F80
1FC0
01E0
00E0
70E0
71E0
7FC0
3F80
0000
0000
0000
0000
0000
ENDCHAR
STARTCHAR U+0406
ENCODING 1030
SWIDTH 480 0
DWIDTH 12 0
BBX 12 24 0 -2
BITMAP
0000
0000
0000
0000
0000
3F80
3F80
0E00
0E00
0E00
0E00
0E00
0E00
0E00
0E00
0E00
0E00
3F80
3F80
0000
0000
0000
0000
0000
ENDCHAR
STARTCHAR U+0407
ENCODING 1031
SWIDTH 480 0
DWIDTH 12 0
BBX 12 24 0 -2
BITMAP
0000
3B80
3B80
0000
0000
3F80
3F80
0E00
0E00
0E00
0E00
0E00
0E00
0E00
0E00
0E00
0E00
3F80
3F80
0000
0000
0000
0000
0000
ENDCHAR
STARTCHAR U+0408
ENCODING 1032
SWIDTH 480 0
DWIDTH 12 0
BBX 12 24 0 -2
BITMAP
0000
0000
0000
0000
0000
00E0
00E0
00E0
00E0
00E0
00E0
00E0
00E0
00E0
00E0
70E0
71E0
3FC0
1F80
0000
0000
0000
0000
0000
ENDCHAR
STARTCHAR U+0409
ENCODING 1033
SWIDTH 480 0
DWIDTH 12 0
BBX 12 24 0 -2
BITMAP
0000
0000
0000
0000
0000
3F00
3F00
3B00
3B00
3B00
3B00
3BC0
3BE0
3B60
3B60
3B60
3B60
FBE0
E7C0
0000
0000
0000
0000
0000
ENDCHAR
STARTCHAR U+040A
ENCODING 1034
SWIDTH 480 0
DWIDTH 12 0
BBX 12 24 0 -2
BITMAP
0000
0000
0000
0000
0000
EE00
EE00
EE00
EE00
EE00
EE00
FFC0
FFE0
EEE0
EEE0
EEE0
EEE0
EFE0
EFC0
0000
0000
0000
0000
0000
ENDCHAR
STARTCHAR U+040B
ENCODING 1035
SWIDTH 480 0
DWIDTH 12 0
BBX 12 24 0 -2
BITMAP
0000
0000
0000
0000
0000
FFC0
FFC0
1C00
1C00
1C00
1C00
1DC0
1FE0
1EE0
1CE0
1CE0
1CE0
1CE0
1CE0
0000
0000
0000
0000
0000
ENDCHAR
STARTCHAR U+040C
ENCODING 1036
SWIDTH 480 0
DWIDTH 12 0
BBX 12 24 0 -2
BITMAP
0700
0F00
1C00
0000
0000
70E0
71E0
7380
7380
7700
7700
7E00
7E00
7700
7380
7380
71C0
70E0
70E0
0000
0000
0000
0000
0000
ENDCHAR
STARTCHAR U+040E
ENCODING 1038
SWIDTH 480 0
DWIDTH 12 0
BBX 12 24 0 -2
BITMAP
39C0
39C0
1F80
0000
0000
70E0
70E0
70E0
79E0
39C0
3DC0
1D80
1F80
0F00
0F00
0E00
1E00
7C00
7800
0000
0000
0000
0000
0000
ENDCHAR
STARTCHAR U+040F
ENCODING 1039
SWIDTH 480 0
DWIDTH 12 0
BBX 12 24 0 -2
BITMAP
0000
0000
0000
0000
0000
71C0
71C0
71C0
71C0
71C0
71C0
71C0
71C0
7FC0
7FC0
0E00
0E00
0E00
0E00
0000
0000
0000
0000
0000
ENDCHAR
STARTCHAR U+0410
ENCODING 1040
SWIDTH 480 0
DWIDTH 12 0
BBX 12 24 0 -2
BITMAP
0000
0000
0000
0000
0000
1F80
3FC0
79E0
70E0
70E0
70E0
7FE0
7FE0
70E0
70E0
70E0
70E0
70E0
70E0
0000
0000
0000
0000
0000
ENDCHAR
STARTCHAR U+0411
ENCODING 1041
SWIDTH 480 0
DWIDTH 12 0
BBX 12 24 0 -2
BITMAP
0000
0000
0000
0000
0000
7F80
7F80
7000
7000
7000
7000
7F80
7FC0
71E0
70E0
70E0
71E0
7FC0
7F80
0000
0000
0000
0000
0000
ENDCHAR
STARTCHAR U+0412
ENCODING 1042
SWIDTH 480 0
DWIDTH 12 0
BBX 12 24 0 -2
BITMAP
0000
0000
0000
0000
0000
7F00
7F80
73C0
71C0
71C0
7380
7F80
7FC0
71C0
70E0
70E0
71E0
7FC0
7F80
0000
0000
0000
0000
0000
ENDCHAR
STARTCHAR U+0413
ENCODING 1043
SWIDTH 480 0
DWIDTH 12 0
BBX 12 24 0 -2
BITMAP
0000
0000
0000
0000
0000
7FE0
7FE0
7000
7000
7000
7000
7000
7000
7000
7000
7000
7000
7000
7000
0000
0000
0000
0000
0000
ENDCHAR
STARTCHAR U+0414
ENCODING 1044
SWIDTH 480 0
DWIDTH 12 0
BBX 12 24 0 -2
BITMAP
0000
0000
0000
0000
0000
0FC0
1FC0
1DC0
1DC0
39C0
39C0
39C0
71C0
71C0
71C0
E1C0
E1C0
FFC0
FFC0
00E0
0060
0000
0000
0000
ENDCHAR
STARTCHAR U+0415
ENCODING 1045
SWIDTH 480 0
DWIDTH 12 0
BBX 12 24 0 -2
BITMAP
0000
0000
0000
0000
0000
7FE0
7FE0
7000
7000
7000
7000
7F80
7F80
7000
7000
7000
7000
7FE0
7FE0
0000
0000
0000
0000
0000
ENDCHAR
STARTCHAR U+0416
ENCODING 1046
SWIDTH 480 0
DWIDTH 12 0
BBX 12 24 0 -2
BITMAP
0000
0000
0000
0000
0000
EEE0
EEE0
76C0
76C0
76C0
3F80
3F80
1F00
3F80
3F80
76C0
76C0
EEE0
EEE0
0000
0000
0000
0000
0000
ENDCHAR
STARTCHAR U+0417
ENCODING 1047
SWIDTH 480 0
DWIDTH 12 0
BBX 12 24 0 -2
BITMAP
0000
0000
0000
0000
0000
1F80
3FC0
70E0
70E0
00E0
01C0
0F80
0F80
01C0
00E0
70E0
70E0
3FC0
1F80
0000
0000
0000
0000
0000
ENDCHAR
STARTCHAR U+0418
ENCODING 1048
SWIDTH 480 0
DWIDTH 12 0
BBX 12 24 0 -2
BITMAP
0000
0000
0000
0000
0000
70E0
71E0
71E0
73E0
73E0
7760
7760
76E0
76E0
7CE0
7CE0
78E0
78E0
70E0
0000
0000
0000
0000
0000
ENDCHAR
STARTCHAR U+0419
ENCODING 1049
SWIDTH 480 0
DWIDTH 12 0
BBX 12 24 0 -2
BITMAP
39C0
39C0
1F80
0000
0000
70E0
71E0
71E0
73E0
73E0
7760
7760
76E0
76E0
7CE0
7CE0
78E0
78E0
70E0
0000
0000
0000
0000
0000
ENDCHAR
STARTCHAR U+041A
ENCODING 1050
SWIDTH 480 0
DWIDTH 12 0
BBX 12 24 0 -2
BITMAP
0000
0000
0000
0000
0000
70E0
71E0
7380
7380
7700
7700
7E00
7E00
7700
7380
7380
71C0
70E0
70E0
0000
0000
0000
0000
0000
ENDCHAR
STARTCHAR U+041B
ENCODING 1051
SWIDTH 480 0
DWIDTH 12 0
BBX 12 24 0 -2
BITMAP
0000
0000
0000
0000
0000
1FE0
1FE0
1CE0
1CE0
1CE0
1CE0
1CE0
1CE0
1CE0
1CE0
1CE0
38E0
78E0
70E0
0000
0000
0000
0000
0000
ENDCHAR
STARTCHAR U+041C
ENCODING 1052
SWIDTH 480 0
DWIDTH 12 0
BBX 12 24 0 -2
BITMAP
0000
0000
0000
0000
0000
70E0
79E0
79E0
7DE0
7FE0
7760
7760
76E0
70E0
70E0
70E0
70E0
70E0
70E0
0000
0000
0000
0000
0000
ENDCHAR
STARTCHAR U+041D
ENCODING 1053
SWIDTH 480 0
DWIDTH 12 0
BBX 12 24 0 -2
BITMAP
0000
0000
0000
0000
0000
70E0
70E0
70E0
70E0
70E0
70E0
7FE0
7FE0
70E0
70E0
70E0
70E0
70E0
70E0
0000
0000
0000
0000
0000
ENDCHAR
STARTCHAR U+041E
ENCODING 1054
SWIDTH 480 0
DWIDTH 12 0
BBX 12 24 0 -2
BITMAP
0000
0000
0000
0000
0000
1F80
3FC0
79E0
70E0
70E0
70E0
70E0
70E0
70E0
70E0
70E0
79E0
3FC0
1F80
0000
0000
0000
0000
0000
ENDCHAR
STARTCHAR U+041F
ENCODING 1055
SWIDTH 480 0
DWIDTH 12 0
BBX 12 24 0 -2
BITMAP
0000
0000
0000
0000
0000
7FE0
7FE0
70E0
70E0
70E0
70E0
70E0
70E0
70E0
70E0
70E0
70E0
70E0
70E0
0000
0000
0000
0000
0000
ENDCHAR
STARTCHAR U+0420
ENCODING 1056
SWIDTH 480 0
DWIDTH 12 0
BBX 12 24 0 -2
BITMAP
0000
0000
0000
0000
0000
7F80
7FC0
71E0
70E0
70E0
71E0
7FC0
7F80
7000
7000
7000
7000
7000
7000
0000
0000
0000
0000
0000
ENDCHAR
STARTCHAR U+0421
ENCODING 1057
SWIDTH 480 0
DWIDTH 12 0
BBX 12 24 0 -2
BITMAP
0000
0000
0000
0000
0000
1F80
3FC0
79E0
70E0
7000
7000
7000
7000
7000
7000
70E0
79E0
3FC0
1F80
0000
0000
0000
0000
0000
ENDCHAR
STARTCHAR U+0422
ENCODING 1058
SWIDTH 480 0
DWIDTH 12 0
BBX 12 24 0 -2
BITMAP
0000
0000
0000
0000
0000
FFE0
FFE0
0E00
0E00
0E00
0E00
0E00
0E00
0E00
0E00
0E00
0E00
0E00
0E00
0000
0000
0000
0000
0000
ENDCHAR
STARTCHAR U+0423
ENCODING 1059
SWIDTH 480 0
DWIDTH 12 0
BBX 12 24 0 -2
BITMAP
0000
0000
0000
0000
0000
70E0
70E0
70E0
79E0
39C0
3DC0
1D80
1F80
0F00
0F00
0E00
1E00
7C00
7800
0000
0000
0000
0000
0000
ENDCHAR
STARTCHAR U+0424
ENCODING 1060
SWIDTH 480 0
DWIDTH 12 0
BBX 12 24 0 -2
BITMAP
0000
0000
0000
0000
0E00
0E00
0E00
3F80
7FC0
EEE0
EEE0
EEE0
EEE0
EEE0
EEE0
7FC0
3F80
0E00
0E00
0E00
0000
0000
0000
0000
ENDCHAR
STARTCHAR U+0425
ENCODING 1061
SWIDTH 480 0
DWIDTH 12 0
BBX 12 24 0 -2
BITMAP
0000
0000
0000
0000
0000
70E0
70E0
39C0
39C0
1D80
1D80
0F00
0F00
1D80
1D80
39C0
39C0
70E0
70E0
0000
0000
0000
0000
0000
ENDCHAR
STARTCHAR U+0426
ENCODING 1062
SWIDTH 480 0
DWIDTH 12 0
BBX 12 24 0 -2
BITMAP
0000
0000
0000
0000
0000
71C0
71C0
71C0
71C0
71C0
71C0
71C0
71C0
71C0
71C0
71C0
71C0
7FC0
7FC0
01C0
01C0
00E0
0000
0000
ENDCHAR
STARTCHAR U+0427
ENCODING 1063
SWIDTH 480 0
DWIDTH 12 0
BBX 12 24 0 -2
BITMAP
0000
0000
0000
0000
0000
70E0
70E0
70E0
70E0
70E0
70E0
71E0
7BE0
3F60
1EE0
00E0
00E0
00E0
00E0
0000
0000
0000
0000
0000
ENDCHAR
STARTCHAR U+0428
ENCODING 1064
SWIDTH 480 0
DWIDTH 12 0
BBX 12 24 0 -2
BITMAP
0000
0000
0000
0000
0000
EEE0
EEE0
EEE0
EEE0
EEE0
EEE0
EEE0
EEE0
EEE0
EEE0
EEE0
EEE0
FFE0
FFE0
0000
0000
0000
0000
0000
ENDCHAR
STARTCHAR U+0429
ENCODING 1065
SWIDTH 480 0
DWIDTH 12 0
BBX 12 24 0 -2
BITMAP
0000
0000
0000
0000
0000
EEE0
EEE0
EEE0
EEE0
EEE0
EEE0
EEE0
EEE0
EEE0
EEE0
EEE0
EEE0
FFE0
FFE0
00E0
00E0
0070
0000
0000
ENDCHAR
STARTCHAR U+042A
ENCODING 1066
SWIDTH 480 0
DWIDTH 12 0
BBX 12 24 0 -2
BITMAP
0000
0000
0000
0000
0000
F800
F800
3800
3800
3800
3F80
3FC0
39E0
38E0
38E0
38E0
39E0
3FC0
3F80
0000
0000
0000
0000
0000
ENDCHAR
STARTCHAR U+042B
ENCODING 1067
SWIDTH 480 0
DWIDTH 12 0
BBX 12 24 0 -2
BITMAP
0000
0000
0000
0000
0000
70E0
70E0
70E0
70E0
70E0
7EE0
7F60
7760
7760
7760
7760
7760
7F60
7EE0
0000
0000
0000
0000
0000
ENDCHAR
STARTCHAR U+042C
ENCODING 1068
SWIDTH 480 0
DWIDTH 12 0
BBX 12 24 0 -2
BITMAP
0000
0000
0000
0000
0000
7000
7000
7000
7000
7000
7F00
7F80
73C0
71C0
71C0
71C0
73C0
7F80
7F00
0000
0000
0000
0000
0000
ENDCHAR
STARTCHAR U+042D
ENCODING 1069
SWIDTH 480 0
DWIDTH 12 0
BBX 12 24 0 -2
BITMAP
0000
0000
0000
0000
0000
1F00
7FC0
71C0
00E0
00E0
00E0
1FE0
1FE0
00E0
00E0
00E0
71C0
7FC0
1F00
0000
0000
0000
0000
0000
ENDCHAR
STARTCHAR U+042E
ENCODING 1070
SWIDTH 480 0
DWIDTH 12 0
BBX 12 24 0 -2
BITMAP
0000
0000
0000
0000
0000
E780
EFC0
ECE0
ECE0
ECE0
ECE0
FCE0
FCE0
ECE0
ECE0
ECE0
ECE0
EFC0
E780
0000
0000
0000
0000
0000
ENDCHAR
STARTCHAR U+042F
ENCODING 1071
SWIDTH 480 0
DWIDTH 12 0
BBX 12 24 0 -2
BITMAP
0000
0000
0000
0000
0000
1FE0
3FE0
78E0
70E0
70E0
78E0
3FE0
1FE0
1CE0
1CE0
38E0
38E0
70E0
70E0
0000
0000
0000
0000
0000
ENDCHAR
STARTCHAR U+0430
ENCODING 1072
SWIDTH 480 0
DWIDTH 12 0
BBX 12 24 0 -2
BITMAP
0000
0000
0000
0000
0000
0000
0000
0000
0000
0F80
1FC0
38E0
00E0
0FE0
3FE0
70E0
71E0
7FE0
3F60
0000
0000
0000
0000
0000
ENDCHAR
STARTCHAR U+0431
ENCODING 1073
SWIDTH 480 0
DWIDTH 12 0
BBX 12 24 0 -2
BITMAP
0000
0000
0000
0000
0000
1FE0
3FE0
7800
7000
7F80
7FC0
79E0
70E0
70E0
70E0
70E0
79E0
3FC0
1F80
0000
0000
0000
0000
0000
ENDCHAR
STARTCHAR U+0432
ENCODING 1074
SWIDTH 480 0
DWIDTH 12 0
BBX 12 24 0 -2
BITMAP
0000
0000
0000
0000
0000
0000
0000
0000
0000
7F00
7F80
71C0
71C0
7F80
7FC0
71E0
70E0
7FC0
7F80
0000
0000
0000
0000
0000
ENDCHAR
STARTCHAR U+0433
ENCODING 1075
SWIDTH 480 0
DWIDTH 12 0
BBX 12 24 0 -2
BITMAP
0000
0000
0000
0000
0000
0000
0000
0000
0000
7FE0
7FE0
7000
7000
7000
7000
7000
7000
7000
7000
0000
0000
0000
0000
0000
ENDCHAR
STARTCHAR U+0434
ENCODING 1076
SWIDTH 480 0
DWIDTH 12 0
BBX 12 24 0 -2
BITMAP
0000
0000
0000
0000
0000
0000
0000
0000
0000
0FE0
0FE0
1CE0
1CE0
38E0
38E0
70E0
70E0
7FE0
7FE0
0000
0000
0000
0000
0000
ENDCHAR
STARTCHAR U+0435
ENCODING 1077
SWIDTH 480 0
DWIDTH 12 0
BBX 12 24 0 -2
BITMAP
0000
0000
0000
0000
0000
0000
0000
0000
0000
1F80
3FC0
78E0
70E0
7FE0
7FE0
7000
70E0
3FE0
1FC0
0000
0000
0000
0000
0000
ENDCHAR
STARTCHAR U+0436
ENCODING 1078
SWIDTH 480 0
DWIDTH 12 0
BBX 12 24 0 -2
BITMAP
0000
0000
0000
0000
0000
0000
0000
0000
0000
EEE0
EEE0
76C0
76C0
3F80
3F80
76C0
76C0
EEE0
EEE0
0000
0000
0000
0000
0000
ENDCHAR
STARTCHAR U+0437
ENCODING 1079
SWIDTH 480 0
DWIDTH 12 0
BBX 12 24 0 -2
BITMAP
0000
0000
0000
0000
0000
0000
0000
0000
0000
1F80
3FC0
70E0
00E0
0FC0
0FC0
00E0
70E0
3FC0
1F80
0000
0000
0000
0000
0000
ENDCHAR
STARTCHAR U+0438
ENCODING 1080
SWIDTH 480 0
DWIDTH 12 0
BBX 12 24 0 -2
BITMAP
0000
0000
0000
0000
0000
0000
0000
0000
0000
70E0
70E0
71E0
73E0
7760
76E0
7CE0
78E0
70E0
70E0
0000
0000
0000
0000
0000
ENDCHAR
STARTCHAR U+0439
ENCODING 1081
SWIDTH 480 0
DWIDTH 12 0
BBX 12 24 0 -2
BITMAP
0000
0000
0000
0000
39C0
39C0
1F80
0000
0000
70E0
70E0
71E0
73E0
7760
76E0
7CE0
78E0
70E0
70E0
0000
0000
0000
0000
0000
ENDCHAR
STARTCHAR U+043A
ENCODING 1082
SWIDTH 480 0
DWIDTH 12 0
BBX 12 24 0 -2
BITMAP
0000
0000
0000
0000
0000
0000
0000
0000
0000
71E0
73E0
7780
7700
7E00
7F00
7780
73C0
71E0
70E0
0000
0000
0000
0000
0000
ENDCHAR
STARTCHAR U+043B
ENCODING 1083
SWIDTH 480 0
DWIDTH 12 0
BBX 12 24 0 -2
BITMAP
0000
0000
0000
0000
0000
0000
0000
0000
0000
1FE0
1FE0
1CE0
1CE0
1CE0
1CE0
1CE0
38E0
38E0
70E0
0000
0000
0000
0000
0000
ENDCHAR
STARTCHAR U+043C
ENCODING 1084
SWIDTH 480 0
DWIDTH 12 0
BBX 12 24 0 -2
BITMAP
0000
0000
0000
0000
0000
0000
0000
0000
0000
70E0
79E0
79E0
7DE0
7FE0
7760
7760
76E0
70E0
70E0
0000
0000
0000
0000
0000
ENDCHAR
STARTCHAR U+043D
ENCODING 1085
SWIDTH 480 0
DWIDTH 12 0
BBX 12 24 0 -2
BITMAP
0000
0000
0000
0000
0000
0000
0000
0000
0000
70E0
70E0
70E0
70E0
7FE0
7FE0
70E0
70E0
70E0
70E0
0000
0000
0000
0000
0000
ENDCHAR
STARTCHAR U+043E
ENCODING 1086
SWIDTH 480 0
DWIDTH 12 0
BBX 12 24 0 -2
BITMAP
0000
0000
0000
0000
0000
0000
0000
0000
0000
1F80
3FC0
79E0
70E0
70E0
70E0
70E0
79E0
3FC0
1F80
0000
0000
0000
0000
0000
ENDCHAR
STARTCHAR U+043F
ENCODING 1087
SWIDTH 480 0
DWIDTH 12 0
BBX 12 24 0 -2
BITMAP
0000
0000
0000
0000
0000
0000
0000
0000
0000
7FE0
7FE0
70E0
70E0
70E0
70E0
70E0
70E0
70E0
70E0
0000
0000
0000
0000
0000
ENDCHAR
STARTCHAR U+0440
ENCODING 1088
SWIDTH 480 0
DWIDTH 12 0
BBX 12 24 0 -2
BITMAP
0000
0000
0000
0000
0000
0000
0000
0000
0000
7780
77C0
7DE0
78E0
70E0
70E0
78E0
7DE0
77C0
7780
7000
7000
7000
7000
0000
ENDCHAR
STARTCHAR U+0441
ENCODING 1089
SWIDTH 480 0
DWIDTH 12 0
BBX 12 24 0 -2
BITMAP
0000
0000
0000
0000
0000
0000
0000
0000
0000
0FC0
3FC0
78E0
70E0
7000
7000
7000
78E0
3FE0
1FC0
0000
0000
0000
0000
0000
ENDCHAR
STARTCHAR U+0442
ENCODING 1090
SWIDTH 480 0
DWIDTH 12 0
BBX 12 24 0 -2
BITMAP
0000
0000
0000
0000
0000
0000
0000
0000
0000
FFE0
FFE0
0E00
0E00
0E00
0E00
0E00
0E00
0E00
0E00
0000
0000
0000
0000
0000
ENDCHAR
STARTCHAR U+0443
ENCODING 1091
SWIDTH 480 0
DWIDTH 12 0
BBX 12 24 0 -2
BITMAP
0000
0000
0000
0000
0000
0000
0000
0000
0000
70E0
70E0
70E0
79E0
39C0
3DC0
1D80
1F80
0F00
0F00
0E00
1E00
1C00
3C00
3800
ENDCHAR
STARTCHAR U+0444
ENCODING 1092
SWIDTH 480 0
DWIDTH 12 0
BBX 12 24 0 -2
BITMAP
0000
0000
0000
0000
0000
0000
0000
0E00
0E00
0E00
7FC0
FFE0
EEE0
EEE0
EEE0
EEE0
FFE0
7FC0
0E00
0E00
0E00
0000
0000
0000
ENDCHAR
STARTCHAR U+0445
ENCODING 1093
SWIDTH 480 0
DWIDTH 12 0
BBX 12 24 0 -2
BITMAP
0000
0000
0000
0000
0000
0000
0000
0000
0000
70E0
79E0
3DC0
1F80
0F00
0F00
1F80
3DC0
79E0
70E0
0000
0000
0000
0000
0000
ENDCHAR
STARTCHAR U+0446
ENCODING 1094
SWIDTH 480 0
DWIDTH 12 0
BBX 12 24 0 -2
BITMAP
0000
0000
0000
0000
0000
0000
0000
0000
0000
71C0
71C0
71C0
71C0
71C0
71C0
71C0
71C0
7FC0
7FC0
01C0
01C0
00E0
0000
0000
ENDCHAR
STARTCHAR U+0447
ENCODING 1095
SWIDTH 480 0
DWIDTH 12 0
BBX 12 24 0 -2
BITMAP
0000
0000
0000
0000
0000
0000
0000
0000
0000
70E0
70E0
70E0
70E0
7BE0
3FE0
1EE0
00E0
00E0
00E0
0000
0000
0000
0000
0000
ENDCHAR
STARTCHAR U+0448
ENCODING 1096
SWIDTH 480 0
DWIDTH 12 0
BBX 12 24 0 -2
BITMAP
0000
0000
0000
0000
0000
0000
0000
0000
0000
EEE0
EEE0
EEE0
EEE0
EEE0
EEE0
EEE0
EEE0
FFE0
FFE0
0000
0000
0000
0000
0000
ENDCHAR
STARTCHAR U+0449
ENCODING 1097
SWIDTH 480 0
DWIDTH 12 0
BBX 12 24 0 -2
BITMAP
0000
0000
0000
0000
0000
0000
0000
0000
0000
EEE0
EEE0
EEE0
EEE0
EEE0
EEE0
EEE0
EEE0
FFE0
FFE0
00E0
00E0
0070
0000
0000
ENDCHAR
STARTCHAR U+044A
ENCODING 1098
SWIDTH 480 0
DWIDTH 12 0
BBX 12 24 0 -2
BITMAP
0000
0000
0000
0000
0000
0000
0000
0000
0000
7C00
7C00
1C00
1FC0
1FE0
1CE0
1CE0
1CE0
1FE0
1FC0
0000
0000
0000
0000
0000
ENDCHAR
STARTCHAR U+044B
ENCODING 1099
SWIDTH 480 0
DWIDTH 12 0
BBX 12 24 0 -2
BITMAP
0000
0000
0000
0000
0000
0000
0000
0000
0000
70E0
70E0
70E0
7EE0
7F60
7760
7760
7760
7F60
7EE0
0000
0000
0000
0000
0000
ENDCHAR
STARTCHAR U+044C
ENCODING 1100
SWIDTH 480 0
DWIDTH 12 0
BBX 12 24 0 -2
BITMAP
0000
0000
0000
0000
0000
0000
0000
0000
0000
7000
7000
7000
7F00
7F80
71C0
71C0
71C0
7F80
7F00
0000
0000
0000
0000
0000
ENDCHAR
STARTCHAR U+044D
ENCODING 1101
SWIDTH 480 0
DWIDTH 12 0
BBX 12 24 0 -2
BITMAP
0000
0000
0000
0000
0000
0000
0000
0000
0000
1F80
3FC0
70E0
00E0
0FE0
0FE0
00E0
70E0
3FC0
1F80
0000
0000
0000
0000
0000
ENDCHAR
STARTCHAR U+044E
ENCODING 1102
SWIDTH 480 0
DWIDTH 12 0
BBX 12 24 0 -2
BITMAP
0000
0000
0000
0000
0000
0000
0000
0000
0000
E7C0
EFE0
EEE0
EEE0
FEE0
FEE0
EEE0
EEE0
EFE0
E7C0
0000
0000
0000
0000
0000
ENDCHAR
STARTCHAR U+044F
ENCODING 1103
SWIDTH 480 0
DWIDTH 12 0
BBX 12 24 0 -2
BITMAP
0000
0000
0000
0000
0000
0000
0000
0000
0000
1FE0
3FE0
70E0
70E0
3FE0
1FE0
1CE0
3CE0
78E0
70E0
0000
0000
0000
0000
0000
ENDCHAR
STARTCHAR U+0451
ENCODING 1105
SWIDTH 480 0
DWIDTH 12 0
BBX 12 24 0 -2
BITMAP
0000
0000
0000
0000
0000
39C0
39C0
0000
0000
1F80
3FC0
78E0
70E0
7FE0
7FE0
7000
70E0
3FE0
1FC0
0000
0000
0000
0000
0000
ENDCHAR
STARTCHAR U+0452
ENCODING 1106
SWIDTH 480 0
DWIDTH 12 0
BBX 12 24 0 -2
BITMAP
0000
0000
0000
0000
0000
1C00
1C00
1C00
7F80
7F80
1C00
1C00
1FC0
1FE0
1CE0
1CE0
1CE0
1CE0
1CE0
00E0
03E0
03C0
0000
0000
ENDCHAR
STARTCHAR U+0453
ENCODING 1107
SWIDTH 480 0
DWIDTH 12 0
BBX 12 24 0 -2
BITMAP
0000
0000
0000
0000
0700
0F00
1C00
0000
0000
7FE0
7FE0
7000
7000
7000
7000
7000
7000
7000
7000
0000
0000
0000
0000
0000
ENDCHAR
STARTCHAR U+0454
ENCODING 1108
SWIDTH 480 0
DWIDTH 12 0
BBX 12 24 0 -2
BITMAP
0000
0000
0000
0000
0000
0000
0000
0000
0000
1F80
3FC0
70E0
7000
7F00
7F00
7000
70E0
3FC0
1F80
0000
0000
0000
0000
0000
ENDCHAR
STARTCHAR U+0455
ENCODING 1109
SWIDTH 480 0
DWIDTH 12 0
BBX 12 24 0 -2
BITMAP
0000
0000
0000
0000
0000
0000
0000
0000
0000
3FC0
7FE0
7060
7000
3F80
1FC0
00E0
70E0
7FE0
3FC0
0000
0000
0000
0000
0000
ENDCHAR
STARTCHAR U+0456
ENCODING 1110
SWIDTH 480 0
DWIDTH 12 0
BBX 12 24 0 -2
BITMAP
0000
0000
0000
0000
0000
0E00
0E00
0000
0000
0E00
0E00
0E00
0E00
0E00
0E00
0E00
0E00
0E00
0E00
0000
0000
0000
0000
0000
ENDCHAR
STARTCHAR U+0457
ENCODING 1111
SWIDTH 480 0
DWIDTH 12 0
BBX 12 24 0 -2
BITMAP
0000
0000
0000
0000
0000
3B80
3B80
0000
0000
0E00
0E00
0E00
0E00
0E00
0E00
0E00
0E00
0E00
0E00
0000
0000
0000
0000
0000
ENDCHAR
STARTCHAR U+0458
ENCODING 1112
SWIDTH 480 0
DWIDTH 12 0
BBX 12 24 0 -2
BITMAP
0000
0000
0000
0000
0000
0E00
0E00
0000
0000
0E00
0E00
0E00
0E00
0E00
0E00
0E00
0E00
0E00
0E00
0E00
0E00
7E00
7800
0000
ENDCHAR
STARTCHAR U+0459
ENCODING 1113
SWIDTH 480 0
DWIDTH 12 0
BBX 12 24 0 -2
BITMAP
0000
0000
0000
0000
0000
0000
0000
0000
0000
3F00
3F00
3B00
3BC0
3BE0
3B60
3B60
3B60
FBE0
E7C0
0000
0000
0000
0000
0000
ENDCHAR
STARTCHAR U+045A
ENCODING 1114
SWIDTH 480 0
DWIDTH 12 0
BBX 12 24 0 -2
BITMAP
0000
0000
0000
0000
0000
0000
0000
0000
0000
EE00
EE00
EE00
EFC0
FFE0
FEE0
EEE0
EEE0
EFE0
EFC0
0000
0000
0000
0000
0000
ENDCHAR
STARTCHAR U+045B
ENCODING 1115
SWIDTH 480 0
DWIDTH 12 0
BBX 12 24 0 -2
BITMAP
0000
0000
0000
0000
0000
1C00
1C00
1C00
7F80
7F80
1C00
1C00
1DC0
1FE0
1EE0
1CE0
1CE0
1CE0
1CE0
0000
0000
0000
0000
0000
ENDCHAR
STARTCHAR U+045C
ENCODING 1116
SWIDTH 480 0
DWIDTH 12 0
BBX 12 24 0 -2
BITMAP
0000
0000
0000
0000
0700
0F00
1C00
0000
0000
71E0
73E0
7780
7700
7E00
7F00
7780
73C0
71E0
70E0
0000
0000
0000
0000
0000
ENDCHAR
STARTCHAR U+045E
ENCODING 1118
SWIDTH 480 0
DWIDTH 12 0
BBX 12 24 0 -2
BITMAP
0000
0000
0000
0000
39C0
39C0
1F80
0000
0000
70E0
70E0
70E0
79E0
39C0
3DC0
1D80
1F80
0F00
0F00
0E00
1E00
1C00
3C00
3800
ENDCHAR
STARTCHAR U+045F
ENCODING 1119
SWIDTH 480 0
DWIDTH 12 0
BBX 12 24 0 -2
BITMAP
0000
0000
0000
0000
0000
0000
0000
0000
0000
71C0
71C0
71C0
71C0
71C0
71C0
71C0
71C0
7FC0
7FC0
0E00
0E00
0E00
0E00
0E00
ENDCHAR
STARTCHAR U+0460
ENCODING 1120
SWIDTH 480 0
DWIDTH 12 0
BBX 12 24 0 -2
BITMAP
0000
0000
0000
0000
0000
7BC0
7BC0
E0E0
E0E0
E0E0
EEE0
EEE0
EEE0
EEE0
EEE0
EEE0
EEE0
7FC0
3B80
0000
0000
0000
0000
0000
ENDCHAR
STARTCHAR U+0461
ENCODING 1121
SWIDTH 480 0
DWIDTH 12 0
BBX 12 24 0 -2
BITMAP
0000
0000
0000
0000
0000
0000
0000
0000
0000
E0E0
E0E0
E0E0
EEE0
EEE0
EEE0
EEE0
EEE0
7FC0
3B80
0000
0000
0000
0000
0000
ENDCHAR
STARTCHAR U+0462
ENCODING 1122
SWIDTH 480 0
DWIDTH 12 0
BBX 12 24 0 -2
BITMAP
0000
0000
0000
0000
0000
3800
FF00
FF00
3800
3800
3F80
3FC0
39E0
38E0
38E0
38E0
39E0
3FC0
3F80
0000
0000
0000
0000
0000
ENDCHAR
STARTCHAR U+0463
ENCODING 1123
SWIDTH 480 0
DWIDTH 12 0
BBX 12 24 0 -2
BITMAP
0000
0000
0000
0000
0000
1C00
1C00
1C00
7F80
7F80
1C00
1C00
1FC0
1FE0
1CE0
1CE0
1CE0
1FE0
1FC0
0000
0000
0000
0000
0000
ENDCHAR
STARTCHAR U+0464
ENCODING 1124
SWIDTH 480 0
DWIDTH 12 0
BBX 12 24 0 -2
BITMAP
0000
0000
0000
0000
0000
E7C0
EFE0
EEE0
EC60
EC00
EC00
FF80
FF80
EC00
EC00
EC60
EEE0
EFE0
E7C0
0000
0000
0000
0000
0000
ENDCHAR
STARTCHAR U+0465
ENCODING 1125
SWIDTH 480 0
DWIDTH 12 0
BBX 12 24 0 -2
BITMAP
0000
0000
0000
0000
0000
0000
0000
0000
0000
E7C0
EFE0
EC60
EC00
FF80
FF80
EC00
EC60
EFE0
E7C0
0000
0000
0000
0000
0000
ENDCHAR
STARTCHAR U+0466
ENCODING 1126
SWIDTH 480 0
DWIDTH 12 0
BBX 12 24 0 -2
BITMAP
0000
0000
0000
0000
0000
0E00
0E00
1F00
1F00
3B80
3B80
71C0
7BC0
7FC0
EF60
EEE0
EEE0
EEE0
EEE0
0000
0000
0000
0000
0000
ENDCHAR
STARTCHAR U+0467
ENCODING 1127
SWIDTH 480 0
DWIDTH 12 0
BBX 12 24 0 -2
BITMAP
0000
0000
0000
0000
0000
0000
0000
0000
0000
0E00
0E00
1F00
1F00
3B80
3B80
3F80
76C0
76C0
76C0
0000
0000
0000
0000
0000
ENDCHAR
STARTCHAR U+0468
ENCODING 1128
SWIDTH 480 0
DWIDTH 12 0
BBX 12 24 0 -2
BITMAP
0000
0000
0000
0000
0000
E380
E380
E7C0
E7C0
E7C0
EEE0
EEE0
FFE0
FFE0
EDB0
EDB0
EDB0
EDB0
EDB0
0000
0000
0000
0000
0000
ENDCHAR
STARTCHAR U+0469
ENCODING 1129
SWIDTH 480 0
DWIDTH 12 0
BBX 12 24 0 -2
BITMAP
0000
0000
0000
0000
0000
0000
0000
0000
0000
E380
E380
E7C0
E7C0
EEE0
EEE0
FFE0
EDB0
EDB0
EDB0
0000
0000
0000
0000
0000
ENDCHAR
STARTCHAR U+046A
ENCODING 1130
SWIDTH 480 0
DWIDTH 12 0
BBX 12 24 0 -2
BITMAP
0000
0000
0000
0000
0000
7FC0
7FC0
71C0
71C0
3B80
1F00
0E00
1F00
3F80
76C0
EEE0
EEE0
EEE0
EEE0
0000
0000
0000
0000
0000
ENDCHAR
STARTCHAR U+046B
ENCODING 1131
SWIDTH 480 0
DWIDTH 12 0
BBX 12 24 0 -2
BITMAP
0000
0000
0000
0000
0000
0000
0000
0000
0000
7FC0
7FC0
3B80
1F00
0E00
1F00
3F80
76C0
76C0
76C0
0000
0000
0000
0000
0000
ENDCHAR
STARTCHAR U+046C
ENCODING 1132
SWIDTH 480 0
DWIDTH 12 0
BBX 12 24 0 -2
BITMAP
0000
0000
0000
0000
0000
EFF0
EFF0
EC70
EC70
EEE0
E7C0
FF80
FFC0
EFE0
EDB0
EDB0
EDB0
EDB0
EDB0
0000
0000
0000
0000
0000
ENDCHAR
STARTCHAR U+046D
ENCODING 1133
SWIDTH 480 0
DWIDTH 12 0
BBX 12 24 0 -2
BITMAP
0000
0000
0000
0000
0000
0000
0000
0000
0000
EFF0
EFF0
EEE0
E7C0
FF80
FFC0
EFE0
EDB0
EDB0
EDB0
0000
0000
0000
0000
0000
ENDCHAR
STARTCHAR U+046E
ENCODING 1134
SWIDTH 480 0
DWIDTH 12 0
BBX 12 24 0 -2
BITMAP
0000
0000
3B80
1F00
0E00
1F80
3FC0
70E0
70E0
00E0
01C0
0F80
0F80
01C0
00E0
00E0
00E0
3FC0
7F80
7000
7000
7000
0000
0000
ENDCHAR
STARTCHAR U+046F
ENCODING 1135
SWIDTH 480 0
DWIDTH 12 0
BBX 12 24 0 -2
BITMAP
0000
0000
0000
0000
3B80
1F00
0E00
0000
0000
1F80
3FC0
70E0
00E0
0FC0
0FC0
00E0
00E0
3FC0
7F80
7000
7000
7000
0000
0000
ENDCHAR
STARTCHAR U+0470
ENCODING 1136
SWIDTH 480 0
DWIDTH 12 0
BBX 12 24 0 -2
BITMAP
0000
0000
0000
0000
0000
EEE0
EEE0
EEE0
EEE0
EEE0
EEE0
F6E0
7FC0
3F80
0E00
0E00
0E00
0E00
0E00
0000
0000
0000
0000
0000
ENDCHAR
STARTCHAR U+0471
ENCODING 1137
SWIDTH 480 0
DWIDTH 12 0
BBX 12 24 0 -2
BITMAP
0000
0000
0000
0000
0000
0000
0E00
0E00
0E00
EEE0
EEE0
EEE0
EEE0
EEE0
EEE0
EEE0
F6E0
7FC0
3F80
0E00
0E00
0E00
0E00
0E00
ENDCHAR
STARTCHAR U+0472
ENCODING 1138
SWIDTH 480 0
DWIDTH 12 0
BBX 12 24 0 -2
BITMAP
0000
0000
0000
0000
0000
1F80
3FC0
79E0
70E0
70E0
70E0
7760
7760
70E0
70E0
70E0
79E0
3FC0
1F80
0000
0000
0000
0000
0000
ENDCHAR
STARTCHAR U+0473
ENCODING 1139
SWIDTH 480 0
DWIDTH 12 0
BBX 12 24 0 -2
BITMAP
0000
0000
0000
0000
0000
0000
0000
0000
0000
1F80
3FC0
79E0
70E0
7760
7760
70E0
79E0
3FC0
1F80
0000
0000
0000
0000
0000
ENDCHAR
STARTCHAR U+0474
ENCODING 1140
SWIDTH 480 0
DWIDTH 12 0
BBX 12 24 0 -2
BITMAP
0000
0000
0000
0000
0000
E1E0
E3E0
E360
E700
E700
7700
7600
7600
7600
7400
3C00
3800
3800
3800
0000
0000
0000
0000
0000
ENDCHAR
STARTCHAR U+0475
ENCODING 1141
SWIDTH 480 0
DWIDTH 12 0
BBX 12 24 0 -2
BITMAP
0000
0000
0000
0000
0000
0000
0000
0000
0000
71E0
73E0
7760
3B00
3B00
3A00
1E00
1C00
1C00
1C00
0000
0000
0000
0000
0000
ENDCHAR
STARTCHAR U+0476
ENCODING 1142
SWIDTH 480 0
DWIDTH 12 0
BBX 12 24 0 -2
BITMAP
E700
F780
39C0
0000
0000
E1E0
E3E0
E360
E700
E700
7700
7600
7600
7600
7400
3C00
3800
3800
3800
0000
0000
0000
0000
0000
ENDCHAR
STARTCHAR U+0477
ENCODING 1143
SWIDTH 480 0
DWIDTH 12 0
BBX 12 24 0 -2
BITMAP
0000
0000
0000
0000
7380
7BC0
1CE0
0000
0000
71E0
73E0
7760
3B00
3B00
3A00
1E00
1C00
1C00
1C00
0000
0000
0000
0000
0000
ENDCHAR
STARTCHAR U+0478
ENCODING 1144
SWIDTH 480 0
DWIDTH 12 0
BBX 12 24 0 -2
BITMAP
0000
0000
0000
0000
0000
7800
FC00
EC00
EC00
EF60
EF60
EF60
EF60
ED40
EDC0
EDC0
EDC0
FD80
7B80
0380
0700
0700
0000
0000
ENDCHAR
STARTCHAR U+0479
ENCODING 1145
SWIDTH 480 0
DWIDTH 12 0
BBX 12 24 0 -2
BITMAP
0000
0000
0000
0000
0000
0000
0000
0000
0000
7B60
FF60
EF60
EF60
ED40
EDC0
EDC0
EDC0
FD80
7B80
0380
0700
0700
0000
0000
ENDCHAR
STARTCHAR U+047A
ENCODING 1146
SWIDTH 480 0
DWIDTH 12 0
BBX 12 24 0 -2
BITMAP
0000
0000
0000
0000
0E00
3F80
7FC0
EEE0
E0E0
E0E0
E0E0
E0E0
E0E0
E0E0
E0E0
E0E0
E0E0
EEE0
7FC0
3F80
0E00
0000
0000
0000
ENDCHAR
STARTCHAR U+047B
ENCODING 1147
SWIDTH 480 0
DWIDTH 12 0
BBX 12 24 0 -2
BITMAP
0000
0000
0000
0000
0000
0000
0000
0000
0E00
3F80
7FC0
EEE0
E0E0
E0E0
E0E0
E0E0
E0E0
EEE0
7FC0
3F80
0E00
0000
0000
0000
ENDCHAR
STARTCHAR U+047C
ENCODING 1148
SWIDTH 480 0
DWIDTH 12 0
BBX 12 24 0 -2
BITMAP
3F00
FFE0
E1E0
0000
0000
7BC0
7BC0
E0E0
E0E0
E0E0
EEE0
EEE0
EEE0
EEE0
EEE0
EEE0
EEE0
7FC0
3B80
0000
0000
0000
0000
0000
ENDCHAR
STARTCHAR U+047D
ENCODING 1149
SWIDTH 480 0
DWIDTH 12 0
BBX 12 24 0 -2
BITMAP
0000
0000
0000
0000
3F00
FFE0
E1E0
0000
0000
E0E0
E0E0
E0E0
EEE0
EEE0
EEE0
EEE0
EEE0
7FC0
3B80
0000
0000
0000
0000
0000
ENDCHAR
STARTCHAR U+047E
ENCODING 1150
SWIDTH 480 0
DWIDTH 12 0
BBX 12 24 0 -2
BITMAP
7FC0
7FC0
0E00
0000
0000
7BC0
7BC0
E0E0
E0E0
E0E0
EEE0
EEE0
EEE0
EEE0
EEE0
EEE0
EEE0
7FC0
3B80
0000
0000
0000
0000
0000
ENDCHAR
STARTCHAR U+047F
ENCODING 1151
SWIDTH 480 0
DWIDTH 12 0
BBX 12 24 0 -2
BITMAP
0000
0000
0000
0000
7FC0
7FC0
0E00
0000
0000
E0E0
E0E0
E0E0
EEE0
EEE0
EEE0
EEE0
EEE0
7FC0
3B80
0000
0000
0000
0000
0000
ENDCHAR
STARTCHAR U+0480
ENCODING 1152
SWIDTH 480 0
DWIDTH 12 0
BBX 12 24 0 -2
BITMAP
0000
0000
0000
0000
0000
1F80
3FC0
79E0
70E0
7000
7000
7000
7000
7000
7000
7000
7800
3F00
1F80
0380
0380
0380
0000
0000
ENDCHAR
STARTCHAR U+0481
ENCODING 1153
SWIDTH 480 0
DWIDTH 12 0
BBX 12 24 0 -2
BITMAP
0000
0000
0000
0000
0000
0000
0000
0000
0000
1F80
3FC0
79E0
70E0
7000
7000
7000
7800
3F00
1F80
0380
0380
0380
0000
0000
ENDCHAR
STARTCHAR U+0482
ENCODING 1154
SWIDTH 480 0
DWIDTH 12 0
BBX 12 24 0 -2
BITMAP
0000
0000
0000
0000
0000
01C0
01C0
0380
3D80
3F00
07E0
0EE0
F600
FC00
1F80
3B80
3800
7000
7000
0000
0000
0000
0000
0000
ENDCHAR
STARTCHAR U+0490
ENCODING 1168
SWIDTH 480 0
DWIDTH 12 0
BBX 12 24 0 -2
BITMAP
0000
0000
0000
0000
0000
00E0
00E0
7FE0
7FC0
7000
7000
7000
7000
7000
7000
7000
7000
7000
7000
7000
7000
0000
0000
0000
ENDCHAR
STARTCHAR U+0491
ENCODING 1169
SWIDTH 480 0
DWIDTH 12 0
BBX 12 24 0 -2
BITMAP
0000
0000
0000
0000
0000
0000
0000
0000
0000
00E0
00E0
7FE0
7FC0
7000
7000
7000
7000
7000
7000
7000
7000
0000
0000
0000
ENDCHAR
STARTCHAR U+0492
ENCODING 1170
SWIDTH 480 0
DWIDTH 12 0
BBX 12 24 0 -2
BITMAP
0000
0000
0000
0000
0000
3FE0
3FE0
3800
3800
3800
3800
3800
FF00
FF00
3800
3800
3800
3800
3800
0000
0000
0000
0000
0000
ENDCHAR
STARTCHAR U+0493
ENCODING 1171
SWIDTH 480 0
DWIDTH 12 0
BBX 12 24 0 -2
BITMAP
0000
0000
0000
0000
0000
0000
0000
0000
0000
3FE0
3FE0
3800
3800
FF00
FF00
3800
3800
3800
3800
0000
0000
0000
0000
0000
ENDCHAR
STARTCHAR U+0494
ENCODING 1172
SWIDTH 480 0
DWIDTH 12 0
BBX 12 24 0 -2
BITMAP
0000
0000
0000
0000
0000
7FE0
7FE0
7000
7000
7000
7000
7F00
7F80
73C0
71C0
71C0
71C0
71C0
71C0
03C0
0780
0700
0000
0000
ENDCHAR
STARTCHAR U+0495
ENCODING 1173
SWIDTH 480 0
DWIDTH 12 0
BBX 12 24 0 -2
BITMAP
0000
0000
0000
0000
0000
0000
0000
0000
0000
7FE0
7FE0
7000
7000
7F00
7F80
73C0
71C0
71C0
71C0
03C0
0780
0700
0000
0000
ENDCHAR
STARTCHAR U+0496
ENCODING 1174
SWIDTH 480 0
DWIDTH 12 0
BBX 12 24 0 -2
BITMAP
0000
0000
0000
0000
0000
EEE0
EEE0
76C0
76C0
76C0
3F80
3F80
1F00
3F80
3F80
76C0
76C0
EEF0
EEF0
0070
00E0
00E0
0000
0000
ENDCHAR
STARTCHAR U+0497
ENCODING 1175
SWIDTH 480 0
DWIDTH 12 0
BBX 12 24 0 -2
BITMAP
0000
0000
0000
0000
0000
0000
0000
0000
0000
EEE0
EEE0
76C0
76C0
3F80
3F80
76C0
76C0
EEF0
EEF0
0070
00E0
00E0
0000
0000
ENDCHAR
STARTCHAR U+0498
ENCODING 1176
SWIDTH 480 0
DWIDTH 12 0
BBX 12 24 0 -2
BITMAP
0000
0000
0000
0000
0000
1F80
3FC0
70E0
70E0
00E0
01C0
0F80
0F80
01C0
00E0
70E0
70E0
3FC0
1F80
0700
0780
01C0
0FC0
0F80
ENDCHAR
STARTCHAR U+0499
ENCODING 1177
SWIDTH 480 0
DWIDTH 12 0
BBX 12 24 0 -2
BITMAP
0000
0000
0000
0000
0000
0000
0000
0000
0000
1F80
3FC0
70E0
00E0
0FC0
0FC0
00E0
70E0
3FC0
1F80
0700
0780
01C0
0FC0
0F80
ENDCHAR
STARTCHAR U+049A
ENCODING 1178
SWIDTH 480 0
DWIDTH 12 0
BBX 12 24 0 -2
BITMAP
0000
0000
0000
0000
0000
E1C0
E3C0
E700
E700
EE00
EE00
FC00
FC00
EE00
E700
E700
E380
E1E0
E1E0
00E0
01C0
01C0
0000
0000
ENDCHAR
STARTCHAR U+049B
ENCODING 1179
SWIDTH 480 0
DWIDTH 12 0
BBX 12 24 0 -2
BITMAP
0000
0000
0000
0000
0000
0000
0000
0000
0000
E3C0
E7C0
EF00
EE00
FC00
FE00
EF00
E780
E3E0
E1E0
00E0
01C0
01C0
0000
0000
ENDCHAR
STARTCHAR U+049C
ENCODING 1180
SWIDTH 480 0
DWIDTH 12 0
BBX 12 24 0 -2
BITMAP
0000
0000
0000
0000
0000
E0E0
E1E0
E380
ED80
ED80
ED80
FF00
FF00
ED80
ED80
ED80
E1C0
E0E0
E0E0
0000
0000
0000
0000
0000
ENDCHAR
STARTCHAR U+049D
ENCODING 1181
SWIDTH 480 0
DWIDTH 12 0
BBX 12 24 0 -2
BITMAP
0000
0000
0000
0000
0000
0000
0000
0000
0000
E1E0
E3E0
ED80
ED80
FF00
FF00
ED80
EDC0
E1E0
E0E0
0000
0000
0000
0000
0000
ENDCHAR
STARTCHAR U+049E
ENCODING 1182
SWIDTH 480 0
DWIDTH 12 0
BBX 12 24 0 -2
BITMAP
0000
0000
0000
0000
0000
70E0
FDE0
FD80
7380
7700
7700
7E00
7E00
7700
7380
7380
71C0
70E0
70E0
0000
0000
0000
0000
0000
ENDCHAR
STARTCHAR U+049F
ENCODING 1183
SWIDTH 480 0
DWIDTH 12 0
BBX 12 24 0 -2
BITMAP
0000
0000
0000
0000
0000
0000
0000
0000
0000
71E0
FDE0
FD80
7380
7F00
7F00
7380
73C0
71E0
70E0
0000
0000
0000
0000
0000
ENDCHAR
STARTCHAR U+04A0
ENCODING 1184
SWIDTH 480 0
DWIDTH 12 0
BBX 12 24 0 -2
BITMAP
0000
0000
0000
0000
0000
F8E0
F9E0
3B80
3B80
3B00
3B00
3E00
3E00
3B00
3B80
3B80
39C0
38E0
38E0
0000
0000
0000
0000
0000
ENDCHAR
STARTCHAR U+04A1
ENCODING 1185
SWIDTH 480 0
DWIDTH 12 0
BBX 12 24 0 -2
BITMAP
0000
0000
0000
0000
0000
0000
0000
0000
0000
F9E0
FBE0
3B80
3B00
3E00
3F00
3B80
3BC0
39E0
38E0
0000
0000
0000
0000
0000
ENDCHAR
STARTCHAR U+04A2
ENCODING 1186
SWIDTH 480 0
DWIDTH 12 0
BBX 12 24 0 -2
BITMAP
0000
0000
0000
0000
0000
E1C0
E1C0
E1C0
E1C0
E1C0
E1C0
FFC0
FFC0
E1C0
E1C0
E1C0
E1C0
E1E0
E1E0
00E0
01C0
01C0
0000
0000
ENDCHAR
STARTCHAR U+04A3
ENCODING 1187
SWIDTH 480 0
DWIDTH 12 0
BBX 12 24 0 -2
BITMAP
0000
0000
0000
0000
0000
0000
0000
0000
0000
E1C0
E1C0
E1C0
E1C0
FFC0
FFC0
E1C0
E1C0
E1E0
E1E0
00E0
01C0
01C0
0000
0000
ENDCHAR
STARTCHAR U+04A4
ENCODING 1188
SWIDTH 480 0
DWIDTH 12 0
BBX 12 24 0 -2
BITMAP
0000
0000
0000
0000
0000
E7E0
E7E0
E700
E700
E700
E700
FF00
FF00
E700
E700
E700
E700
E700
E700
0000
0000
0000
0000
0000
ENDCHAR
STARTCHAR U+04A5
ENCODING 1189
SWIDTH 480 0
DWIDTH 12 0
BBX 12 24 0 -2
BITMAP
0000
0000
0000
0000
0000
0000
0000
0000
0000
E7E0
E7E0
E700
E700
FF00
FF00
E700
E700
E700
E700
0000
0000
0000
0000
0000
ENDCHAR
STARTCHAR U+04A6
ENCODING 1190
SWIDTH 480 0
DWIDTH 12 0
BBX 12 24 0 -2
BITMAP
0000
0000
0000
0000
0000
FF00
FF00
E700
E700
E700
E700
E7C0
E7E0
E760
E760
E760
E760
E760
E760
00E0
01E0
01C0
0000
0000
ENDCHAR
STARTCHAR U+04A7
ENCODING 1191
SWIDTH 480 0
DWIDTH 12 0
BBX 12 24 0 -2
BITMAP
0000
0000
0000
0000
0000
0000
0000
0000
0000
FF00
FF00
E700
E700
E7C0
E7E0
E760
E760
E760
E760
00E0
01E0
01C0
0000
0000
ENDCHAR
STARTCHAR U+04A8
ENCODING 1192
SWIDTH 480 0
DWIDTH 12 0
BBX 12 24 0 -2
BITMAP
0000
0000
0000
0000
0000
1F00
3F00
7800
F000
E700
EF80
EDC0
EDC0
EDC0
EDC0
F780
7F00
3F00
07E0
03E0
0000
0000
0000
0000
ENDCHAR
STARTCHAR U+04A9
ENCODING 1193
SWIDTH 480 0
DWIDTH 12 0
BBX 12 24 0 -2
BITMAP
0000
0000
0000
0000
0000
0000
0000
0000
1F00
3F00
7800
F780
EFC0
EDC0
EDC0
F7C0
7F80
3F00
07E0
03E0
0000
0000
0000
0000
ENDCHAR
STARTCHAR U+04AA
ENCODING 1194
SWIDTH 480 0
DWIDTH 12 0
BBX 12 24 0 -2
BITMAP
0000
0000
0000
0000
0000
1F80
3FC0
79E0
70E0
7000
7000
7000
7000
7000
7000
70E0
79E0
3FC0
1F80
0700
0F00
1C00
1F80
0F80
ENDCHAR
STARTCHAR U+04AB
ENCODING 1195
SWIDTH 480 0
DWIDTH 12 0
BBX 12 24 0 -2
BITMAP
0000
0000
0000
0000
0000
0000
0000
0000
0000
0FC0
3FC0
78E0
70E0
7000
7000
7000
78E0
3FE0
1FC0
0700
0F00
1C00
1F80
0F80
ENDCHAR
STARTCHAR U+04AC
ENCODING 1196
SWIDTH 480 0
DWIDTH 12 0
BBX 12 24 0 -2
BITMAP
0000
0000
0000
0000
0000
FFE0
FFE0
0E00
0E00
0E00
0E00
0E00
0E00
0E00
0E00
0E00
0E00
0F00
0F00
0700
0E00
0E00
0000
0000
ENDCHAR
STARTCHAR U+04AD
ENCODING 1197
SWIDTH 480 0
DWIDTH 12 0
BBX 12 24 0 -2
BITMAP
0000
0000
0000
0000
0000
0000
0000
0000
0000
FFE0
FFE0
0E00
0E00
0E00
0E00
0E00
0E00
0F00
0F00
0700
0E00
0E00
0000
0000
ENDCHAR
STARTCHAR U+04AE
ENCODING 1198
SWIDTH 480 0
DWIDTH 12 0
BBX 12 24 0 -2
BITMAP
0000
0000
0000
0000
0000
E0E0
E0E0
71C0
71C0
3B80
3F80
1F00
0E00
0E00
0E00
0E00
0E00
0E00
0E00
0000
0000
0000
0000
0000
ENDCHAR
STARTCHAR U+04AF
ENCODING 1199
SWIDTH 480 0
DWIDTH 12 0
BBX 12 24 0 -2
BITMAP
0000
0000
0000
0000
0000
0000
0000
0000
0000
0000
71C0
71C0
71C0
71C0
3B80
3F80
1F00
0E00
0E00
0E00
0E00
0E00
0E00
0E00
ENDCHAR
STARTCHAR U+04B0
ENCODING 1200
SWIDTH 480 0
DWIDTH 12 0
BBX 12 24 0 -2
BITMAP
0000
0000
0000
0000
0000
E0E0
E0E0
71C0
71C0
3B80
3F80
1F00
0E00
0E00
7FC0
7FC0
0E00
0E00
0E00
0000
0000
0000
0000
0000
ENDCHAR
STARTCHAR U+04B1
ENCODING 1201
SWIDTH 480 0
DWIDTH 12 0
BBX 12 24 0 -2
BITMAP
0000
0000
0000
0000
0000
0000
0000
0000
0000
0000
71C0
71C0
71C0
71C0
3B80
3F80
1F00
0E00
7FC0
7FC0
0E00
0E00
0E00
0E00
ENDCHAR
STARTCHAR U+04B2
ENCODING 1202
SWIDTH 480 0
DWIDTH 12 0
BBX 12 24 0 -2
BITMAP
0000
0000
0000
0000
0000
E1C0
E1C0
7380
7380
3B00
3B00
1E00
1E00
3B00
3B00
7380
7380
E1E0
E1E0
00E0
01C0
01C0
0000
0000
ENDCHAR
STARTCHAR U+04B3
ENCODING 1203
SWIDTH 480 0
DWIDTH 12 0
BBX 12 24 0 -2
BITMAP
0000
0000
0000
0000
0000
0000
0000
0000
0000
E1C0
F3C0
7B80
3F00
1E00
1E00
3F00
7B80
F3E0
E1E0
00E0
01C0
01C0
0000
0000
ENDCHAR
STARTCHAR U+04B4
ENCODING 1204
SWIDTH 480 0
DWIDTH 12 0
BBX 12 24 0 -2
BITMAP
0000
0000
0000
0000
0000
FF60
FF60
1CE0
1CE0
1CE0
1CE0
1CE0
1CE0
1CE0
1CE0
1CE0
1CE0
1FE0
1FE0
00E0
00E0
00E0
0000
0000
ENDCHAR
STARTCHAR U+04B5
ENCODING 1205
SWIDTH 480 0
DWIDTH 12 0
BBX 12 24 0 -2
BITMAP
0000
0000
0000
0000
0000
0000
0000
0000
0000
FF60
FF60
1CE0
1CE0
1CE0
1CE0
1CE0
1CE0
1FE0
1FE0
00E0
00E0
0060
0000
0000
ENDCHAR
STARTCHAR U+04B6
ENCODING 1206
SWIDTH 480 0
DWIDTH 12 0
BBX 12 24 0 -2
BITMAP
0000
0000
0000
0000
0000
E1C0
E1C0
E1C0
E1C0
E1C0
E1C0
E3C0
F7C0
7EC0
3DC0
01C0
01C0
01E0
01E0
00E0
01C0
01C0
0000
0000
ENDCHAR
STARTCHAR U+04B7
ENCODING 1207
SWIDTH 480 0
DWIDTH 12 0
BBX 12 24 0 -2
BITMAP
0000
0000
0000
0000
0000
0000
0000
0000
0000
E1C0
E1C0
E1C0
E1C0
F7C0
7FC0
3DC0
01C0
01E0
01E0
00E0
01C0
01C0
0000
0000
ENDCHAR
STARTCHAR U+04B8
ENCODING 1208
SWIDTH 480 0
DWIDTH 12 0
BBX 12 24 0 -2
BITMAP
0000
0000
0000
0000
0000
E0E0
E0E0
E0E0
E0E0
E0E0
EEE0
EEE0
F7E0
7F60
3EE0
0EE0
0EE0
00E0
00E0
0000
0000
0000
0000
0000
ENDCHAR
STARTCHAR U+04B9
ENCODING 1209
SWIDTH 480 0
DWIDTH 12 0
BBX 12 24 0 -2
BITMAP
0000
0000
0000
0000
0000
0000
0000
0000
0000
E0E0
E0E0
EEE0
EEE0
F7E0
7FE0
3EE0
0EE0
0EE0
00E0
0000
0000
0000
0000
0000
ENDCHAR
STARTCHAR U+04BA
ENCODING 1210
SWIDTH 480 0
DWIDTH 12 0
BBX 12 24 0 -2
BITMAP
0000
0000
0000
0000
0000
7000
7000
7000
7000
7780
77C0
7DE0
78E0
70E0
70E0
70E0
70E0
70E0
70E0
0000
0000
0000
0000
0000
ENDCHAR
STARTCHAR U+04BB
ENCODING 1211
SWIDTH 480 0
DWIDTH 12 0
BBX 12 24 0 -2
BITMAP
0000
0000
0000
0000
0000
0000
0000
0000
0000
7000
7000
7000
7780
7FC0
7DE0
70E0
70E0
70E0
70E0
0000
0000
0000
0000
0000
ENDCHAR
STARTCHAR U+04BC
ENCODING 1212
SWIDTH 480 0
DWIDTH 12 0
BBX 12 24 0 -2
BITMAP
0000
0000
0000
0000
0000
7780
F7C0
EEE0
ECE0
ECE0
FCE0
7FE0
3FE0
1C00
1C00
1C00
1EE0
0FE0
07C0
0000
0000
0000
0000
0000
ENDCHAR
STARTCHAR U+04BD
ENCODING 1213
SWIDTH 480 0
DWIDTH 12 0
BBX 12 24 0 -2
BITMAP
0000
0000
0000
0000
0000
0000
0000
0000
0000
0780
EFC0
ECE0
ECE0
FFE0
7FE0
1C00
1CE0
0FE0
07C0
0000
0000
0000
0000
0000
ENDCHAR
STARTCHAR U+04BE
ENCODING 1214
SWIDTH 480 0
DWIDTH 12 0
BBX 12 24 0 -2
BITMAP
0000
0000
0000
0000
0000
7780
F7C0
EEE0
ECE0
ECE0
FCE0
7FE0
3FE0
1C00
1C00
1C00
1EE0
0FE0
07C0
0380
0780
0E00
0FC0
07C0
ENDCHAR
STARTCHAR U+04BF
ENCODING 1215
SWIDTH 480 0
DWIDTH 12 0
BBX 12 24 0 -2
BITMAP
0000
0000
0000
0000
0000
0000
0000
0000
0000
0780
EFC0
ECE0
ECE0
FFE0
7FE0
1C00
1CE0
0FE0
07C0
0380
0780
0E00
0FC0
07C0
ENDCHAR
STARTCHAR U+04C0
ENCODING 1216
SWIDTH 480 0
DWIDTH 12 0
BBX 12 24 0 -2
BITMAP
0000
0000
0000
0000
0000
3F80
3F80
0E00
0E00
0E00
0E00
0E00
0E00
0E00
0E00
0E00
0E00
3F80
3F80
0000
0000
0000
0000
0000
ENDCHAR
STARTCHAR U+04C1
ENCODING 1217
SWIDTH 480 0
DWIDTH 12 0
BBX 12 24 0 -2
BITMAP
71C0
71C0
3F80
0000
0000
EEE0
EEE0
76C0
76C0
76C0
3F80
3F80
1F00
3F80
3F80
76C0
76C0
EEE0
EEE0
0000
0000
0000
0000
0000
ENDCHAR
STARTCHAR U+04C2
ENCODING 1218
SWIDTH 480 0
DWIDTH 12 0
BBX 12 24 0 -2
BITMAP
0000
0000
0000
0000
3B80
3B80
1F00
0000
0000
EEE0
EEE0
76C0
76C0
3F80
3F80
76C0
76C0
EEE0
EEE0
0000
0000
0000
0000
0000
ENDCHAR
STARTCHAR U+04C3
ENCODING 1219
SWIDTH 480 0
DWIDTH 12 0
BBX 12 24 0 -2
BITMAP
0000
0000
0000
0000
0000
E1C0
E3C0
E700
E700
EE00
EC00
FF00
FF80
E3C0
E1C0
E1C0
E1C0
E1C0
E1C0
03C0
1F80
1F00
0000
0000
ENDCHAR
STARTCHAR U+04C4
ENCODING 1220
SWIDTH 480 0
DWIDTH 12 0
BBX 12 24 0 -2
BITMAP
0000
0000
0000
0000
0000
0000
0000
0000
0000
71E0
73E0
7700
7600
7F80
7FC0
70E0
70E0
70E0
70E0
01E0
0FC0
0F80
0000
0000
ENDCHAR
STARTCHAR U+04C7
ENCODING 1223
SWIDTH 480 0
DWIDTH 12 0
BBX 12 24 0 -2
BITMAP
0000
0000
0000
0000
0000
70E0
70E0
70E0
70E0
70E0
70E0
7FE0
7FE0
70E0
70E0
70E0
70E0
70E0
70E0
01E0
0FC0
0F80
0000
0000
ENDCHAR
STARTCHAR U+04C8
ENCODING 1224
SWIDTH 480 0
DWIDTH 12 0
BBX 12 24 0 -2
BITMAP
0000
0000
0000
0000
0000
0000
0000
0000
0000
70E0
70E0
70E0
70E0
7FE0
7FE0
70E0
70E0
70E0
70E0
01E0
0FC0
0F80
0000
0000
ENDCHAR
STARTCHAR U+04CB
ENCODING 1227
SWIDTH 480 0
DWIDTH 12 0
BBX 12 24 0 -2
BITMAP
0000
0000
0000
0000
0000
70E0
70E0
70E0
70E0
70E0
70E0
71E0
7BE0
3F60
1EE0
00E0
00E0
00E0
03E0
03C0
0380
0300
0000
0000
ENDCHAR
STARTCHAR U+04CC
ENCODING 1228
SWIDTH 480 0
DWIDTH 12 0
BBX 12 24 0 -2
BITMAP
0000
0000
0000
0000
0000
0000
0000
0000
0000
70E0
70E0
70E0
70E0
7BE0
3FE0
1EE0
00E0
00E0
03E0
03C0
0380
0300
0000
0000
ENDCHAR
STARTCHAR U+04D0
ENCODING 1232
SWIDTH 480 0
DWIDTH 12 0
BBX 12 24 0 -2
BITMAP
39C0
39C0
1F80
0000
0000
1F80
3FC0
79E0
70E0
70E0
70E0
7FE0
7FE0
70E0
70E0
70E0
70E0
70E0
70E0
0000
0000
0000
0000
0000
ENDCHAR
STARTCHAR U+04D1
ENCODING 1233
SWIDTH 480 0
DWIDTH 12 0
BBX 12 24 0 -2
BITMAP
0000
0000
0000
1DC0
1DC0
0F80
0000
0000
0F80
1FC0
38E0
00E0
0FE0
3FE0
70E0
71E0
73E0
7F60
3EE0
0000
0000
0000
0000
0000
ENDCHAR
STARTCHAR U+04D2
ENCODING 1234
SWIDTH 480 0
DWIDTH 12 0
BBX 12 24 0 -2
BITMAP
0000
39C0
39C0
0000
0000
1F80
3FC0
79E0
70E0
70E0
70E0
7FE0
7FE0
70E0
70E0
70E0
70E0
70E0
70E0
0000
0000
0000
0000
0000
ENDCHAR
STARTCHAR U+04D3
ENCODING 1235
SWIDTH 480 0
DWIDTH 12 0
BBX 12 24 0 -2
BITMAP
0000
0000
0000
0000
1DC0
1DC0
0000
0000
0F80
1FC0
38E0
00E0
0FE0
3FE0
70E0
71E0
73E0
7F60
3EE0
0000
0000
0000
0000
0000
ENDCHAR
STARTCHAR U+04D4
ENCODING 1236
SWIDTH 480 0
DWIDTH 12 0
BBX 12 24 0 -2
BITMAP
0000
0000
0000
0000
0000
3FE0
3FE0
7700
7700
E700
E7E0
FFE0
FF00
E700
E700
E700
E700
E7E0
E7E0
0000
0000
0000
0000
0000
ENDCHAR
STARTCHAR U+04D5
ENCODING 1237
SWIDTH 480 0
DWIDTH 12 0
BBX 12 24 0 -2
BITMAP
0000
0000
0000
0000
0000
0000
0000
0000
7BC0
FFE0
CEE0
0EE0
3FE0
7FC0
EE00
EE00
EEE0
FFE0
7FC0
0000
0000
0000
0000
0000
ENDCHAR
STARTCHAR U+04D6
ENCODING 1238
SWIDTH 480 0
DWIDTH 12 0
BBX 12 24 0 -2
BITMAP
39C0
39C0
1F80
0000
0000
7FE0
7FE0
7000
7000
7000
7000
7F80
7F80
7000
7000
7000
7000
7FE0
7FE0
0000
0000
0000
0000
0000
ENDCHAR
STARTCHAR U+04D7
ENCODING 1239
SWIDTH 480 0
DWIDTH 12 0
BBX 12 24 0 -2
BITMAP
0000
0000
0000
1DC0
1DC0
0F80
0000
0000
0000
1F80
3FC0
78E0
70E0
7FE0
7FE0
7000
70E0
3FE0
1FC0
0000
0000
0000
0000
0000
ENDCHAR
STARTCHAR U+04D8
ENCODING 1240
SWIDTH 480 0
DWIDTH 12 0
BBX 12 24 0 -2
BITMAP
0000
0000
0000
0000
0000
3F80
7FC0
F1E0
E0E0
00E0
00E0
00E0
FFE0
FFE0
E0E0
E0E0
F1E0
7FC0
3F80
0000
0000
0000
0000
0000
ENDCHAR
STARTCHAR U+04D9
ENCODING 1241
SWIDTH 480 0
DWIDTH 12 0
BBX 12 24 0 -2
BITMAP
0000
0000
0000
0000
0000
0000
0000
0000
0000
3F80
7FC0
70E0
00E0
7FE0
7FE0
70E0
71E0
3FC0
1F80
0000
0000
0000
0000
0000
ENDCHAR
STARTCHAR U+04DA
ENCODING 1242
SWIDTH 480 0
DWIDTH 12 0
BBX 12 24 0 -2
BITMAP
0000
3B80
3B80
0000
0000
3F80
7FC0
F1E0
E0E0
00E0
00E0
00E0
FFE0
FFE0
E0E0
E0E0
F1E0
7FC0
3F80
0000
0000
0000
0000
0000
ENDCHAR
STARTCHAR U+04DB
ENCODING 1243
SWIDTH 480 0
DWIDTH 12 0
BBX 12 24 0 -2
BITMAP
0000
0000
0000
0000
0000
39C0
39C0
0000
0000
3F80
7FC0
70E0
00E0
7FE0
7FE0
70E0
71E0
3FC0
1F80
0000
0000
0000
0000
0000
ENDCHAR
STARTCHAR U+04DC
ENCODING 1244
SWIDTH 480 0
DWIDTH 12 0
BBX 12 24 0 -2
BITMAP
0000
3B80
3B80
0000
0000
EEE0
EEE0
76C0
76C0
76C0
3F80
3F80
1F00
3F80
3F80
76C0
76C0
EEE0
EEE0
0000
0000
0000
0000
0000
ENDCHAR
STARTCHAR U+04DD
ENCODING 1245
SWIDTH 480 0
DWIDTH 12 0
BBX 12 24 0 -2
BITMAP
0000
0000
0000
0000
0000
3B80
3B80
0000
0000
EEE0
EEE0
76C0
76C0
3F80
3F80
76C0
76C0
EEE0
EEE0
0000
0000
0000
0000
0000
ENDCHAR
STARTCHAR U+04DE
ENCODING 1246
SWIDTH 480 0
DWIDTH 12 0
BBX 12 24 0 -2
BITMAP
0000
39C0
39C0
0000
0000
1F80
3FC0
70E0
70E0
00E0
01C0
0F80
0F80
01C0
00E0
70E0
70E0
3FC0
1F80
0000
0000
0000
0000
0000
ENDCHAR
STARTCHAR U+04DF
ENCODING 1247
SWIDTH 480 0
DWIDTH 12 0
BBX 12 24 0 -2
BITMAP
0000
0000
0000
0000
0000
39C0
39C0
0000
0000
1F80
3FC0
70E0
00E0
0FC0
0FC0
00E0
70E0
3FC0
1F80
0000
0000
0000
0000
0000
ENDCHAR
STARTCHAR U+04E0
ENCODING 1248
SWIDTH 480 0
DWIDTH 12 0
BBX 12 24 0 -2
BITMAP
0000
0000
0000
0000
0000
7FC0
7FC0
0380
0700
0E00
1F80
1FC0
01E0
00E0
00E0
00E0
71E0
7FC0
3F80
0000
0000
0000
0000
0000
ENDCHAR
STARTCHAR U+04E1
ENCODING 1249
SWIDTH 480 0
DWIDTH 12 0
BBX 12 24 0 -2
BITMAP
0000
0000
0000
0000
0000
0000
0000
0000
0000
3F80
3F80
0380
0700
0E00
1F00
1F80
03C0
01C0
01C0
01C0
73C0
7F80
3F00
0000
ENDCHAR
STARTCHAR U+04E2
ENCODING 1250
SWIDTH 480 0
DWIDTH 12 0
BBX 12 24 0 -2
BITMAP
0000
3FC0
3FC0
0000
0000
70E0
71E0
71E0
73E0
73E0
7760
7760
76E0
76E0
7CE0
7CE0
78E0
78E0
70E0
0000
0000
0000
0000
0000
ENDCHAR
STARTCHAR U+04E3
ENCODING 1251
SWIDTH 480 0
DWIDTH 12 0
BBX 12 24 0 -2
BITMAP
0000
0000
0000
0000
0000
3FC0
3FC0
0000
0000
70E0
70E0
71E0
73E0
7760
76E0
7CE0
78E0
70E0
70E0
0000
0000
0000
0000
0000
ENDCHAR
STARTCHAR U+04E4
ENCODING 1252
SWIDTH 480 0
DWIDTH 12 0
BBX 12 24 0 -2
BITMAP
0000
39C0
39C0
0000
0000
70E0
71E0
71E0
73E0
73E0
7760
7760
76E0
76E0
7CE0
7CE0
78E0
78E0
70E0
0000
0000
0000
0000
0000
ENDCHAR
STARTCHAR U+04E5
ENCODING 1253
SWIDTH 480 0
DWIDTH 12 0
BBX 12 24 0 -2
BITMAP
0000
0000
0000
0000
0000
39C0
39C0
0000
0000
70E0
70E0
71E0
73E0
7760
76E0
7CE0
78E0
70E0
70E0
0000
0000
0000
0000
0000
ENDCHAR
STARTCHAR U+04E6
ENCODING 1254
SWIDTH 480 0
DWIDTH 12 0
BBX 12 24 0 -2
BITMAP
0000
39C0
39C0
0000
0000
1F80
3FC0
79E0
70E0
70E0
70E0
70E0
70E0
70E0
70E0
70E0
79E0
3FC0
1F80
0000
0000
0000
0000
0000
ENDCHAR
STARTCHAR U+04E7
ENCODING 1255
SWIDTH 480 0
DWIDTH 12 0
BBX 12 24 0 -2
BITMAP
0000
0000
0000
0000
0000
39C0
39C0
0000
0000
1F80
3FC0
79E0
70E0
70E0
70E0
70E0
79E0
3FC0
1F80
0000
0000
0000
0000
0000
ENDCHAR
STARTCHAR U+04E8
ENCODING 1256
SWIDTH 480 0
DWIDTH 12 0
BBX 12 24 0 -2
BITMAP
0000
0000
0000
0000
0000
1F80
3FC0
79E0
70E0
70E0
70E0
7FE0
7FE0
70E0
70E0
70E0
79E0
3FC0
1F80
0000
0000
0000
0000
0000
ENDCHAR
STARTCHAR U+04E9
ENCODING 1257
SWIDTH 480 0
DWIDTH 12 0
BBX 12 24 0 -2
BITMAP
0000
0000
0000
0000
0000
0000
0000
0000
0000
1F80
3FC0
79E0
70E0
7FE0
7FE0
70E0
79E0
3FC0
1F80
0000
0000
0000
0000
0000
ENDCHAR
STARTCHAR U+04EA
ENCODING 1258
SWIDTH 480 0
DWIDTH 12 0
BBX 12 24 0 -2
BITMAP
0000
39C0
39C0
0000
0000
1F80
3FC0
79E0
70E0
70E0
70E0
7FE0
7FE0
70E0
70E0
70E0
79E0
3FC0
1F80
0000
0000
0000
0000
0000
ENDCHAR
STARTCHAR U+04EB
ENCODING 1259
SWIDTH 480 0
DWIDTH 12 0
BBX 12 24 0 -2
BITMAP
0000
0000
0000
0000
0000
39C0
39C0
0000
0000
1F80
3FC0
79E0
70E0
7FE0
7FE0
70E0
79E0
3FC0
1F80
0000
0000
0000
0000
0000
ENDCHAR
STARTCHAR U+04EE
ENCODING 1262
SWIDTH 480 0
DWIDTH 12 0
BBX 12 24 0 -2
BITMAP
0000
3FC0
3FC0
0000
0000
70E0
70E0
70E0
79E0
39C0
3DC0
1D80
1F80
0F00
0F00
0E00
1E00
7C00
7800
0000
0000
0000
0000
0000
ENDCHAR
STARTCHAR U+04EF
ENCODING 1263
SWIDTH 480 0
DWIDTH 12 0
BBX 12 24 0 -2
BITMAP
0000
0000
0000
0000
0000
3FC0
3FC0
0000
0000
70E0
70E0
70E0
79E0
39C0
3DC0
1D80
1F80
0F00
0F00
0E00
1E00
1C00
3C00
3800
ENDCHAR
ENDFONT
